<?xml version="1.0" standalone="no"?>
<!DOCTYPE svg PUBLIC "-//W3C//DTD SVG 1.1//EN" "http://www.w3.org/Graphics/SVG/1.1/DTD/svg11.dtd" >
<svg xmlns="http://www.w3.org/2000/svg" xmlns:xlink="http://www.w3.org/1999/xlink" version="1.1">
<metadata>
Created by FontForge 20170731 at Mon Apr 15 18:17:41 2019
 By Aleksey,,,
Copyright (c) 2019 by Fontfabirc LLC. All rights reserved.
</metadata>
<defs>
<font id="IntroScriptDemo-Medium" horiz-adv-x="505" >
  <font-face 
    font-family="Intro Script Demo Medium"
    font-weight="400"
    font-stretch="normal"
    units-per-em="1000"
    panose-1="0 0 5 0 0 0 0 0 0 0"
    ascent="740"
    descent="-260"
    x-height="405"
    cap-height="721"
    bbox="-269 -254 1690 908"
    underline-thickness="50"
    underline-position="-200"
    unicode-range="U+0020-F8FF"
  />
<missing-glyph horiz-adv-x="600" 
d="M519 645q0 -2 1 -62t1 -112q0 -131 -7 -233q-11 -154 -11 -190q0 -31 -20 -48.5t-48 -17.5l-295 1q-27 0 -47 17t-20 47q0 48 11 200q10 135 10 292q0 32 -0.5 68.5t-0.5 39.5q0 25 13 43.5t36 18.5l329 -1q23 0 35.5 -18.5t12.5 -44.5zM442 247q12 165 12 267
q0 86 -9 127l-279 1q4 -46 4 -115q0 -127 -12 -289q-7 -98 -7 -189v-1l280 -1v1q1 61 11 199zM369 467q9 0 15 -5.5t6 -14.5q0 -8 -11 -17q-31 -26 -63 -103q22 -48 54 -70q9 -6 9 -17q0 -8 -6 -15t-16 -7q-8 0 -21 13q-22 22 -40 51q-27 -51 -60 -51q-21 0 -34 12
q-9 8 -9 20q0 8 4.5 13.5t12.5 5.5q10 0 15 -5q7 -7 11 -7q8 0 35 59q-22 50 -27 101q-1 9 -1 18q0 18 23 20h2q17 0 19 -22q2 -30 9 -60q31 62 53 74q12 7 20 7z" />
    <glyph glyph-name="uni0411043B" unicode="&#x411;&#x43b;" horiz-adv-x="1140" 
d="M1163 254q9 27 32 27q8 0 15 -4t11.5 -12t4.5 -18q0 -9 -3 -18q-18 -50 -34.5 -87t-38.5 -71t-48 -52t-55 -18q-104 0 -110 215q-33 -107 -75 -163t-99 -56q-58 0 -87 47q-54 -46 -133 -46q-55 0 -101 22t-46 50q0 15 10 25.5t26 10.5q12 0 44.5 -16.5t66.5 -16.5
q55 0 89 40.5t34 105.5q0 47 -18.5 80.5t-54 51.5t-83.5 18q-45 0 -89 -13q-3 -33 -5 -68q-6 -76 -19.5 -130t-36 -89.5t-54 -52.5t-73.5 -17q-53 0 -93 37t-40 81q0 13 5 22.5t12.5 14.5t17.5 5q23 0 36 -28q13 -29 27.5 -43t34.5 -14q44 0 67.5 53t31.5 167q1 19 2 35
q-5 -1 -9 -1q-8 0 -15.5 2t-13 6t-8.5 10.5t-3 14.5q0 9 4.5 18t13.5 16.5t20 11.5q8 3 17 6q10 154 15 229q-28 2 -54 2q-45 0 -72 -22.5t-27 -56.5q0 -9 2.5 -17.5t6 -14.5t9.5 -12.5t11 -10t13 -10t12 -9.5q17 -14 17 -31q0 -14 -11 -24t-28 -10q-24 0 -50 18
q-28 20 -47 54t-19 67q0 69 49.5 111.5t129.5 42.5q66 0 165.5 -15.5t146.5 -15.5q33 0 63.5 11t37.5 11q13 0 23 -10.5t10 -26.5q0 -21 -21.5 -35.5t-47.5 -20t-52 -5.5q-18 0 -36 1t-39.5 3.5t-34 4.5t-39 6t-35.5 5q-1 -21 -4.5 -81.5t-7.5 -115.5q48 9 92 9
q69 0 122 -28t81.5 -79t28.5 -119q0 -61 -23 -109v-1q13 -38 39 -38q17 0 35 21t35 59t30 73.5t29.5 83t25.5 69.5q14 36 47 36q17 0 29 -11t12 -28q0 -77 3 -133.5t7 -87.5t11 -49.5t12.5 -23.5t13.5 -5q43 0 107 180z" />
    <glyph glyph-name="uni0411043C" unicode="&#x411;&#x43c;" horiz-adv-x="1297" 
d="M1319 254q10 26 33 26q12 0 22 -9.5t10 -23.5q0 -7 -3 -14q-19 -52 -37.5 -91t-40.5 -72.5t-47 -51.5t-52 -18q-38 0 -66.5 36t-35.5 121q-17 -44 -43 -70.5t-59 -26.5q-28 0 -53 22.5t-37 71.5q-48 -157 -140 -157q-56 0 -90 50q-55 -49 -137 -49q-55 0 -101 22t-46 50
q0 15 10 25.5t26 10.5q12 0 44.5 -16.5t66.5 -16.5q55 0 89 40.5t34 105.5q0 70 -41.5 110t-114.5 40q-45 0 -89 -13q-2 -33 -5 -68q-11 -151 -55 -220t-128 -69q-53 0 -93 37t-40 81q0 19 10 30.5t25 11.5q23 0 36 -28q13 -29 27.5 -43t34.5 -14q44 0 67.5 53t31.5 167
q1 19 2 35q-5 -1 -9 -1q-8 0 -15.5 2t-13 6t-8.5 10.5t-3 14.5q0 14 10.5 26.5t27.5 19.5q8 3 17 6q10 154 15 229q-28 2 -54 2q-45 0 -72 -22.5t-27 -56.5q0 -9 2.5 -17.5t6 -14.5t10 -12.5t11 -10t12.5 -10t12 -9.5q17 -14 17 -31q0 -14 -11 -24t-28 -10q-24 0 -50 18
q-28 20 -47 54t-19 67q0 69 49.5 111.5t129.5 42.5q66 0 165.5 -15.5t146.5 -15.5q33 0 63.5 11t37.5 11q13 0 23 -10.5t10 -26.5q0 -21 -21.5 -35.5t-47.5 -20t-52 -5.5q-18 0 -36 1t-39.5 3.5t-34 4.5t-39 6t-35.5 5q-1 -21 -4.5 -81.5t-7.5 -114.5q48 8 92 8
q105 0 168.5 -61.5t63.5 -164.5q0 -61 -23 -109v-1q16 -38 44 -38q61 0 129 311q7 34 41 34q17 0 29.5 -11t12.5 -29q0 -7 -5 -45t-5 -82q0 -48 10 -81t24 -33q40 0 97 235q7 31 37 31q14 0 25 -9t11 -24q0 -8 -3 -44.5t-3 -61.5q0 -79 12 -133.5t32 -54.5q34 0 104 181z
" />
    <glyph glyph-name="uni0411044F" unicode="&#x411;&#x44f;" horiz-adv-x="1190" 
d="M1213 254q11 27 32 27q13 0 22.5 -10t9.5 -24q0 -7 -3 -14q-21 -52 -39.5 -89t-42.5 -72t-51.5 -53t-57.5 -18q-40 0 -64 31t-24 92q0 11 1 40q-14 -5 -30 -6q-64 -164 -169 -164q-34 0 -63.5 15t-48.5 43q-56 -54 -142 -54q-55 0 -101 22t-46 50q0 15 10 25.5t26 10.5
q12 0 44.5 -16.5t66.5 -16.5q55 0 89 40.5t34 105.5q0 70 -41.5 110t-114.5 40q-45 0 -89 -13q-2 -33 -5 -68q-11 -151 -55 -220t-128 -69q-53 0 -93 37t-40 81q0 13 5 22.5t12.5 14.5t17.5 5q23 0 36 -28q13 -29 27.5 -43t34.5 -14q44 0 67.5 53t31.5 167q1 19 2 35
q-5 -1 -9 -1q-8 0 -15.5 2t-13 6t-8.5 10.5t-3 14.5q0 9 4.5 18t13.5 16.5t20 11.5q8 3 17 6q10 154 15 229q-28 2 -54 2q-45 0 -72 -22.5t-27 -56.5q0 -11 3 -20.5t9.5 -17.5t11.5 -12.5t15.5 -12.5t14.5 -11q17 -14 17 -31q0 -14 -11 -24t-28 -10q-24 0 -50 18
q-28 20 -47 54t-19 67q0 69 49.5 111.5t129.5 42.5q66 0 165.5 -15.5t146.5 -15.5q33 0 63.5 11t37.5 11q13 0 23 -10.5t10 -26.5q0 -21 -21.5 -35.5t-47.5 -20t-52 -5.5q-18 0 -36 1t-39.5 3.5t-34 4.5t-39 6t-35.5 5q-1 -21 -4.5 -81.5t-7.5 -114.5q48 8 92 8
q105 0 168.5 -61.5t63.5 -164.5q0 -56 -20 -101l2 -4q10 -22 28.5 -34t37.5 -12q50 0 93 100q-37 15 -58 45.5t-21 70.5q0 36 16.5 65t46 45.5t66.5 16.5q48 0 83 -29q12 32 42 32q15 0 25 -10.5t10 -27.5q0 -10 -14.5 -103t-14.5 -162q0 -36 26 -36q40 0 115 180zM954 221
q42 0 54 40q3 20 5 36q-2 23 -19 35.5t-40 12.5q-28 0 -47 -18t-19 -44q0 -27 18.5 -44.5t47.5 -17.5z" />
    <glyph glyph-name="uni0412043B" unicode="&#x412;&#x43b;" horiz-adv-x="1060" 
d="M1083 254q9 27 32 27q8 0 15 -4t11.5 -12t4.5 -18q0 -9 -3 -18q-17 -50 -34 -87t-39 -71t-48 -52t-55 -18q-104 0 -110 215q-33 -107 -75 -163t-99 -56q-60 0 -88 49q-57 -48 -134 -48q-57 0 -155 55q-46 -54 -122 -54q-52 0 -82.5 27t-30.5 66q0 23 13 43t38 32.5
t57 12.5q36 0 90 -25q30 83 30 235q0 32 -4.5 86t-4.5 62q0 19 12 31.5t29 12.5q14 0 25 -10.5t15 -29.5q12 -60 12 -154q0 -176 -39 -272q83 -43 129 -43q48 0 79.5 37t31.5 94q0 58 -35 90.5t-109 43.5q-39 6 -39 36q0 14 9 24.5t25 12.5q48 8 74 37t26 75q0 52 -41 87.5
t-103 35.5q-95 0 -145.5 -46.5t-50.5 -114.5q0 -23 17.5 -56t17.5 -42q0 -11 -5 -19.5t-14 -13.5t-20 -5q-33 0 -56.5 46.5t-23.5 89.5q0 99 75.5 167.5t204.5 68.5q66 0 118.5 -26.5t81 -71t28.5 -98.5q0 -33 -11 -61.5t-29.5 -48t-43.5 -32.5q62 -19 97.5 -66t35.5 -114
q0 -50 -22 -93q1 -1 1 -2q13 -38 39 -38q17 0 35 21t35 59t30 73.5t29.5 83t25.5 69.5q14 36 47 36q17 0 29 -11t12 -28q0 -77 3 -133.5t7 -87.5t11 -49.5t12.5 -23.5t13.5 -5q43 0 107 180zM179 71q30 0 53 22q-33 15 -53 15q-30 0 -30 -18q0 -19 30 -19z" />
    <glyph glyph-name="uni0412043C" unicode="&#x412;&#x43c;" horiz-adv-x="1219" 
d="M1241 254q10 26 33 26q12 0 22 -9.5t10 -23.5q0 -7 -3 -14q-16 -43 -28.5 -73.5t-30 -63t-34 -52t-38 -32t-45.5 -12.5q-40 0 -68 36t-35 121q-17 -44 -43 -70.5t-59 -26.5q-28 0 -53 22.5t-37 71.5q-48 -157 -140 -157q-58 0 -92 53q-58 -52 -139 -52q-56 0 -155 55
q-46 -54 -122 -54q-52 0 -82.5 27t-30.5 66q0 23 13 43t38 32.5t57 12.5q36 0 90 -25q30 82 30 235q0 33 -4.5 86.5t-4.5 61.5q0 19 12 31.5t29 12.5q7 0 13.5 -3t11.5 -8t9 -12.5t6 -16.5q12 -60 12 -154q0 -176 -39 -272q83 -43 129 -43q48 0 79.5 37t31.5 94
q0 58 -35 90.5t-109 43.5q-39 6 -39 36q0 14 9 24.5t25 12.5q48 8 74 37t26 75q0 52 -41 87.5t-103 35.5q-95 0 -145.5 -46.5t-50.5 -114.5q0 -23 17.5 -56t17.5 -42q0 -16 -11 -27t-28 -11q-33 0 -56.5 46.5t-23.5 89.5q0 99 75.5 167.5t204.5 68.5q100 0 164 -57t64 -139
q0 -49 -23 -85.5t-61 -56.5q62 -19 97.5 -66t35.5 -114q0 -49 -21 -91l2 -4q16 -38 44 -38q61 0 129 311q7 34 41 34q17 0 29.5 -11t12.5 -29q0 -7 -5 -45t-5 -82q0 -48 10 -81t24 -33q40 0 97 235q7 31 37 31q14 0 25 -9t11 -24q0 -8 -3 -44.5t-3 -61.5q0 -79 12 -133.5
t32 -54.5q34 0 104 181zM179 71q30 0 53 22q-32 15 -53 15q-30 0 -30 -18q0 -19 30 -19z" />
    <glyph glyph-name="uni0412044F" unicode="&#x412;&#x44f;" horiz-adv-x="1108" 
d="M1131 254q11 27 32 27q13 0 22.5 -10t9.5 -24q0 -7 -3 -14q-21 -52 -39.5 -89t-42.5 -72t-51.5 -53t-57.5 -18q-40 0 -64 31t-24 92q0 11 1 40q-14 -5 -30 -6q-64 -164 -169 -164q-34 0 -64 15.5t-48 42.5q-59 -54 -142 -54q-57 0 -155 55q-46 -54 -122 -54
q-52 0 -82.5 27t-30.5 66q0 23 13 43t38 32.5t57 12.5q36 0 90 -25q30 83 30 235q0 33 -4.5 86.5t-4.5 61.5q0 12 5.5 22.5t15 16t20.5 5.5q14 0 25 -10.5t15 -29.5q12 -60 12 -154q0 -176 -39 -272q83 -43 129 -43q48 0 79.5 37t31.5 94q0 58 -35 90.5t-109 43.5
q-39 6 -39 36q0 14 9 24.5t25 12.5q48 8 74 37t26 75q0 52 -41 87.5t-103 35.5q-95 0 -145.5 -46.5t-50.5 -114.5q0 -23 17.5 -56t17.5 -42q0 -16 -11 -27t-28 -11q-33 0 -56.5 46.5t-23.5 89.5q0 99 75.5 167.5t204.5 68.5q100 0 164 -57t64 -139q0 -49 -23 -85.5
t-61 -56.5q62 -19 97.5 -66t35.5 -114q0 -47 -19 -88q0 -1 1 -2q10 -22 28.5 -34t37.5 -12q50 0 93 100q-37 15 -58 45.5t-21 70.5q0 36 16.5 65t46 45.5t66.5 16.5q48 0 83 -29q12 32 42 32q15 0 25 -10.5t10 -27.5q0 -10 -14.5 -103t-14.5 -162q0 -36 26 -36q40 0 115 180
zM872 221q42 0 54 39q3 21 5 37q-2 23 -19 35.5t-40 12.5q-28 0 -47 -18t-19 -44q0 -27 18.5 -44.5t47.5 -17.5zM179 71q30 0 53 22q-33 15 -53 15q-30 0 -30 -18q0 -19 30 -19z" />
    <glyph glyph-name="uni0414043B" unicode="&#x414;&#x43b;" horiz-adv-x="1144" 
d="M1167 254q9 27 32 27q8 0 15 -4t11.5 -12t4.5 -18q0 -9 -3 -18q-18 -50 -34.5 -87t-38.5 -71t-48 -52t-55 -18q-104 0 -110 215q-33 -108 -77 -163.5t-107 -55.5q-31 0 -58 13.5t-43 40.5q-68 -56 -156 -56q-71 0 -180 56q-52 -56 -129 -56q-35 0 -60.5 13.5t-37 33
t-11.5 42.5q0 37 29 64.5t79 27.5q44 0 101 -27q37 83 41 227q-11 -1 -22 -1q-76 0 -120.5 38t-44.5 103q0 86 80 140.5t206 54.5q163 0 255 -93t92 -256q0 -154 -68 -253v-1q13 -38 48 -38q20 0 40.5 20.5t38.5 59.5t32 73t31 83.5t25 69.5q14 36 47 36q17 0 29 -11t12 -28
q0 -77 3 -133.5t7 -87.5t11 -49.5t12.5 -23.5t13.5 -5q43 0 107 180zM495 70q84 0 141.5 76.5t57.5 215.5q0 134 -67 204t-196 70q-94 0 -148 -31.5t-54 -87.5q0 -33 21 -50t60 -17q11 0 23 1q0 10 -1 32t-1 32q0 14 4.5 24t13.5 16t20 6q17 0 29 -11t14 -28q3 -19 4 -49
q38 14 49 14q16 0 26.5 -10t10.5 -24q0 -25 -27 -39q-26 -14 -58 -23q-5 -175 -56 -278q83 -43 134 -43zM190 67q32 0 57 21q-35 16 -57 16q-14 0 -22 -5.5t-8 -12.5t8 -13t22 -6z" />
    <glyph glyph-name="uni0414043C" unicode="&#x414;&#x43c;" horiz-adv-x="1313" 
d="M1335 254q10 26 33 26q12 0 22 -9.5t10 -23.5q0 -7 -3 -14q-16 -43 -28.5 -73.5t-30 -63t-34 -52t-38 -32t-45.5 -12.5q-40 0 -68 36t-35 121q-17 -44 -43 -70.5t-59 -26.5q-29 0 -53.5 22.5t-37.5 72.5q-50 -158 -151 -158q-32 0 -60.5 16t-47.5 46q-71 -64 -166 -64
q-71 0 -180 56q-52 -56 -129 -56q-35 0 -60.5 13.5t-37 33t-11.5 42.5q0 37 29 64.5t79 27.5q44 0 101 -27q37 83 41 227q-11 -1 -22 -1q-76 0 -120.5 38t-44.5 103q0 86 80 140.5t206 54.5q163 0 255 -93t92 -256q0 -147 -62 -244q9 -22 25 -35t31 -13q76 0 144 311
q7 34 41 34q17 0 29.5 -11t12.5 -29q0 -7 -5 -45t-5 -82q0 -48 10 -81t24 -33q23 0 50.5 75.5t46.5 159.5q7 31 37 31q14 0 25 -9t11 -24q0 -8 -3 -44.5t-3 -61.5q0 -79 12 -133.5t32 -54.5q34 0 104 181zM495 70q84 0 141.5 76.5t57.5 215.5q0 134 -67 204t-196 70
q-94 0 -148 -31.5t-54 -87.5q0 -33 21 -50t60 -17q11 0 23 1q0 10 -1 32t-1 32q0 14 4.5 24t13.5 16t20 6q17 0 29 -11t14 -28q3 -19 4 -49q38 14 49 14q16 0 26.5 -10t10.5 -24q0 -25 -27 -39q-26 -14 -58 -23q-5 -175 -56 -278q83 -43 134 -43zM190 67q32 0 57 21
q-35 16 -57 16q-14 0 -22 -5.5t-8 -12.5t8 -13t22 -6z" />
    <glyph glyph-name="uni0414044F" unicode="&#x414;&#x44f;" horiz-adv-x="1218" 
d="M1241 254q11 26 32 26q13 0 22.5 -9.5t9.5 -23.5q0 -7 -3 -14q-21 -52 -39.5 -89t-42.5 -72t-51.5 -53t-57.5 -18q-40 0 -64 31t-24 92q0 11 1 40q-14 -5 -30 -6q-66 -164 -181 -164q-87 0 -135 77q-74 -76 -178 -76q-71 0 -180 56q-52 -56 -129 -56q-35 0 -60.5 13.5
t-37 33t-11.5 42.5q0 37 29 64.5t79 27.5q44 0 101 -27q37 83 41 227q-11 -1 -22 -1q-76 0 -120.5 38t-44.5 103q0 86 80 140.5t206 54.5q163 0 255 -93t92 -256q0 -136 -54 -230q1 -1 1 -2q14 -33 38.5 -48t51.5 -15q60 0 104 101q-37 14 -58 44.5t-21 70.5q0 36 16.5 65
t46 45.5t66.5 16.5q48 0 83 -29q12 32 42 32q15 0 25 -10.5t10 -27.5q0 -10 -14.5 -103t-14.5 -162q0 -36 26 -36q40 0 115 180zM495 70q84 0 141.5 76.5t57.5 215.5q0 134 -67 204t-196 70q-94 0 -148 -31.5t-54 -87.5q0 -33 21 -50t60 -17q11 0 23 1q0 10 -1 32t-1 32
q0 14 4.5 24t13.5 16t20 6q17 0 29 -11t14 -28q3 -19 4 -49q38 14 49 14q16 0 26.5 -10t10.5 -24q0 -25 -27 -39q-26 -14 -58 -23q-5 -175 -56 -278q83 -43 134 -43zM982 221q42 0 54 39q3 21 5 37q-2 23 -19 35.5t-40 12.5q-28 0 -47 -18t-19 -44q0 -27 18.5 -44.5
t47.5 -17.5zM190 67q32 0 57 21q-35 16 -57 16q-14 0 -22 -5.5t-8 -12.5t8 -13t22 -6z" />
    <glyph glyph-name="uni0417043B" unicode="&#x417;&#x43b;" horiz-adv-x="960" 
d="M983 254q9 27 32 27q8 0 15 -4t11.5 -12t4.5 -18q0 -9 -3 -18q-17 -50 -34 -87t-39 -71t-48 -52t-55 -18q-104 0 -110 215q-33 -107 -75 -163t-99 -56q-60 0 -88 49q-62 -52 -153 -52q-90 0 -147.5 41.5t-78.5 98.5q-4 11 -4 22q0 19 11.5 31t25.5 12q21 0 34 -23
q31 -55 67.5 -81t95.5 -26q65 0 104.5 42t39.5 112q0 62 -35 101t-86 39q-12 0 -29.5 -2.5t-23.5 -2.5q-17 0 -28 11t-11 26q0 29 30 42q44 19 69 55t25 81q0 35 -18 54.5t-50 19.5q-26 0 -46.5 -13.5t-31.5 -34.5l-3 -6q-8 -14 -12 -21.5t-12 -14t-18 -6.5q-18 0 -26.5 10
t-8.5 26q0 15 8 34q13 32 37 55t54.5 34.5t66.5 11.5q62 0 103 -41.5t41 -105.5q0 -38 -16.5 -77.5t-42.5 -66.5q72 -24 110 -81t38 -126q0 -64 -27 -115v-1q13 -38 39 -38q17 0 35 21t35 59t30 73.5t29.5 83t25.5 69.5q14 36 47 36q17 0 29 -11t12 -28q0 -77 3 -133.5
t7 -87.5t11 -49.5t12.5 -23.5t13.5 -5q43 0 107 180z" />
    <glyph glyph-name="uni0417043C" unicode="&#x417;&#x43c;" horiz-adv-x="1118" 
d="M1140 254q10 26 33 26q12 0 22 -9.5t10 -23.5q0 -7 -3 -14q-16 -43 -28.5 -73.5t-30 -63t-34 -52t-38 -32t-45.5 -12.5q-40 0 -68 36t-35 121q-17 -44 -43 -70.5t-59 -26.5q-28 0 -53 22.5t-37 71.5q-48 -157 -140 -157q-58 0 -91 52q-64 -55 -158 -55q-90 0 -147.5 41.5
t-78.5 98.5q-4 11 -4 22q0 19 11.5 31t25.5 12q21 0 34 -23q31 -55 67.5 -81t95.5 -26q43 0 75.5 19t50.5 53.5t18 81.5q0 62 -35 101t-86 39q-12 0 -29.5 -2.5t-23.5 -2.5q-17 0 -28 11t-11 26q0 29 30 42q22 9 39.5 23t29.5 31.5t18.5 38t6.5 43.5q0 35 -18 54.5t-50 19.5
q-26 0 -46.5 -13.5t-31.5 -34.5l-3 -6q-8 -14 -12 -21.5t-12 -14t-18 -6.5q-18 0 -26.5 10t-8.5 26q0 15 8 34q20 49 62 75t96 26q62 0 103 -41.5t41 -105.5q0 -26 -8 -53t-21.5 -50t-29.5 -41q72 -24 110 -81t38 -126q0 -63 -27 -114q1 -1 1 -2q16 -38 44 -38q61 0 129 311
q7 34 41 34q17 0 29.5 -11t12.5 -29q0 -7 -5 -45t-5 -82q0 -48 10 -81t24 -33q23 0 50.5 75.5t46.5 159.5q7 31 37 31q14 0 25 -9t11 -24q0 -8 -3 -44.5t-3 -61.5q0 -79 12 -133.5t32 -54.5q34 0 104 181z" />
    <glyph glyph-name="uni0417044F" unicode="&#x417;&#x44f;" horiz-adv-x="1008" 
d="M1031 254q11 26 32 26q13 0 22.5 -9.5t9.5 -23.5q0 -7 -3 -14q-21 -52 -39.5 -89t-42.5 -72t-51.5 -53t-57.5 -18q-40 0 -64 31t-24 92q0 11 1 40q-14 -5 -30 -6q-64 -164 -169 -164q-34 0 -64 15.5t-48 42.5q-64 -58 -161 -58q-90 0 -147.5 41.5t-78.5 98.5q-4 11 -4 22
q0 19 11.5 31t25.5 12q21 0 34 -23q21 -37 41.5 -59t51 -35t70.5 -13q43 0 75.5 19t50.5 53.5t18 81.5q0 62 -35 101t-86 39q-12 0 -29.5 -2.5t-23.5 -2.5q-17 0 -28 11t-11 26q0 29 30 42q22 9 39.5 23t29.5 31t18.5 38t6.5 44q0 35 -18 54.5t-50 19.5q-26 0 -46.5 -13.5
t-31.5 -34.5l-3 -6q-8 -14 -12 -21.5t-12 -14t-18 -6.5q-18 0 -26.5 10t-8.5 26q0 15 8 34q20 49 62 75t96 26q62 0 103 -41.5t41 -105.5q0 -26 -8 -53t-21.5 -50t-29.5 -41q72 -24 110 -81t38 -126q0 -60 -25 -110q1 0 1 -1q10 -22 28.5 -34t37.5 -12q50 0 93 100
q-37 15 -58 45.5t-21 70.5q0 36 16.5 65t46 45.5t66.5 16.5q48 0 83 -29q12 32 42 32q15 0 25 -10.5t10 -27.5q0 -10 -14.5 -103t-14.5 -162q0 -36 26 -36q40 0 115 180zM772 221q42 0 54 39q3 21 5 37q-2 23 -19 35.5t-40 12.5q-28 0 -47 -18t-19 -44q0 -17 8.5 -31.5
t23.5 -22.5t34 -8z" />
    <glyph glyph-name="uni0422043B" unicode="&#x422;&#x43b;" horiz-adv-x="823" 
d="M846 254q9 27 32 27q8 0 15 -4t11.5 -12t4.5 -18q0 -9 -3 -18q-17 -50 -34 -87t-39 -71t-48 -52t-55 -18q-104 0 -110 215q-33 -108 -77 -163.5t-107 -55.5q-59 0 -92 42q-40 -39 -101 -39q-94 0 -136 82q-8 16 -8 33q0 9 3 16.5t7.5 12.5t11 8t13.5 3q24 0 41 -28
q11 -17 18 -26.5t20 -17.5t29 -8q85 0 98 225q2 31 23 322q-73 14 -105 14q-38 0 -61 -18t-23 -46q0 -42 45 -67q27 -16 27 -39q0 -15 -12 -25.5t-30 -10.5q-16 0 -31 8q-39 21 -61 56.5t-22 76.5q0 63 46 101.5t122 38.5q51 0 146 -21t138 -21q34 0 54.5 11.5t27 25t17 25
t25.5 11.5q14 0 24 -9t10 -23q0 -47 -41.5 -81.5t-95.5 -34.5q-46 0 -117 12q-5 -63 -12.5 -172.5t-9.5 -139.5q-8 -115 -36 -184q1 -1 1 -2q13 -38 48 -38q20 0 40.5 20.5t38.5 59.5t32 73t31 83.5t25 69.5q14 36 47 36q17 0 29 -11t12 -28q0 -77 3 -133.5t7 -87.5
t11 -49.5t12.5 -23.5t13.5 -5q43 0 107 180z" />
    <glyph glyph-name="uni0422043C" unicode="&#x422;&#x43c;" horiz-adv-x="990" 
d="M1012 254q10 26 33 26q12 0 22 -9.5t10 -23.5q0 -7 -3 -14q-16 -43 -28.5 -73.5t-30 -63t-34 -52t-38 -32t-45.5 -12.5q-40 0 -68 36t-35 121q-17 -44 -43 -70.5t-59 -26.5q-29 0 -53.5 22.5t-37.5 72.5q-50 -158 -151 -158q-62 0 -100 50q-41 -47 -108 -47
q-94 0 -136 82q-8 16 -8 33q0 9 3 16.5t7.5 12.5t11 8t13.5 3q24 0 41 -28q11 -17 18 -26.5t20 -17.5t29 -8q85 0 98 225q2 31 23 322q-73 14 -105 14q-38 0 -61 -18t-23 -46q0 -42 45 -67q27 -16 27 -39q0 -10 -5 -18t-15 -13t-22 -5q-16 0 -31 8q-39 21 -61 56.5t-22 76.5
q0 63 46 101.5t122 38.5q51 0 146 -21t138 -21q28 0 46.5 7.5t27 18.5t14.5 21.5t14.5 18t21.5 7.5q14 0 24 -9t10 -23q0 -31 -19 -58t-51 -42.5t-67 -15.5q-46 0 -117 12q-5 -63 -12.5 -172.5t-9.5 -139.5q-8 -107 -32 -174q1 -1 1 -2q9 -22 25 -35t31 -13q76 0 144 311
q7 34 41 34q17 0 29.5 -11t12.5 -29q0 -7 -5 -45t-5 -82q0 -48 10 -81t24 -33q40 0 97 235q7 31 37 31q14 0 25 -9t11 -24q0 -8 -3 -44.5t-3 -61.5q0 -79 12 -133.5t32 -54.5q34 0 104 181z" />
    <glyph glyph-name="uni0422044F" unicode="&#x422;&#x44f;" horiz-adv-x="867" 
d="M890 253q11 27 32 27q13 0 22.5 -10t9.5 -24q0 -7 -3 -14q-21 -52 -39.5 -89t-42.5 -72t-51.5 -53t-57.5 -18q-40 0 -64 31t-24 92q0 11 2 41q-15 -5 -30 -6q-67 -164 -184 -164q-71 0 -111 50q-41 -44 -106 -44q-94 0 -136 82q-8 16 -8 33q0 9 3 16.5t7.5 12.5t11 8
t13.5 3q24 0 41 -28q6 -10 10 -16.5t11 -14t13 -11.5t14.5 -7t18.5 -3q85 0 98 225q2 31 23 322q-73 14 -105 14q-38 0 -61 -18t-23 -46q0 -42 45 -67q27 -16 27 -39q0 -15 -12 -25.5t-30 -10.5q-16 0 -31 8q-39 21 -61 56.5t-22 76.5q0 63 46 101.5t122 38.5q51 0 146 -21
t138 -21q28 0 46.5 7.5t27 18t14.5 21.5t14.5 18.5t21.5 7.5q14 0 24 -9t10 -23q0 -31 -19 -58t-51 -42.5t-67 -15.5q-46 0 -117 12q-5 -63 -12.5 -172.5t-9.5 -139.5q-8 -112 -34 -180v-1q20 -46 70 -46q35 0 61 26t48 74q-38 14 -59 45t-21 71q0 36 16.5 65t46 45.5
t66.5 16.5q48 0 84 -30q12 32 41 32q15 0 25 -10.5t10 -27.5q0 -10 -14.5 -103t-14.5 -162q0 -36 26 -36q40 0 115 180zM631 221q43 0 54 41q3 19 5 35q-1 12 -6.5 21t-13.5 15t-18 9t-21 3q-28 0 -47 -18t-19 -44q0 -17 8.5 -31.5t23.5 -22.5t34 -8z" />
    <glyph glyph-name="uni0423043B" unicode="&#x423;&#x43b;" horiz-adv-x="954" 
d="M977 254q9 27 32 27q8 0 15 -4t11.5 -12t4.5 -18q0 -9 -3 -18q-17 -50 -34 -87t-39 -71t-48 -52t-55 -18q-104 0 -110 215q-33 -108 -78 -163.5t-111 -55.5q-30 0 -58.5 13t-44.5 38q-57 -50 -130 -50q-45 0 -82.5 19t-58.5 51q-11 16 -11 34q0 16 10.5 26t24.5 10
q17 0 32 -18q40 -47 85 -47q65 0 110 71t69 186q-68 -96 -167 -96q-66 0 -104.5 42t-38.5 119q0 33 7 103.5t7 84.5q0 47 -30 47q-15 0 -32.5 -12.5t-45.5 -40.5q-14 -14 -30 -14q-13 0 -22.5 9t-9.5 25q0 18 13 35q26 36 61 54.5t70 18.5q30 0 54.5 -13t40 -38.5
t15.5 -59.5q0 -17 -7 -92.5t-7 -100.5q0 -92 72 -92q65 0 117 69t59 173v9q0 50 -3 94q-1 23 12.5 37t31.5 14q10 0 18 -4t14 -13.5t7 -22.5q5 -61 4 -108q-9 -300 -104 -448v-1q13 -38 53 -38q22 0 43 20.5t40 59.5t32.5 73t31.5 84t25 69q14 36 47 36q17 0 29 -11t12 -28
q0 -77 3 -133.5t7 -87.5t11 -49.5t12.5 -23.5t13.5 -5q43 0 107 180z" />
    <glyph glyph-name="uni0423043C" unicode="&#x423;&#x43c;" horiz-adv-x="1118" 
d="M1140 254q10 26 33 26q12 0 22 -9.5t10 -23.5q0 -7 -3 -14q-16 -43 -28.5 -73.5t-30 -63t-34 -52t-38 -32t-45.5 -12.5q-40 0 -68 36t-35 121q-17 -44 -43 -70.5t-59 -26.5q-18 0 -34.5 8.5t-32 30.5t-24.5 56q-50 -158 -151 -158q-32 0 -61 16t-47 47q-61 -62 -142 -62
q-30 0 -57.5 9t-48.5 24.5t-35 36.5q-11 16 -11 34q0 16 10.5 26t24.5 10q17 0 32 -18q40 -47 85 -47q65 0 110 71t69 186q-68 -96 -167 -96q-66 0 -104.5 42t-38.5 119q0 33 7 103.5t7 84.5q0 47 -30 47q-15 0 -32.5 -12.5t-45.5 -40.5q-14 -14 -30 -14q-13 0 -22.5 9
t-9.5 25q0 18 13 35q17 24 39.5 41t45.5 24.5t46 7.5q30 0 54.5 -13t40 -38.5t15.5 -59.5q0 -17 -7 -92.5t-7 -100.5q0 -92 72 -92q65 0 117 69t59 173v9q0 50 -3 94q-1 23 12.5 37t31.5 14q10 0 18 -4t14 -13.5t7 -22.5q5 -61 4 -108q-9 -284 -95 -434q1 -2 2 -5
q9 -22 25 -35t31 -13q76 0 144 311q7 34 41 34q17 0 29.5 -11t12.5 -29q0 -7 -5 -45t-5 -82q0 -48 10 -81t24 -33q40 0 97 235q7 31 37 31q14 0 25 -9t11 -24q0 -8 -3 -44.5t-3 -61.5q0 -79 12 -133.5t32 -54.5q34 0 104 181z" />
    <glyph glyph-name="uni0423044F" unicode="&#x423;&#x44f;" horiz-adv-x="1017" 
d="M1040 254q11 26 32 26q13 0 22.5 -9.5t9.5 -23.5q0 -7 -3 -14q-21 -52 -39.5 -89t-42.5 -72t-51.5 -53t-57.5 -18q-40 0 -64 31t-24 92q0 11 1 40q-14 -5 -30 -6q-66 -164 -181 -164q-86 0 -133 74q-63 -70 -150 -70q-45 0 -82.5 19t-58.5 51q-11 16 -11 34q0 16 10.5 26
t24.5 10q17 0 32 -18q40 -47 85 -47q65 0 110 71t69 186q-68 -96 -167 -96q-66 0 -104.5 42t-38.5 119q0 33 7 103.5t7 84.5q0 47 -30 47q-15 0 -32.5 -12.5t-45.5 -40.5q-14 -14 -30 -14q-13 0 -22.5 9t-9.5 25q0 18 13 35q26 36 61 54.5t70 18.5q30 0 54.5 -13t40 -38.5
t15.5 -59.5q0 -17 -7 -92.5t-7 -100.5q0 -92 72 -92q65 0 117 69t59 173v9q0 50 -3 94q-1 23 12.5 37t31.5 14q10 0 18 -4t14 -13.5t7 -22.5q5 -61 4 -108q-8 -276 -91 -425q1 -1 1 -2q14 -33 38.5 -48t51.5 -15q60 0 104 101q-37 14 -58 44.5t-21 70.5q0 36 16.5 65
t46 45.5t66.5 16.5q48 0 83 -29q12 32 42 32q15 0 25 -10.5t10 -27.5q0 -10 -14.5 -103t-14.5 -162q0 -36 26 -36q40 0 115 180zM781 221q42 0 54 39q3 21 5 37q-2 23 -19 35.5t-40 12.5q-28 0 -47 -18t-19 -44q0 -17 8.5 -31.5t23.5 -22.5t34 -8z" />
    <glyph glyph-name="uni0424043B" unicode="&#x424;&#x43b;" horiz-adv-x="1167" 
d="M1190 254q9 27 32 27q8 0 15 -4t11.5 -12t4.5 -18q0 -9 -3 -18q-17 -50 -34 -87t-39 -71t-48 -52t-55 -18q-104 0 -110 215q-33 -108 -78 -163.5t-111 -55.5q-34 0 -65 16t-45 47q-51 -33 -106 -33q-43 0 -83 23q-21 -113 -70 -151q-36 -28 -69 -28q-17 0 -28 8.5
t-11 22.5q0 26 34 44q28 15 45 49.5t26 95.5q-54 -71 -123 -71q-72 0 -117.5 56.5t-45.5 166.5q0 82 22.5 150.5t59 112.5t83 68.5t95.5 24.5q44 0 79 -22q5 35 13 83q-51 5 -92.5 30t-41.5 61q0 18 9 28.5t25 10.5q13 0 25 -9t21 -20.5t25 -20.5t36 -9q21 0 51 19t47 19
q20 0 31 -11.5t11 -27.5q0 -25 -25 -41q-14 -9 -21 -14.5t-12 -14t-7.5 -17t-5.5 -26.5q-5 -29 -11 -65q51 58 117 58q67 0 113 -55.5t46 -152.5q0 -184 -88 -291q0 -1 1 -3q13 -38 53 -38q22 0 43 20.5t40 59.5t32.5 73t31.5 84t25 69q14 36 47 36q17 0 29 -11t12 -28
q0 -77 3 -133.5t7 -87.5t11 -49.5t12.5 -23.5t13.5 -5q43 0 107 180zM559 102q28 0 57 19t54 54.5t40.5 94.5t15.5 132q0 62 -22.5 97.5t-61.5 35.5q-38 0 -74 -32t-52 -89q-6 -53 -12 -113q-2 -20 -7.5 -82t-9.5 -94q29 -23 72 -23zM287 95q19 0 37.5 8.5t37.5 28t34.5 58
t23.5 93.5q5 84 23 207q-10 15 -28 24.5t-38 9.5q-30 0 -60.5 -19t-56.5 -53t-42.5 -89t-16.5 -120q0 -75 24 -111.5t62 -36.5z" />
    <glyph glyph-name="uni0424043C" unicode="&#x424;&#x43c;" horiz-adv-x="1343" 
d="M1365 254q10 26 33 26q12 0 22 -9.5t10 -23.5q0 -7 -3 -14q-16 -43 -28.5 -73.5t-30 -63t-34 -52t-38 -32t-45.5 -12.5q-40 0 -68 36t-35 121q-17 -44 -43 -70.5t-59 -26.5q-29 0 -53.5 22.5t-37.5 73.5q-51 -159 -161 -159q-37 0 -69.5 17.5t-51.5 50.5
q-54 -38 -114 -38q-43 0 -83 23q-21 -112 -70 -151q-36 -28 -69 -28q-17 0 -28 8.5t-11 22.5q0 26 34 44q28 16 44.5 50t26.5 94q-54 -70 -123 -70q-72 0 -117.5 56.5t-45.5 166.5q0 82 22.5 150.5t59 112.5t83 68.5t95.5 24.5q44 0 79 -22q5 35 13 83q-51 5 -92.5 30
t-41.5 61q0 18 9 28.5t25 10.5q13 0 25 -9t21 -20.5t25 -20.5t36 -9q21 0 51 19t47 19q19 0 30.5 -11t11.5 -28q0 -25 -25 -41q-26 -16 -33 -27.5t-13 -44.5q-5 -29 -11 -65q51 58 117 58q67 0 113 -55.5t46 -152.5q0 -179 -84 -285q7 -14 16 -24.5t21 -16.5t25 -6
q90 0 158 311q7 34 41 34q17 0 29.5 -11t12.5 -29q0 -7 -5 -45t-5 -82q0 -48 10 -81t24 -33q40 0 97 235q7 31 37 31q14 0 25 -9t11 -24q0 -8 -3 -44.5t-3 -61.5q0 -79 12 -133.5t32 -54.5q34 0 104 181zM559 102q28 0 57 19t54 54.5t40.5 94.5t15.5 132q0 62 -22.5 97.5
t-61.5 35.5q-38 0 -74 -32t-52 -89q-6 -53 -12 -113q-2 -20 -7.5 -82t-9.5 -94q29 -23 72 -23zM287 95q20 0 38 8.5t37.5 28t34.5 58t23 93.5q5 84 23 207q-10 15 -28 24.5t-38 9.5q-30 0 -60.5 -19t-56.5 -53t-42.5 -89t-16.5 -120q0 -75 24 -111.5t62 -36.5z" />
    <glyph glyph-name="uni0424044F" unicode="&#x424;&#x44f;" horiz-adv-x="1231" 
d="M1254 254q11 27 32 27q13 0 22.5 -10t9.5 -24q0 -7 -3 -14q-21 -52 -39.5 -89t-42.5 -72t-51.5 -53t-57.5 -18q-40 0 -64 31t-24 92q0 11 1 40q-14 -5 -30 -6q-66 -164 -181 -164q-92 0 -138 83q-60 -50 -129 -50q-43 0 -83 23q-21 -112 -70 -151q-36 -28 -69 -28
q-17 0 -28 8.5t-11 22.5q0 26 34 44q28 16 44.5 50t26.5 94q-54 -70 -123 -70q-72 0 -117.5 56.5t-45.5 166.5q0 82 22.5 150.5t59 112.5t83 68.5t95.5 24.5q44 0 79 -22q5 35 13 83q-51 5 -92.5 30t-41.5 61q0 18 9 28.5t25 10.5q13 0 25 -9t21 -20.5t25 -20.5t36 -9
q21 0 51 19t47 19q20 0 31 -11t11 -28q0 -25 -25 -41q-14 -9 -21 -14.5t-12 -14t-7.5 -17t-5.5 -26.5q-5 -29 -11 -65q51 58 117 58q67 0 113 -55.5t46 -152.5q0 -166 -73 -270q1 -1 1 -2q9 -22 25 -37t32 -20.5t33 -5.5q60 0 104 101q-37 14 -58 44.5t-21 70.5
q0 36 16.5 65t46 45.5t66.5 16.5q48 0 83 -29q12 32 42 32q15 0 25 -10.5t10 -27.5q0 -10 -14.5 -103t-14.5 -162q0 -36 26 -36q40 0 115 180zM559 102q28 0 57 19t54 54.5t40.5 94.5t15.5 132q0 62 -22.5 97.5t-61.5 35.5q-38 0 -74 -32t-52 -89q-6 -53 -12 -113
q-2 -20 -7.5 -82t-9.5 -94q29 -23 72 -23zM287 95q19 0 37.5 8.5t37.5 28t34.5 58t23.5 93.5q5 84 23 207q-10 15 -28 24.5t-38 9.5q-30 0 -60.5 -19t-56.5 -53t-42.5 -89t-16.5 -120q0 -75 24 -111.5t62 -36.5zM995 221q42 0 54 40q3 20 5 36q-2 23 -19 35.5t-40 12.5
q-28 0 -47 -18t-19 -44q0 -17 8.5 -31.5t23.5 -22.5t34 -8z" />
    <glyph glyph-name="uni042C043B" unicode="&#x42c;&#x43b;" horiz-adv-x="986" 
d="M1009 254q9 27 32 27q8 0 15 -4t11.5 -12t4.5 -18q0 -9 -3 -18q-17 -50 -34 -87t-39 -71t-48 -52t-55 -18q-104 0 -110 215q-33 -108 -77 -163.5t-107 -55.5q-31 0 -58 13.5t-42 39.5q-69 -57 -154 -57q-97 0 -148 63t-51 186q0 51 12.5 177t12.5 166q0 24 -4 54t-4 34
q0 19 12.5 30.5t29.5 11.5q15 0 26.5 -9.5t15.5 -27.5q8 -40 8 -91q0 -39 -15 -195q79 103 190 103q75 0 125 -56t50 -150q0 -102 -53 -180v-1q13 -38 48 -38q20 0 40.5 20.5t38.5 59.5t32 73t31 83.5t25 69.5q14 36 47 36q17 0 29 -11t12 -28q0 -77 3 -133.5t7 -87.5
t11 -49.5t12.5 -23.5t13.5 -5q43 0 107 180zM345 68q68 0 122 62.5t54 157.5q0 62 -26 97t-73 35q-42 0 -86 -26.5t-74.5 -70t-31.5 -87.5q1 -59 13.5 -96t37.5 -54.5t64 -17.5z" />
    <glyph glyph-name="uni042C043C" unicode="&#x42c;&#x43c;" horiz-adv-x="1155" 
d="M1177 254q10 26 33 26q12 0 22 -9.5t10 -23.5q0 -7 -3 -14q-16 -43 -28.5 -73.5t-30 -63t-34 -52t-38 -32t-45.5 -12.5q-40 0 -68 36t-35 121q-17 -44 -43 -70.5t-59 -26.5q-29 0 -53.5 22.5t-37.5 72.5q-50 -158 -151 -158q-31 0 -60 15.5t-47 46.5q-73 -66 -164 -66
q-97 0 -148 63t-51 186q0 51 12.5 177t12.5 166q0 24 -4 54t-4 34q0 19 12.5 30.5t29.5 11.5q15 0 26.5 -9.5t15.5 -27.5q8 -40 8 -91q0 -39 -15 -195q79 103 190 103q75 0 125 -56t50 -150q0 -95 -47 -171q9 -22 25 -35t31 -13q76 0 144 311q7 34 41 34q17 0 29.5 -11
t12.5 -29q0 -7 -5 -45t-5 -82q0 -48 10 -81t24 -33q40 0 97 235q7 31 37 31q14 0 25 -9t11 -24q0 -8 -3 -44.5t-3 -61.5q0 -79 12 -133.5t32 -54.5q34 0 104 181zM345 68q68 0 122 62.5t54 157.5q0 62 -26 97t-73 35q-42 0 -86 -26.5t-74.5 -70t-31.5 -88.5q1 -87 29 -127
t86 -40z" />
    <glyph glyph-name="uni042C044F" unicode="&#x42c;&#x44f;" horiz-adv-x="1050" 
d="M1073 254q11 26 32 26q13 0 22.5 -9.5t9.5 -23.5q0 -7 -3 -14q-21 -52 -39.5 -89t-42.5 -72t-51.5 -53t-57.5 -18q-40 0 -64 31t-24 92q0 11 2 40q-15 -5 -31 -6q-66 -164 -178 -164q-84 0 -129 75q-75 -76 -174 -76q-97 0 -148 63t-51 186q0 51 12.5 177t12.5 166
q0 24 -4 54t-4 34q0 19 12.5 30.5t29.5 11.5q15 0 26.5 -9.5t15.5 -27.5q8 -40 8 -91q0 -39 -15 -195q79 103 190 103q48 0 88 -24.5t63.5 -72t23.5 -109.5q0 -88 -40 -159q27 -63 85 -63q57 0 101 101q-37 14 -58 44.5t-21 70.5q0 36 16.5 65t46 45.5t66.5 16.5
q48 0 83 -29q12 32 42 32q15 0 25 -10.5t10 -27.5q0 -10 -14.5 -103t-14.5 -162q0 -36 26 -36q40 0 115 180zM345 68q68 0 122 62.5t54 157.5q0 62 -26 97t-73 35q-42 0 -86 -26.5t-74.5 -70t-31.5 -88.5q1 -43 8 -74.5t21 -52t35.5 -30.5t50.5 -10zM814 221q42 0 54 39
q3 21 5 37q-2 23 -19 35.5t-40 12.5q-28 0 -47 -18t-19 -44q0 -27 18.5 -44.5t47.5 -17.5z" />
    <glyph glyph-name="uni042A043B" unicode="&#x42a;&#x43b;" horiz-adv-x="989" 
d="M1012 254q9 27 32 27q8 0 15 -4t11.5 -12t4.5 -18q0 -9 -3 -18q-17 -50 -34 -87t-39 -71t-48 -52t-55 -18q-104 0 -110 215q-33 -108 -77 -163.5t-107 -55.5q-30 0 -57 13t-42 39q-69 -58 -154 -58q-102 0 -151.5 66.5t-49.5 204.5q0 183 53 329q-68 0 -120 35
q-36 25 -36 57q0 13 8 22t20 9q11 0 21.5 -7.5t20 -17t29.5 -17t47 -7.5q37 0 62 10.5t33 10.5q16 0 26 -10t10 -25q0 -17 -17 -41t-21 -33q-32 -75 -44 -189q82 107 194 107q75 0 125 -55.5t50 -150.5q0 -103 -54 -182q7 -18 20.5 -27.5t27.5 -9.5q20 0 40.5 20.5
t38.5 59.5t32 73t31 83.5t25 69.5q14 36 47 36q17 0 29 -11t12 -28q0 -77 3 -133.5t7 -87.5t11 -49.5t12.5 -23.5t13.5 -5q43 0 107 180zM349 66q68 0 122 64t54 158q0 62 -26.5 97t-72.5 35q-67 0 -127.5 -63.5t-64.5 -131.5q3 -83 30.5 -121t84.5 -38z" />
    <glyph glyph-name="uni042A043C" unicode="&#x42a;&#x43c;" horiz-adv-x="1158" 
d="M1180 254q10 26 33 26q12 0 22 -9.5t10 -23.5q0 -7 -3 -14q-16 -43 -28.5 -73.5t-30 -63t-34 -52t-38 -32t-45.5 -12.5q-40 0 -68 36t-35 121q-17 -44 -43 -70.5t-59 -26.5q-29 0 -53.5 22.5t-37.5 72.5q-50 -158 -151 -158q-31 0 -59.5 15.5t-46.5 44.5
q-73 -66 -164 -66q-102 0 -151.5 66.5t-49.5 204.5q0 183 53 329q-68 0 -120 35q-36 25 -36 57q0 13 8 22t20 9q11 0 21.5 -7.5t20 -17t29.5 -17t47 -7.5q37 0 62 10.5t33 10.5q16 0 26 -10t10 -25q0 -17 -17 -41t-21 -33q-32 -75 -44 -189q82 107 194 107q49 0 88 -23.5
t63 -71t24 -111.5q0 -96 -47 -173q9 -21 24.5 -33.5t30.5 -12.5q76 0 144 311q7 34 41 34q17 0 29.5 -11t12.5 -29q0 -7 -5 -45t-5 -82q0 -48 10 -81t24 -33q40 0 97 235q7 31 37 31q14 0 25 -9t11 -24q0 -8 -3 -44.5t-3 -61.5q0 -79 12 -133.5t32 -54.5q34 0 104 181z
M349 66q68 0 122 64t54 158q0 62 -26.5 97t-72.5 35q-67 0 -127.5 -63.5t-64.5 -131.5q2 -56 15 -91t37.5 -51.5t62.5 -16.5z" />
    <glyph glyph-name="uni042A044F" unicode="&#x42a;&#x44f;" horiz-adv-x="1055" 
d="M1078 254q11 26 32 26q13 0 22.5 -9.5t9.5 -23.5q0 -7 -3 -14q-21 -52 -39.5 -89t-42.5 -72t-51.5 -53t-57.5 -18q-40 0 -64 31t-24 92q0 11 2 40q-15 -5 -31 -6q-66 -164 -178 -164q-84 0 -129 74q-75 -77 -175 -77q-102 0 -151.5 66.5t-49.5 204.5q0 183 53 329
q-68 0 -120 35q-36 25 -36 57q0 13 8 22t20 9q11 0 21.5 -7.5t20 -17t29.5 -17t47 -7.5q37 0 62 10.5t33 10.5q16 0 26 -10t10 -25q0 -17 -17 -41t-21 -33q-32 -75 -44 -189q82 107 194 107q75 0 125 -55.5t50 -150.5q0 -87 -39 -159q27 -63 85 -63q57 0 101 101
q-37 14 -58 44.5t-21 70.5q0 36 16.5 65t46 45.5t66.5 16.5q48 0 83 -29q12 32 42 32q15 0 25 -10.5t10 -27.5q0 -10 -14.5 -103t-14.5 -162q0 -36 26 -36q40 0 115 180zM349 66q68 0 122 64t54 158q0 62 -26.5 97t-72.5 35q-67 0 -127.5 -63.5t-64.5 -131.5q2 -56 15 -91
t37.5 -51.5t62.5 -16.5zM819 221q42 0 54 39q3 21 5 37q-2 23 -19 35.5t-40 12.5q-28 0 -47 -18t-19 -44q0 -27 18.5 -44.5t47.5 -17.5z" />
    <glyph glyph-name="uni042D043B" unicode="&#x42d;&#x43b;" horiz-adv-x="933" 
d="M956 254q10 27 32 27q9 0 16 -4t11 -12t4 -18q0 -9 -3 -18q-11 -32 -22 -58.5t-24 -53.5t-27.5 -47t-30 -36t-34 -24.5t-38.5 -8.5q-104 0 -110 215q-33 -108 -78 -163.5t-111 -55.5q-31 0 -60.5 14t-45.5 41q-75 -61 -165 -61q-75 0 -126 30.5t-51 61.5q0 15 10.5 25.5
t24.5 10.5q11 0 24.5 -8.5t27 -18t37.5 -18t53 -8.5q72 0 133.5 66t80.5 180l-210 1q-18 0 -29 10.5t-11 26.5t11.5 27t28.5 11l217 -1v13q0 116 -44 175.5t-111 59.5q-40 0 -81.5 -25.5t-65.5 -72.5q-10 -20 -31 -20q-6 0 -11.5 2t-10 6t-7.5 10.5t-3 13.5q0 16 5 28
q19 48 75 90.5t124 42.5q108 0 176.5 -80t68.5 -227q0 -180 -86 -295q13 -38 53 -38q22 0 43 20.5t40 59.5t32.5 73t31.5 84t25 69q14 36 47 36q17 0 29 -11t12 -28q0 -77 3 -133.5t7 -87.5t11 -49.5t12.5 -23.5t13.5 -5q43 0 107 180z" />
    <glyph glyph-name="uni042D043C" unicode="&#x42d;&#x43c;" horiz-adv-x="1113" 
d="M1135 254q10 26 33 26q12 0 22 -9.5t10 -23.5q0 -7 -3 -14q-16 -43 -28.5 -73.5t-30 -63t-34 -52t-38 -32t-45.5 -12.5q-40 0 -68 36t-35 121q-17 -44 -43 -70.5t-59 -26.5q-18 0 -34.5 8.5t-32 30.5t-24.5 57q-51 -159 -161 -159q-36 0 -67.5 16.5t-50.5 47.5
q-79 -70 -176 -70q-75 0 -126 30.5t-51 61.5q0 15 10.5 25.5t24.5 10.5q10 0 24 -8.5t27 -18t37.5 -18t53.5 -8.5q72 0 133.5 66t80.5 180l-210 1q-18 0 -29 10.5t-11 26.5t11.5 27t28.5 11l217 -1v13q0 116 -44 175.5t-111 59.5q-40 0 -82 -25.5t-65 -72.5q-10 -20 -31 -20
q-6 0 -11.5 2t-10 6t-7.5 10.5t-3 13.5q0 15 5 28q19 48 75 90.5t124 42.5q108 0 176.5 -80t68.5 -227q0 -172 -79 -285q21 -48 62 -48q90 0 158 311q7 34 41 34q17 0 29.5 -11t12.5 -29q0 -7 -5 -45t-5 -82q0 -48 10 -81t24 -33q40 0 97 235q7 31 37 31q14 0 25 -9t11 -24
q0 -8 -3 -44.5t-3 -61.5q0 -79 12 -133.5t32 -54.5q34 0 104 181z" />
    <glyph glyph-name="uni042D044F" unicode="&#x42d;&#x44f;" horiz-adv-x="998" 
d="M1021 254q11 27 32 27q13 0 22.5 -10t9.5 -24q0 -7 -3 -14q-21 -52 -39.5 -89t-42.5 -72t-51.5 -53t-57.5 -18q-40 0 -64 31t-24 92q0 11 2 40q-15 -5 -31 -6q-66 -164 -181 -164q-89 0 -136 78q-81 -81 -187 -81q-75 0 -126 30.5t-51 61.5q0 15 10.5 25.5t24.5 10.5
q10 0 24 -8.5t27 -18t37.5 -18t53.5 -8.5q19 0 39 5t38.5 16t36.5 26t33.5 35.5t28.5 45t23 55t15 63.5l-210 1q-18 0 -29 10.5t-11 26.5t11.5 27t28.5 11l217 -1v13q0 116 -44 175.5t-111 59.5q-41 0 -82.5 -25.5t-64.5 -72.5q-10 -20 -31 -20q-6 0 -11.5 2t-10.5 6
t-7.5 10.5t-2.5 13.5q0 15 5 28q19 48 75 90.5t124 42.5q53 0 97 -20t77.5 -57.5t52 -96.5t18.5 -133q0 -162 -70 -272v-1q14 -33 38.5 -48t51.5 -15q60 0 104 101q-37 14 -58 44.5t-21 70.5q0 36 16.5 65t46 45.5t66.5 16.5q48 0 83 -29q12 32 42 32q15 0 25 -10.5
t10 -27.5q0 -10 -14.5 -103t-14.5 -162q0 -36 26 -36q40 0 115 180zM762 221q42 0 54 39q3 21 5 37q-2 23 -19 35.5t-40 12.5q-28 0 -47 -18t-19 -44q0 -27 18.5 -44.5t47.5 -17.5z" />
    <glyph glyph-name="uni042E043B" unicode="&#x42e;&#x43b;" horiz-adv-x="1430" 
d="M1452 254q10 27 33 27q12 0 22 -9.5t10 -24.5q0 -7 -3 -14q-18 -46 -30 -75t-29.5 -62t-34 -51.5t-37.5 -31t-44 -12.5q-100 0 -108 209q-33 -106 -78.5 -159.5t-116.5 -53.5q-32 0 -60.5 15t-45.5 43q-73 -65 -161 -65q-124 0 -191.5 82t-67.5 235q0 26 2 50
q-52 -4 -97 -15q-10 -69 -25.5 -127t-39 -107t-57.5 -77t-75 -28q-51 0 -82.5 34.5t-31.5 91.5q0 56 25 106.5t78.5 94t129.5 69.5q7 72 7 135q0 40 -5.5 62t-14.5 29t-24 7q-16 0 -31 -13t-40 -40q-15 -16 -31 -16q-13 0 -22.5 10t-9.5 24q0 15 8 27q55 83 139 83
q58 0 86.5 -43t28.5 -132q0 -55 -4 -111q47 9 99 12q28 130 108 204t179 74q121 0 186.5 -81t65.5 -231q0 -172 -80 -286v-1q6 -19 23 -30.5t36 -11.5q23 0 45 20.5t41.5 60.5t33 72.5t32 84.5t24.5 68q14 37 49 37q16 0 27.5 -11t11.5 -29q0 -299 43 -299q34 0 104 180z
M770 65q39 0 75.5 22.5t66.5 64.5t48 110.5t18 152.5q0 105 -44.5 163t-123.5 58q-63 0 -120 -54t-81 -149q29 -1 80 -7q18 -2 27.5 -12.5t9.5 -23.5q0 -16 -13 -27.5t-36 -8.5q-45 5 -81 6q-2 -24 -2 -50q0 -78 21 -133t60.5 -83.5t94.5 -28.5zM222 78q30 0 58 64.5
t45 167.5q-35 -16 -62.5 -37.5t-45 -44.5t-26.5 -47.5t-9 -49.5t10.5 -39t29.5 -14z" />
    <glyph glyph-name="uni042E043C" unicode="&#x42e;&#x43c;" horiz-adv-x="1603" 
d="M1625 254q10 26 33 26q12 0 22 -9.5t10 -23.5q0 -7 -3 -14q-16 -43 -28.5 -73.5t-30 -63t-34 -52t-38 -32t-45.5 -12.5q-40 0 -68 36t-35 121q-17 -44 -43 -70.5t-59 -26.5q-29 0 -53.5 22.5t-37.5 73.5q-51 -159 -161 -159q-35 0 -67 16t-51 47q-76 -70 -167 -70
q-124 0 -191.5 82t-67.5 235q0 26 2 50q-52 -4 -97 -15q-10 -69 -25.5 -127t-39 -107t-57.5 -77t-75 -28q-51 0 -82.5 34.5t-31.5 91.5q0 56 25 106.5t78.5 94t129.5 69.5q7 72 7 135q0 40 -5.5 62t-14.5 29t-24 7q-16 0 -31 -13t-40 -40q-15 -16 -31 -16q-13 0 -22.5 10
t-9.5 24q0 15 8 27q55 83 139 83q58 0 86.5 -43t28.5 -132q0 -55 -4 -111q47 9 99 12q28 130 108 204t179 74q121 0 186.5 -81t65.5 -231q0 -168 -76 -281q21 -48 62 -48q90 0 158 311q7 34 41 34q17 0 29.5 -11t12.5 -29q0 -7 -5 -45t-5 -82q0 -48 10 -81t24 -33
q40 0 97 235q7 31 37 31q14 0 25 -9t11 -24q0 -8 -3 -44.5t-3 -61.5q0 -79 12 -133.5t32 -54.5q34 0 104 181zM770 65q39 0 75.5 22.5t66.5 64.5t48 110.5t18 152.5q0 105 -44.5 163t-123.5 58q-63 0 -120 -54t-81 -149q29 -1 80 -7q18 -2 27.5 -12.5t9.5 -23.5
q0 -16 -13 -27.5t-36 -8.5q-45 5 -81 6q-2 -24 -2 -50q0 -78 21 -133t60.5 -83.5t94.5 -28.5zM222 78q30 0 58 64.5t45 167.5q-47 -22 -79.5 -52t-48 -62t-15.5 -65q0 -25 10.5 -39t29.5 -14z" />
    <glyph glyph-name="uni042E044F" unicode="&#x42e;&#x44f;" horiz-adv-x="1486" 
d="M1509 254q11 26 32 26q13 0 22.5 -9.5t9.5 -23.5q0 -7 -3 -14q-21 -52 -39.5 -89t-42.5 -72t-51.5 -53t-57.5 -18q-40 0 -64 31t-24 92q0 11 1 40q-14 -5 -30 -6q-66 -164 -181 -164q-88 0 -135 76q-78 -80 -177 -80q-124 0 -191.5 82t-67.5 235q0 26 2 50
q-52 -4 -97 -15q-8 -55 -19 -102.5t-28 -91.5t-38.5 -75.5t-50 -50.5t-61.5 -19q-51 0 -82.5 34.5t-31.5 91.5q0 56 25 106.5t78.5 94t129.5 69.5q7 72 7 135q0 40 -5.5 62t-14.5 29t-24 7q-11 0 -23.5 -8t-22 -17.5t-25.5 -27.5q-15 -16 -31 -16q-13 0 -22.5 10t-9.5 24
q0 15 8 27q55 83 139 83q58 0 86.5 -43t28.5 -132q0 -55 -4 -111q47 9 99 12q28 130 108 204t179 74q121 0 186.5 -81t65.5 -231q0 -159 -69 -269q14 -33 38.5 -48t51.5 -15q60 0 104 101q-37 14 -58 44.5t-21 70.5q0 36 16.5 65t46 45.5t66.5 16.5q48 0 83 -29q12 32 42 32
q15 0 25 -10.5t10 -27.5q0 -10 -14.5 -103t-14.5 -162q0 -36 26 -36q40 0 115 180zM770 65q39 0 75.5 22.5t66.5 64.5t48 110.5t18 152.5q0 105 -44.5 163t-123.5 58q-63 0 -120 -54t-81 -149q29 -1 80 -7q18 -2 27.5 -12.5t9.5 -23.5q0 -16 -13 -27.5t-36 -8.5q-45 5 -81 6
q-2 -25 -2 -50q0 -78 21 -133t60.5 -83.5t94.5 -28.5zM1250 221q42 0 54 39q3 21 5 37q-2 23 -19 35.5t-40 12.5q-28 0 -47 -18t-19 -44q0 -27 18.5 -44.5t47.5 -17.5zM222 78q20 0 39.5 30.5t36 82.5t27.5 119q-69 -33 -106 -81t-37 -98q0 -25 10.5 -39t29.5 -14z" />
    <glyph glyph-name=".notdef" horiz-adv-x="600" 
d="M519 645q0 -2 1 -62t1 -112q0 -131 -7 -233q-11 -154 -11 -190q0 -31 -20 -48.5t-48 -17.5l-295 1q-27 0 -47 17t-20 47q0 48 11 200q10 135 10 292q0 32 -0.5 68.5t-0.5 39.5q0 25 13 43.5t36 18.5l329 -1q23 0 35.5 -18.5t12.5 -44.5zM442 247q12 165 12 267
q0 86 -9 127l-279 1q4 -46 4 -115q0 -127 -12 -289q-7 -98 -7 -189v-1l280 -1v1q1 61 11 199zM369 467q9 0 15 -5.5t6 -14.5q0 -8 -11 -17q-31 -26 -63 -103q22 -48 54 -70q9 -6 9 -17q0 -8 -6 -15t-16 -7q-8 0 -21 13q-22 22 -40 51q-27 -51 -60 -51q-21 0 -34 12
q-9 8 -9 20q0 8 4.5 13.5t12.5 5.5q10 0 15 -5q7 -7 11 -7q8 0 35 59q-22 50 -27 101q-1 9 -1 18q0 18 23 20h2q17 0 19 -22q2 -30 9 -60q31 62 53 74q12 7 20 7z" />
    <glyph glyph-name=".null" horiz-adv-x="0" 
 />
    <glyph glyph-name="nonmarkingreturn" horiz-adv-x="333" 
 />
    <glyph glyph-name="space" unicode=" " horiz-adv-x="250" 
 />
    <glyph glyph-name="exclam" unicode="!" horiz-adv-x="244" 
d="M146 166q-16 0 -28 12t-12 33q0 13 4 97.5t4 168.5q0 111 -6 186q-2 25 9.5 39.5t28.5 14.5q16 0 28.5 -12.5t13.5 -34.5q6 -78 6 -200q0 -144 -8 -261q-1 -21 -13 -32t-27 -11zM145 -10q-23 0 -39 16t-16 39t16 38.5t39 15.5t38.5 -15.5t15.5 -38.5t-15.5 -39t-38.5 -16
z" />
    <glyph glyph-name="quotedbl" unicode="&#x22;" horiz-adv-x="299" 
d="M67 521q-16 0 -26.5 11.5t-10.5 29.5q0 4 1 8l16 139q3 18 14.5 29.5t27.5 11.5q10 0 18.5 -5.5t13.5 -14.5t5 -21q0 -4 -1 -8l-16 -139q-3 -18 -14.5 -29.5t-27.5 -11.5zM207 521q-11 0 -20 6.5t-13.5 18t-2.5 24.5l16 139q2 18 14 29.5t28 11.5q11 0 20 -6.5t13.5 -18
t2.5 -24.5l-16 -139q-2 -18 -14 -29.5t-28 -11.5z" />
    <glyph glyph-name="numbersign" unicode="#" horiz-adv-x="514" 
d="M439 366l-58 1q-11 -37 -25 -84h53q18 0 28.5 -9.5t10.5 -23t-10.5 -23.5t-28.5 -10h-72q-33 -111 -41 -137q-10 -32 -38 -32q-14 0 -24.5 11t-10.5 28q0 8 2 16q12 43 33 114h-69q-6 -20 -14 -48t-14.5 -50.5t-11.5 -38.5q-8 -27 -34 -27q-15 0 -27 10.5t-12 26.5
q0 7 2 13q21 74 33 114h-31q-19 0 -29.5 9.5t-10.5 23t10.5 23.5t27.5 10h52q14 47 26 87q-23 1 -50 1q-17 0 -27 9.5t-10 22.5q0 14 11 24t30 10h66q25 79 39 119q11 29 37 29q15 0 26 -10t11 -27q0 -9 -4 -19q-13 -36 -31 -93q33 -1 70 -2q25 81 40 122q10 27 36 27
q15 0 26 -10t11 -26q0 -9 -3 -18q-13 -35 -33 -96q21 -1 40 -1q12 0 21 -5t13 -12t4 -16q0 -13 -10.5 -23t-29.5 -10zM277 283q13 43 26 85l-69 1q-12 -38 -26 -86h69z" />
    <glyph glyph-name="dollar" unicode="$" horiz-adv-x="440" 
d="M408 173q0 -67 -43.5 -119t-107.5 -65q0 -3 -1 -15q-1 -23 -12 -35.5t-26 -12.5t-26.5 13t-11.5 35l1 16q-69 12 -109.5 62t-40.5 120q0 21 3 38q2 12 9 21.5t15 14t17 4.5q14 0 23.5 -10t9.5 -28q0 -6 -1.5 -17.5t-1.5 -19.5q0 -44 21.5 -72.5t58.5 -38.5q8 147 10 284
q-29 21 -46 35t-36.5 35.5t-29 45.5t-9.5 51q0 39 16 69t42.5 47.5t59.5 23.5v14q0 21 10 32t24 11t24 -11t11 -32q0 -5 1 -17q66 -16 105 -72q10 -14 10 -30q0 -10 -4 -18t-11.5 -12.5t-15.5 -4.5q-20 0 -35 21q-20 27 -48 39q3 -155 3 -184q31 -23 52 -41t44 -45t34.5 -60
t11.5 -72zM151 515q0 -35 45 -73q0 55 -2 138q-43 -14 -43 -65zM261 67q31 11 50 38.5t19 67.5q0 65 -64 121q-1 -122 -5 -227z" />
    <glyph glyph-name="percent" unicode="%" 
d="M286 486q-11 0 -11 -8q0 -10 15.5 -17.5t42.5 -9.5h14h24q19 0 19 -21q0 -15 -8.5 -20t-34.5 -5q-13 0 -33 3t-23 3q-8 0 -8 -6q0 -11 18.5 -20t46.5 -10h20t16 -7.5t6 -17.5q0 -24 -22 -24h-8q30 -30 30 -72q0 -45 -31 -67q31 -23 31 -50q0 -25 -28 -39q28 -21 28 -49
q0 -18 -10 -31t-24 -19t-31 -6q-35 0 -64 21.5t-29 54.5q0 12 4 22q-54 -1 -82.5 12t-28.5 39q0 23 13 35t36 12q65 0 133 -57q40 2 40 13q0 12 -25 28h-8q-33 0 -57.5 20.5t-24.5 55.5q0 28 15 44t36 16q20 0 35 -14.5t15 -37.5t-11 -37q25 5 25 41q0 42 -41 67
q-49 3 -55 3q-10 0 -14.5 7.5t-4.5 16.5q0 23 19 23h3t7 -0.5t9 -0.5q-27 16 -27 39t19 34q-28 15 -28 42q0 41 38 41q7 0 32.5 -3t33.5 -3q9 0 9 8q0 6 -12.5 15t-33.5 17q-14 3 -27 9t-23 15.5t-16 23.5t-6 30q0 33 21 50.5t52 17.5q35 0 61.5 -21.5t26.5 -60.5
q0 -41 -34 -57q34 -22 34 -50q0 -43 -43 -43q-15 0 -37 2.5t-24 2.5zM272 642q0 -13 14 -21.5t31 -8.5q30 0 30 22q0 13 -14.5 22t-30.5 9q-14 0 -22 -6.5t-8 -16.5zM272 246q0 -16 25 -24q5 11 5 24q0 8 -5 12.5t-11 4.5q-4 0 -9 -5t-5 -12zM166 142q0 -10 78 -11
q-42 16 -67 16q-11 0 -11 -5zM322 38q25 0 25 20q0 14 -16.5 23.5t-36.5 9.5q-22 0 -22 -17q0 -16 16 -26t34 -10z" />
    <glyph glyph-name="ampersand" unicode="&#x26;" horiz-adv-x="531" 
d="M496 37q26 -11 26 -36q0 -16 -11.5 -28t-28.5 -12q-13 0 -37 12q-46 27 -87 61q-71 -57 -155 -57q-82 0 -130 47t-48 126q0 52 30.5 104.5t85.5 118.5q-16 68 -16 139t34.5 112.5t91.5 41.5q44 0 65.5 -24.5t21.5 -68.5q0 -34 -18 -73.5t-38 -67.5t-56 -71
q41 -125 134 -221q45 63 49 141q1 20 1 60q0 14 5.5 24t14 15t18.5 5q14 0 23.5 -10t10.5 -28q1 -13 1 -29t-1 -32q-6 -110 -69 -195q39 -31 83 -54zM202 511q0 -30 4 -60q58 74 58 117q0 24 -21 24q-17 0 -29 -19.5t-12 -61.5zM108 156q0 -50 26 -77.5t76 -27.5q49 0 94 32
q-90 91 -136 205q-60 -80 -60 -132z" />
    <glyph glyph-name="quotesingle" unicode="'" horiz-adv-x="158" 
d="M109 562q-3 -18 -14.5 -29.5t-27.5 -11.5q-10 0 -18.5 5.5t-13.5 14.5t-5 21q0 4 1 8l16 139q3 18 14.5 29.5t27.5 11.5q10 0 18.5 -5.5t13.5 -14.5t5 -21q0 -4 -1 -8z" />
    <glyph glyph-name="parenleft" unicode="(" horiz-adv-x="306" 
d="M179 1q-52 50 -80.5 129.5t-28.5 180.5q0 95 23.5 183t65.5 154q21 33 48 33q9 0 16 -4.5t11.5 -12.5t4.5 -18q0 -18 -13 -39q-36 -57 -56 -133t-20 -158q0 -178 84 -257q22 -20 22 -42q0 -15 -10.5 -25t-25.5 -10q-21 0 -41 19z" />
    <glyph glyph-name="parenright" unicode=")" horiz-adv-x="306" 
d="M147 15q-21 -33 -48 -33q-14 0 -23 10t-9 25q0 18 13 39q36 57 56 133t20 158q0 178 -84 257q-22 20 -22 42q0 15 10.5 25t25.5 10q21 0 41 -19q52 -50 80.5 -129.5t28.5 -180.5q0 -95 -23.5 -183t-65.5 -154z" />
    <glyph glyph-name="asterisk" unicode="*" horiz-adv-x="277" 
d="M226 613q17 -11 17 -28q0 -10 -6.5 -17t-16.5 -7t-21 7q-15 9 -32 20q0 -5 0.5 -13t1 -15t0.5 -13q0 -15 -7.5 -23t-17.5 -8q-7 0 -13 3.5t-10.5 10.5t-4.5 17l-3 37q-14 -12 -26 -22t-24 -10q-10 0 -16.5 7t-6.5 17q0 15 14 27q16 13 37 31q-24 14 -43 26q-17 10 -17 27
q0 5 2 9.5t5 8t8 5.5t10 2q10 0 20 -6l30 -19q-2 36 -2 37q0 15 8 23.5t19 8.5q10 0 18 -8t9 -22q1 -15 2 -35q16 14 30 25q11 9 22 9q10 0 17 -7.5t7 -18.5q0 -14 -13 -25q-20 -17 -41 -34z" />
    <glyph glyph-name="plus" unicode="+" horiz-adv-x="424" 
d="M347 372q19 0 30 -10.5t11 -24.5t-11 -24.5t-30 -10.5h-86v-81q0 -19 -10.5 -29.5t-25.5 -10.5t-26 10.5t-11 29.5l1 82h-78q-18 0 -27.5 10.5t-9.5 24.5q0 15 9.5 25t27.5 10h78l1 84q0 18 11 28t26 10q14 0 24.5 -10t10.5 -28v-85h85z" />
    <glyph glyph-name="comma" unicode="," horiz-adv-x="173" 
d="M36 -152q-13 0 -22 7.5t-9 18.5q0 12 13 24q42 37 42 70q0 14 -13 31.5t-13 33.5q0 24 15 38.5t36 14.5q23 0 40.5 -19t17.5 -55q0 -51 -23.5 -93t-59.5 -64q-11 -7 -24 -7z" />
    <glyph glyph-name="hyphen" unicode="-" horiz-adv-x="417" 
d="M310 222q-29 0 -87 1t-87 1q-16 0 -26 10t-10 25t10.5 25t26.5 10q29 0 87 -1t87 -1q16 0 26 -10t10 -25t-10.5 -25t-26.5 -10z" />
    <glyph glyph-name="period" unicode="." horiz-adv-x="169" 
d="M85 -12q-23 0 -39 16t-16 39t16 38.5t39 15.5t38.5 -15.5t15.5 -38.5t-15.5 -39t-38.5 -16z" />
    <glyph glyph-name="slash" unicode="/" 
d="M286 486q-11 0 -11 -8q0 -10 15.5 -17.5t42.5 -9.5h14h24q19 0 19 -21q0 -15 -8.5 -20t-34.5 -5q-13 0 -33 3t-23 3q-8 0 -8 -6q0 -11 18.5 -20t46.5 -10h20t16 -7.5t6 -17.5q0 -24 -22 -24h-8q30 -30 30 -72q0 -45 -31 -67q31 -23 31 -50q0 -25 -28 -39q28 -21 28 -49
q0 -18 -10 -31t-24 -19t-31 -6q-35 0 -64 21.5t-29 54.5q0 12 4 22q-54 -1 -82.5 12t-28.5 39q0 23 13 35t36 12q65 0 133 -57q40 2 40 13q0 12 -25 28h-8q-33 0 -57.5 20.5t-24.5 55.5q0 28 15 44t36 16q20 0 35 -14.5t15 -37.5t-11 -37q25 5 25 41q0 42 -41 67
q-49 3 -55 3q-10 0 -14.5 7.5t-4.5 16.5q0 23 19 23h3t7 -0.5t9 -0.5q-27 16 -27 39t19 34q-28 15 -28 42q0 41 38 41q7 0 32.5 -3t33.5 -3q9 0 9 8q0 6 -12.5 15t-33.5 17q-14 3 -27 9t-23 15.5t-16 23.5t-6 30q0 33 21 50.5t52 17.5q35 0 61.5 -21.5t26.5 -60.5
q0 -41 -34 -57q34 -22 34 -50q0 -43 -43 -43q-15 0 -37 2.5t-24 2.5zM272 642q0 -13 14 -21.5t31 -8.5q30 0 30 22q0 13 -14.5 22t-30.5 9q-14 0 -22 -6.5t-8 -16.5zM272 246q0 -16 25 -24q5 11 5 24q0 8 -5 12.5t-11 4.5q-4 0 -9 -5t-5 -12zM166 142q0 -10 78 -11
q-42 16 -67 16q-11 0 -11 -5zM322 38q25 0 25 20q0 14 -16.5 23.5t-36.5 9.5q-22 0 -22 -17q0 -16 16 -26t34 -10z" />
    <glyph glyph-name="zero" unicode="0" horiz-adv-x="458" 
d="M225 -1q-195 0 -195 308q0 176 54 271.5t155 95.5q90 0 139.5 -81t49.5 -227q0 -177 -52 -272t-151 -95zM225 73q59 0 90.5 75t31.5 218q0 114 -28 174t-80 60q-62 0 -95 -74.5t-33 -218.5q0 -125 27 -179.5t87 -54.5z" />
    <glyph glyph-name="one" unicode="1" horiz-adv-x="310" 
d="M236 635q4 -64 4 -157q0 -251 -21 -439q-2 -19 -13 -29t-26 -10q-18 0 -30.5 14t-9.5 37q21 167 20 439q-36 -45 -74 -72q-14 -10 -29 -10q-16 0 -26.5 10.5t-10.5 25.5q0 21 22 37q85 61 115 162q11 33 40 33q15 0 26.5 -11t12.5 -30z" />
    <glyph glyph-name="two" unicode="2" horiz-adv-x="488" 
d="M119 133q52 34 109.5 151t57.5 210q0 52 -21 78.5t-56 26.5q-36 0 -58.5 -29.5t-22.5 -86.5q0 -18 -8 -30q-12 -17 -30 -17q-16 0 -28 12.5t-12 34.5q0 90 44 140t115 50q73 0 115.5 -44.5t42.5 -133.5q0 -91 -47.5 -200t-122.5 -195q56 -28 98 -28q68 0 88 84
q8 35 38 35q15 0 25.5 -10.5t10.5 -27.5q0 -57 -40.5 -106t-102.5 -49q-45 0 -101.5 18t-61.5 18q-15 0 -39 -14.5t-39 -14.5q-18 0 -30.5 13.5t-12.5 31.5q0 11 3.5 19t12.5 16t17 13.5t26 16t30 18.5z" />
    <glyph glyph-name="three" unicode="3" horiz-adv-x="456" 
d="M285 381q58 -22 89.5 -67.5t31.5 -110.5q0 -89 -58 -146t-146 -57q-76 0 -125 40q-24 20 -40.5 48t-16.5 51q0 18 10.5 29t24.5 11q26 0 39 -31q29 -73 108 -73q54 0 89 36.5t35 95.5q0 57 -34 88t-98 31q-18 0 -28.5 11t-10.5 26q0 28 29 38q46 17 70.5 51t24.5 75
q0 36 -19 56t-51 20q-34 0 -59 -24t-25 -66q0 -6 1 -14.5t2 -15.5t1 -10q0 -17 -10.5 -26.5t-24.5 -9.5q-45 0 -45 79q0 74 49 117.5t113 43.5q39 0 72 -17t54.5 -50.5t21.5 -77.5q0 -86 -74 -151z" />
    <glyph glyph-name="four" unicode="4" horiz-adv-x="486" 
d="M427 246q19 -13 19 -32q0 -15 -10.5 -26t-25.5 -11q-12 0 -23 7q-17 11 -35 20q-6 -84 -6 -159q0 -23 -12 -35.5t-28 -12.5t-28 12.5t-12 35.5q0 81 8 189q-47 13 -94 13q-33 0 -56.5 -6.5t-37.5 -13t-23 -6.5q-19 0 -31 12.5t-12 29.5q0 12 7.5 23.5t21 27t21.5 27.5
q18 28 29 89t11 121q0 16 -1 41.5t-1 35.5q0 22 11.5 34t28.5 12q15 0 27 -12t13 -33q2 -40 2 -59q0 -153 -49 -254q17 4 48 4q41 0 92 -12q12 121 29 219q2 14 8.5 23.5t15 14t17.5 4.5q16 0 27.5 -12t11.5 -33q0 -9 -3 -27t-7.5 -45.5t-6.5 -48.5q0 -2 -5.5 -48.5
t-7.5 -72.5q38 -16 67 -36z" />
    <glyph glyph-name="five" unicode="5" horiz-adv-x="481" 
d="M211 0q-77 0 -123.5 51.5t-46.5 117.5q0 20 11.5 32t26.5 12q33 0 39 -39q15 -100 96 -100q62 0 99.5 51t37.5 134q0 73 -32 110.5t-88 37.5q-34 0 -74 -14.5t-49 -14.5q-31 0 -31 27q0 5 4 19q23 71 30 186q3 49 54 49q53 0 77 1t53 8t53 22q12 8 26 8q15 0 25 -10.5
t10 -25.5q0 -23 -22 -38q-59 -41 -188 -41q-10 0 -11 -10q-1 -5 -2.5 -23.5t-5 -39t-8.5 -42.5q36 11 72 11q83 0 135 -58.5t52 -158.5q0 -117 -61 -189.5t-159 -72.5z" />
    <glyph glyph-name="six" unicode="6" horiz-adv-x="534" 
d="M301 426q52 0 91 -23.5t60 -66.5t21 -101q0 -97 -59.5 -165.5t-144.5 -68.5q-77 0 -123 50.5t-59 147.5q-14 -18 -33 -18q-14 0 -24 10.5t-10 26.5q0 19 12 35q25 34 51 61q7 168 71.5 264.5t167.5 96.5q48 0 85.5 -23t59.5 -66q7 -14 7 -27q0 -17 -10 -27t-24 -10
q-23 0 -39 26q-33 53 -79 53q-54 0 -95.5 -57.5t-57.5 -157.5q64 40 132 40zM270 75q53 0 88 47t35 118q0 35 -11 60t-32 38.5t-50 13.5q-75 0 -139 -59v-16q0 -202 109 -202z" />
    <glyph glyph-name="seven" unicode="7" horiz-adv-x="452" 
d="M390 654q19 0 30.5 -13t11.5 -30q0 -15 -10 -27.5t-29 -17.5q-13 -4 -18.5 -7.5t-10.5 -12.5q-54 -93 -91 -240q34 -3 60 -3q20 0 31 -10.5t11 -24.5q0 -15 -11 -25.5t-31 -10.5q-33 0 -76 4q-20 -98 -26 -193q-1 -21 -13 -33t-27 -12q-17 0 -28.5 12t-11.5 32
q0 78 25 201q-26 2 -50 2q-21 0 -33 10.5t-12 25.5q0 14 12 24.5t33 10.5q32 0 66 -3q36 146 92 252q-26 3 -77.5 17t-65.5 14t-21.5 -6.5t-17.5 -27.5q-11 -24 -35 -24q-15 0 -26 11t-11 28q0 29 30 62t71 33q29 0 91 -17.5t95 -17.5q19 0 39 8.5t34 8.5z" />
    <glyph glyph-name="eight" unicode="8" horiz-adv-x="438" 
d="M271 377q29 -23 47.5 -41t39 -43t30.5 -53.5t10 -60.5q0 -78 -51 -129t-130 -51q-81 0 -134 51.5t-53 129.5q0 61 33 107t91 92q-41 37 -63.5 74t-22.5 83q0 67 44.5 105t104.5 38t104 -37.5t44 -104.5q0 -49 -24.5 -86.5t-69.5 -73.5zM148 534q0 -50 65 -108
q35 28 53.5 53.5t18.5 54.5q0 33 -20.5 51.5t-48.5 18.5q-13 0 -25 -4.5t-21.5 -13t-15.5 -22t-6 -30.5zM217 73q46 0 73.5 29.5t27.5 77.5q0 29 -16.5 57.5t-36 47t-54.5 46.5q-49 -37 -75 -71t-26 -79q0 -31 13.5 -55.5t38 -38.5t55.5 -14z" />
    <glyph glyph-name="nine" unicode="9" horiz-adv-x="462" 
d="M231 674q59 0 101.5 -28.5t65 -83t22.5 -130.5q0 -156 -51.5 -262t-149.5 -150q-53 -24 -81 -24q-17 0 -27.5 10.5t-10.5 24.5t9.5 25.5t28.5 16.5q157 40 192 234q-55 -53 -119 -53q-77 0 -125 55t-48 145q0 96 54 158t139 62zM219 328q43 0 79 32t43 85
q-1 73 -30.5 114t-81.5 41q-50 0 -80.5 -39.5t-30.5 -106.5q0 -61 29.5 -93.5t71.5 -32.5z" />
    <glyph glyph-name="colon" unicode=":" horiz-adv-x="169" 
d="M85 251q-23 0 -39 16t-16 39t16 38.5t39 15.5t38.5 -16t15.5 -38q0 -23 -15.5 -39t-38.5 -16zM85 -19q-23 0 -39 16t-16 39t16 38.5t39 15.5t38.5 -16t15.5 -38q0 -23 -15.5 -39t-38.5 -16z" />
    <glyph glyph-name="semicolon" unicode=";" horiz-adv-x="173" 
d="M88 251q-23 0 -39 16t-16 39t16 38.5t39 15.5q22 0 38 -16t16 -38q0 -23 -15.5 -39t-38.5 -16zM36 -152q-13 0 -22 7.5t-9 18.5q0 12 13 24q42 37 42 70q0 14 -13 31.5t-13 33.5q0 24 15 38.5t36 14.5q23 0 40.5 -19t17.5 -55q0 -51 -23.5 -93t-59.5 -64q-11 -7 -24 -7z
" />
    <glyph glyph-name="less" unicode="&#x3c;" 
d="M286 486q-11 0 -11 -8q0 -10 15.5 -17.5t42.5 -9.5h14h24q19 0 19 -21q0 -15 -8.5 -20t-34.5 -5q-13 0 -33 3t-23 3q-8 0 -8 -6q0 -11 18.5 -20t46.5 -10h20t16 -7.5t6 -17.5q0 -24 -22 -24h-8q30 -30 30 -72q0 -45 -31 -67q31 -23 31 -50q0 -25 -28 -39q28 -21 28 -49
q0 -18 -10 -31t-24 -19t-31 -6q-35 0 -64 21.5t-29 54.5q0 12 4 22q-54 -1 -82.5 12t-28.5 39q0 23 13 35t36 12q65 0 133 -57q40 2 40 13q0 12 -25 28h-8q-33 0 -57.5 20.5t-24.5 55.5q0 28 15 44t36 16q20 0 35 -14.5t15 -37.5t-11 -37q25 5 25 41q0 42 -41 67
q-49 3 -55 3q-10 0 -14.5 7.5t-4.5 16.5q0 23 19 23h3t7 -0.5t9 -0.5q-27 16 -27 39t19 34q-28 15 -28 42q0 41 38 41q7 0 32.5 -3t33.5 -3q9 0 9 8q0 6 -12.5 15t-33.5 17q-14 3 -27 9t-23 15.5t-16 23.5t-6 30q0 33 21 50.5t52 17.5q35 0 61.5 -21.5t26.5 -60.5
q0 -41 -34 -57q34 -22 34 -50q0 -43 -43 -43q-15 0 -37 2.5t-24 2.5zM272 642q0 -13 14 -21.5t31 -8.5q30 0 30 22q0 13 -14.5 22t-30.5 9q-14 0 -22 -6.5t-8 -16.5zM272 246q0 -16 25 -24q5 11 5 24q0 8 -5 12.5t-11 4.5q-4 0 -9 -5t-5 -12zM166 142q0 -10 78 -11
q-42 16 -67 16q-11 0 -11 -5zM322 38q25 0 25 20q0 14 -16.5 23.5t-36.5 9.5q-22 0 -22 -17q0 -16 16 -26t34 -10z" />
    <glyph glyph-name="equal" unicode="=" horiz-adv-x="520" 
d="M162 357q-18 0 -27.5 10.5t-9.5 24.5q0 15 9.5 25t27.5 10l240 -1q19 0 30 -10.5t11 -24.5t-11 -24.5t-30 -10.5zM162 237q-18 0 -27.5 10.5t-9.5 24.5q0 15 9.5 25t27.5 10l240 -1q19 0 30 -10.5t11 -24.5t-11 -24.5t-30 -10.5z" />
    <glyph glyph-name="greater" unicode="&#x3e;" 
d="M286 486q-11 0 -11 -8q0 -10 15.5 -17.5t42.5 -9.5h14h24q19 0 19 -21q0 -15 -8.5 -20t-34.5 -5q-13 0 -33 3t-23 3q-8 0 -8 -6q0 -11 18.5 -20t46.5 -10h20t16 -7.5t6 -17.5q0 -24 -22 -24h-8q30 -30 30 -72q0 -45 -31 -67q31 -23 31 -50q0 -25 -28 -39q28 -21 28 -49
q0 -18 -10 -31t-24 -19t-31 -6q-35 0 -64 21.5t-29 54.5q0 12 4 22q-54 -1 -82.5 12t-28.5 39q0 23 13 35t36 12q65 0 133 -57q40 2 40 13q0 12 -25 28h-8q-33 0 -57.5 20.5t-24.5 55.5q0 28 15 44t36 16q20 0 35 -14.5t15 -37.5t-11 -37q25 5 25 41q0 42 -41 67
q-49 3 -55 3q-10 0 -14.5 7.5t-4.5 16.5q0 23 19 23h3t7 -0.5t9 -0.5q-27 16 -27 39t19 34q-28 15 -28 42q0 41 38 41q7 0 32.5 -3t33.5 -3q9 0 9 8q0 6 -12.5 15t-33.5 17q-14 3 -27 9t-23 15.5t-16 23.5t-6 30q0 33 21 50.5t52 17.5q35 0 61.5 -21.5t26.5 -60.5
q0 -41 -34 -57q34 -22 34 -50q0 -43 -43 -43q-15 0 -37 2.5t-24 2.5zM272 642q0 -13 14 -21.5t31 -8.5q30 0 30 22q0 13 -14.5 22t-30.5 9q-14 0 -22 -6.5t-8 -16.5zM272 246q0 -16 25 -24q5 11 5 24q0 8 -5 12.5t-11 4.5q-4 0 -9 -5t-5 -12zM166 142q0 -10 78 -11
q-42 16 -67 16q-11 0 -11 -5zM322 38q25 0 25 20q0 14 -16.5 23.5t-36.5 9.5q-22 0 -22 -17q0 -16 16 -26t34 -10z" />
    <glyph glyph-name="question" unicode="?" horiz-adv-x="400" 
d="M165 176q-16 0 -27.5 12t-11.5 34q0 53 16 95t30 59t40 42l7 7q62 59 62 122q0 42 -26 65t-62 23q-35 0 -60 -21t-25 -59q0 -6 2 -21t2 -16q0 -18 -11 -28t-26 -10q-47 0 -47 75q0 74 48.5 114.5t116.5 40.5t118.5 -42t50.5 -115q0 -58 -21 -95t-67 -85q-1 -1 -10 -10.5
t-11 -11.5t-9.5 -11t-9.5 -12.5t-8 -12.5t-7.5 -14.5t-5.5 -15.5t-5.5 -19t-2.5 -20.5t-1 -23.5q0 -22 -11.5 -34t-27.5 -12zM165 -10q-23 0 -39 16t-16 39t16 38.5t39 15.5t38.5 -15.5t15.5 -38.5t-15.5 -39t-38.5 -16z" />
    <glyph glyph-name="at" unicode="@" horiz-adv-x="743" 
d="M429 545q127 0 205.5 -73t78.5 -193q0 -126 -50.5 -197t-113.5 -71q-62 0 -87 61q-51 -65 -120 -65q-61 0 -93 42.5t-32 106.5q0 53 20.5 103t62.5 84t96 34q35 0 66 -17q11 19 34 19q16 0 28 -10.5t12 -29.5q0 -3 -2.5 -38.5t-5 -82.5t-2.5 -77q0 -57 28 -57
q35 0 57.5 55t22.5 140q0 89 -55 140.5t-150 51.5q-140 0 -229.5 -86.5t-89.5 -222.5q0 -118 58 -182t165 -64q54 0 103 13t53 13q16 0 26 -10.5t10 -25.5q0 -25 -27 -36q-75 -28 -165 -28q-137 0 -220 83.5t-83 222.5q0 177 111 287t288 110zM348 81q33 0 64.5 38.5
t38.5 99.5q2 31 3 67q-18 21 -54 21q-45 0 -74 -48t-29 -102q0 -22 5.5 -38.5t17 -27t28.5 -10.5z" />
    <glyph glyph-name="A" unicode="A" horiz-adv-x="797" 
d="M819 254q10 26 34 26q13 0 22 -8.5t9 -22.5q0 -9 -4 -19q-48 -123 -94 -180t-104 -57q-54 0 -87.5 48t-33.5 138q0 44 2 88q-52 -7 -120 -11q-131 -264 -269 -264q-53 0 -88 25.5t-35 56.5q0 16 10 26.5t24 10.5t41 -21t48 -21q75 0 175 184q-32 -1 -60 -1
q-24 0 -37 11.5t-13 27.5q0 15 12.5 26t34.5 11q64 0 102 1q8 18 17 37q91 204 135.5 274t102.5 70q23 0 36 -14t13 -40q0 -11 -23.5 -175.5t-23.5 -287.5q0 -125 45 -125q28 0 66.5 61.5t62.5 124.5zM479 332q48 4 89 10q6 70 18 136t17 92t1 26t-11 -11.5t-21 -42
t-31.5 -70t-47.5 -108.5q-7 -17 -14 -32z" />
    <glyph glyph-name="B" unicode="B" horiz-adv-x="641" 
d="M535 375q62 -19 97.5 -66.5t35.5 -113.5q0 -86 -59.5 -145.5t-147.5 -59.5q-57 0 -155 55q-46 -54 -122 -54q-52 0 -82.5 27t-30.5 66q0 36 30 62t78 26q36 0 90 -25q30 83 30 235q0 33 -4.5 86.5t-4.5 61.5q0 19 12 31.5t29 12.5q14 0 25 -10.5t15 -29.5q12 -60 12 -154
q0 -176 -39 -272q83 -43 129 -43q48 0 79.5 37t31.5 94t-35 89.5t-109 44.5q-39 6 -39 36q0 14 9 24t25 13q100 19 100 112q0 52 -41 87.5t-103 35.5q-95 0 -145.5 -46.5t-50.5 -114.5q0 -23 17.5 -56t17.5 -42q0 -16 -11 -27t-28 -11q-33 0 -56.5 46.5t-23.5 89.5
q0 99 75.5 167.5t204.5 68.5q100 0 164 -57t64 -139q0 -49 -23 -85.5t-61 -56.5zM179 63q30 0 53 22q-33 15 -53 15q-30 0 -30 -18q0 -19 30 -19z" />
    <glyph glyph-name="C" unicode="C" horiz-adv-x="553" 
d="M349 -11q-108 0 -182 77.5t-74 202.5q0 96 30 180t77.5 139t105 87t114.5 32q60 0 98 -35t38 -91q0 -53 -23 -101q-16 -32 -44 -32q-15 0 -26 10.5t-11 25.5q0 10 10 38.5t10 58.5q0 51 -52 51q-39 0 -81 -26.5t-78.5 -72t-60 -116t-23.5 -148.5q0 -91 51.5 -147.5
t130.5 -56.5q66 0 122.5 46.5t93.5 142.5q11 28 33 28q13 0 22.5 -10t9.5 -24q0 -8 -3 -15q-90 -244 -288 -244z" />
    <glyph glyph-name="D" unicode="D" horiz-adv-x="776" 
d="M431 711q163 0 255 -93t92 -256q0 -87 -22.5 -157.5t-61 -115.5t-88.5 -69.5t-106 -24.5q-71 0 -177 60q-53 -60 -132 -60q-52 0 -80.5 27t-28.5 65q0 39 29 67.5t79 28.5q45 0 103 -29q35 82 39 222q-11 -1 -22 -1q-76 0 -120.5 38t-44.5 103q0 86 80 140.5t206 54.5z
M495 70q84 0 141.5 76.5t57.5 215.5q0 134 -67 204t-196 70q-94 0 -148 -31.5t-54 -87.5q0 -33 21 -50t60 -17q11 0 23 1q0 10 -1 32t-1 32q0 14 4.5 24t13.5 16t20 6q17 0 29 -11t14 -28q3 -19 4 -49q38 14 49 14q16 0 26.5 -10t10.5 -24q0 -25 -27 -39q-26 -14 -58 -23
q-5 -173 -54 -276q81 -45 132 -45zM190 67q36 0 64 27q-40 20 -64 20q-14 0 -22 -7t-8 -16q0 -10 8 -17t22 -7z" />
    <glyph glyph-name="E" unicode="E" horiz-adv-x="527" 
d="M549 254q10 27 33 27q13 0 22.5 -9.5t9.5 -23.5q0 -8 -3 -15q-45 -124 -110.5 -184t-160.5 -60q-96 0 -157.5 57.5t-61.5 147.5q0 67 34 119t96 80q-78 59 -78 150q0 72 50.5 120.5t127.5 48.5q66 0 113.5 -40t47.5 -102q0 -39 -13.5 -57.5t-32.5 -18.5q-14 0 -24.5 9.5
t-10.5 22.5q0 8 1 19.5t1 15.5q0 33 -23.5 54.5t-59.5 21.5q-21 0 -38 -6.5t-29.5 -19t-19 -30.5t-6.5 -40q0 -37 14 -63t41 -39.5t66 -13.5q21 0 34 -11.5t13 -28.5q0 -5 -1.5 -10t-4.5 -9.5t-7 -8t-9.5 -5.5t-11.5 -3.5t-13 -1.5q-52 0 -91 -18.5t-60.5 -53t-21.5 -79.5
q0 -62 38.5 -96.5t106.5 -34.5q126 0 199 189z" />
    <glyph glyph-name="F" unicode="F" horiz-adv-x="572" 
d="M552 616q-48 0 -116 7q-5 -67 -16 -226h16q36 0 93 -11q17 -4 26.5 -13.5t9.5 -21.5q0 -15 -11 -25t-31 -10q-7 0 -38 3.5t-47 3.5q-12 0 -23 -1l-2 -28q-11 -155 -55 -225t-130 -70q-55 0 -95.5 34t-40.5 79q0 21 11.5 34t26.5 13q10 0 17 -4t11.5 -11.5t8.5 -20.5
q4 -16 13.5 -27t21.5 -16.5t26 -5.5q45 0 68 53t33 173q0 2 1 7q-56 -15 -66 -15q-35 0 -35 29q0 21 27 37q28 16 79 27q14 191 17 246q-49 5 -77 5q-47 0 -73 -19t-26 -53q0 -14 3 -24.5t10.5 -18.5t12.5 -12.5t15.5 -11.5l13.5 -9q19 -14 19 -32q0 -31 -42 -31
q-43 0 -79.5 41t-36.5 97q0 67 47.5 107.5t133.5 40.5q45 0 135 -10t131 -10q29 0 59 8t39 8q16 0 26 -9t10 -23q0 -26 -37.5 -42.5t-83.5 -16.5z" />
    <glyph glyph-name="G" unicode="G" horiz-adv-x="637" 
d="M620 399q9 0 16.5 -4.5t11.5 -12t4 -16.5q0 -17 -13 -35q-20 -27 -61 -50q8 -31 8 -72q0 -98 -61 -159.5t-158 -61.5q-72 0 -129 34.5t-88.5 96.5t-31.5 140q0 100 29.5 186.5t77 142.5t105 87.5t115.5 31.5q60 0 98 -35.5t38 -90.5q0 -49 -20 -92q-19 -41 -46 -41
q-16 0 -27 11t-11 28q0 10 8 34q12 34 12 60q0 51 -52 51q-40 0 -82 -26t-78.5 -72t-59.5 -118.5t-23 -156.5q0 -89 46 -142.5t121 -53.5q65 0 99.5 40.5t34.5 116.5q0 17 -3 32q-21 -4 -40 -4q-63 0 -63 39q0 34 43 34q54 0 84 12.5t70 52.5q13 13 26 13z" />
    <glyph glyph-name="H" unicode="H" horiz-adv-x="770" 
d="M792 254q11 27 33 27q13 0 22.5 -9.5t9.5 -23.5q0 -7 -3 -15q-20 -51 -33.5 -81t-31 -62.5t-34 -49.5t-37.5 -28t-46 -11q-51 0 -81 42t-30 127q0 54 12 190q-89 0 -162 -19q-9 -70 -23 -129t-36.5 -109.5t-55.5 -79.5t-74 -29q-51 0 -82.5 34.5t-31.5 90.5
q0 85 57.5 160t166.5 116q6 74 6 139q0 57 -11 77t-33 20q-16 0 -31 -11.5t-24.5 -25.5t-21.5 -25.5t-24 -11.5q-13 0 -21.5 8.5t-8.5 21.5q0 25 20.5 52.5t55 47t69.5 19.5q58 0 86 -43t28 -131q0 -56 -4 -112q70 14 150 14h11q20 217 22 241q1 9 4.5 17t9.5 12.5t13 7
t15 2.5q17 0 29.5 -11t12.5 -30q0 -7 -3 -39.5t-9 -96.5t-10 -108q19 -1 38 -4q10 -1 17.5 -5t12 -8.5t7 -10.5t2.5 -12q0 -9 -5 -17t-15 -13.5t-23 -5.5q-6 0 -41 3q-11 -132 -11 -183q0 -57 8 -77t25 -20q46 0 114 178zM226 69q31 0 56 66.5t40 173.5
q-67 -34 -101.5 -83.5t-34.5 -101.5q0 -26 10.5 -40.5t29.5 -14.5z" />
    <glyph glyph-name="I" unicode="I" horiz-adv-x="459" 
d="M359 632q-32 4 -71 4q-47 0 -73 -17.5t-26 -49.5q0 -35 45 -67q26 -20 26 -36q0 -17 -11 -28t-28 -11q-44 0 -80 45t-36 96q0 63 49.5 103t131.5 40q65 0 121 -8q34 -5 35 -35q2 -40 2 -110q0 -201 -21.5 -324t-65 -178.5t-113.5 -55.5q-39 0 -72.5 20.5t-33.5 47.5
q0 16 9.5 26.5t22.5 10.5q12 0 34.5 -15t41.5 -15q54 0 84 121t30 368q0 33 -1 68z" />
    <glyph glyph-name="J" unicode="J" horiz-adv-x="527" 
d="M552 679q9 0 16.5 -4.5t11 -11.5t3.5 -16q0 -19 -18.5 -33t-55.5 -14q-8 0 -17 1q3 -44 3 -104q0 -121 -11 -211.5t-30 -146t-47 -89.5t-58.5 -46.5t-68.5 -12.5q-75 0 -122.5 53t-47.5 145q0 54 7 105q2 13 8.5 23t15.5 14.5t19 4.5q16 0 27.5 -11.5t11.5 -32.5
q0 -1 -3.5 -37t-3.5 -66q0 -60 25.5 -92t65.5 -32q20 0 37 9.5t34.5 37.5t29.5 74.5t19.5 125.5t7.5 185q0 79 -5 130q-42 15 -77 15q-91 0 -91 -74q0 -47 -34 -47q-20 0 -32.5 15.5t-12.5 43.5q0 57 46.5 97t119.5 40q35 0 104.5 -21t81.5 -21q11 0 22.5 2t18.5 2z" />
    <glyph glyph-name="K" unicode="K" horiz-adv-x="722" 
d="M744 254q10 26 34 26q13 0 22 -8.5t9 -23.5q0 -7 -3 -15q-39 -118 -84.5 -176t-101.5 -58q-18 0 -34 4t-29 13.5t-23 19t-18.5 26t-14.5 28.5t-12.5 33t-9.5 33t-9 34q-5 21 -8.5 32.5t-8.5 28.5t-10 27.5t-12 21.5t-15 17.5t-18 9.5q-22 -6 -46 -8q-22 -145 -63 -301
q-8 -29 -36 -29q-20 0 -32 11.5t-12 31.5q0 8 9 47t24 108.5t26 134.5q-39 12 -39 40q0 14 12.5 23.5t33.5 9.5h3q12 99 12 185q0 24 -13.5 38t-34.5 14q-18 0 -36 -10.5t-29.5 -23.5t-26 -23.5t-26.5 -10.5q-13 0 -21.5 9t-8.5 23q0 35 50 73t99 38q59 0 95 -36.5t36 -98.5
q0 -81 -12 -179q79 13 143 88t84 184q4 23 17.5 35t29.5 12q17 0 28 -14t8 -38q-2 -21 -4 -30q-14 -74 -61 -149t-124 -119q43 -42 70 -158q15 -66 30 -98t40 -32q27 0 62 57.5t59 122.5z" />
    <glyph glyph-name="L" unicode="L" horiz-adv-x="552" 
d="M574 254q10 26 34 26q13 0 22 -8.5t9 -22.5q0 -8 -3 -16q-47 -121 -91 -176.5t-102 -55.5q-37 0 -104 16t-91 16q-56 0 -120 -29q-16 -7 -26 -7q-12 0 -22 5.5t-15.5 15t-5.5 20.5q0 23 18 38q70 58 97 135t45 251q1 6 1 13q-58 22 -94 67t-36 95q0 18 10 29t26 11
q27 0 37 -34q19 -67 71 -95q41 161 161 161q44 0 72.5 -27.5t28.5 -68.5q0 -42 -23 -77t-66 -56t-98 -21h-5q-1 -3 -1 -5q-16 -147 -35 -222t-58 -129q28 5 48 5q37 0 91.5 -16t89.5 -16q25 0 53.5 32.5t47 68.5t34.5 77zM387 634q-49 0 -72 -103q46 2 73 24.5t27 50.5
q0 13 -7.5 20.5t-20.5 7.5z" />
    <glyph glyph-name="M" unicode="M" horiz-adv-x="1170" 
d="M1192 247q10 27 34 27q13 0 22 -8.5t9 -22.5q0 -8 -3 -17q-45 -120 -86.5 -176t-96.5 -56q-51 0 -79.5 35t-28.5 104q0 29 7.5 139t7.5 147q0 55 -14.5 79t-47.5 24q-28 0 -56.5 -17t-58 -53t-56 -102t-44.5 -155q-9 -59 -20 -117q-4 -19 -16 -29t-27 -10q-18 0 -29 11.5
t-11 31.5q0 3 5 35q39 244 39 355q0 93 -18.5 127t-55.5 34q-79 0 -146 -129.5t-91 -334.5q-10 -94 -15 -136q-3 -22 -15 -32.5t-28 -10.5q-17 0 -28.5 12t-11.5 34q0 20 11 111t11 152q0 105 -8 176.5t-22.5 106t-30 47.5t-35.5 13q-33 0 -60 -46q-14 -24 -36 -24
q-13 0 -22.5 10.5t-9.5 26.5q0 20 14 41q44 67 119 67q34 0 60 -12t48 -41.5t35 -85t17 -137.5q90 267 244 267q79 0 118 -55t39 -189v-12q84 145 197 145q70 0 105.5 -45t35.5 -145q0 -27 -8 -141t-8 -140q0 -57 30 -57q27 0 58.5 55t56.5 123z" />
    <glyph glyph-name="N" unicode="N" horiz-adv-x="770" 
d="M792 254q10 27 32 27q13 0 23 -10t10 -24q0 -7 -3 -14q-23 -59 -43 -100t-41.5 -72.5t-45 -46.5t-49.5 -15q-32 0 -56 15.5t-38 50t-14 85.5q0 27 8 152.5t8 157.5q0 36 -2 63t-7 46.5t-11 32t-15.5 19.5t-19.5 10t-24 3q-27 0 -56.5 -21t-57 -60.5t-51 -92.5t-41 -122.5
t-24.5 -144.5q-10 -98 -17 -154q-3 -23 -16 -35t-30 -12q-16 0 -28 11.5t-12 31.5q0 5 1 11q8 45 16 127.5t8 140.5q0 69 -3.5 122.5t-10.5 89.5t-15.5 60t-20 37t-22.5 18t-25 5q-31 0 -60 -40q-19 -26 -41 -26q-12 0 -20.5 9.5t-8.5 24.5q0 17 13 36q49 71 125 71
q75 0 115.5 -61.5t51.5 -189.5q86 239 231 239q84 0 123 -57t39 -181q0 -33 -8 -168.5t-8 -157.5q0 -71 29 -71q23 0 54.5 56.5t57.5 123.5z" />
    <glyph glyph-name="O" unicode="O" horiz-adv-x="733" 
d="M755 254q10 27 35 27q12 0 21 -8.5t9 -22.5q0 -8 -3 -17q-13 -34 -31.5 -61t-40.5 -44.5t-48 -29t-51.5 -16t-53.5 -4.5q-15 0 -30 2q-80 -90 -186 -90q-117 0 -192.5 85.5t-75.5 236.5q0 124 54 232t131 137q18 7 34 7q22 0 33 -15q46 37 100 37q90 0 149.5 -75
t59.5 -215q0 -160 -59 -271q106 4 145 105zM464 635q-50 0 -87 -53t-37 -153q0 -94 52.5 -167t132.5 -100q60 98 60 261q0 105 -35.5 158.5t-85.5 53.5zM377 65q51 0 96 37q-92 38 -151 126t-59 198q0 88 29 155q-45 -41 -72.5 -115t-27.5 -156q0 -118 51.5 -181.5
t133.5 -63.5z" />
    <glyph glyph-name="P" unicode="P" horiz-adv-x="639" 
d="M381 709q123 0 198.5 -71.5t75.5 -186.5q0 -114 -71 -186t-182 -72q-49 0 -92 12q-22 -134 -22 -171q0 -21 -12.5 -32.5t-30.5 -11.5q-17 0 -29 11t-12 32q0 42 22 173.5t22 217.5q0 17 -7 55t-7 42q0 18 11.5 29.5t27.5 11.5q59 0 59 -138q0 -67 -11 -146q37 -12 77 -12
q77 0 125 52t48 133q0 83 -51.5 133t-138.5 50q-108 0 -165 -49t-57 -130q0 -26 -12 -40.5t-29 -14.5q-16 0 -28 14.5t-12 40.5q0 110 81.5 182t221.5 72z" />
    <glyph glyph-name="Q" unicode="Q" horiz-adv-x="711" 
d="M732 254q12 30 35 30q13 0 21.5 -9t8.5 -24q0 -9 -3 -18q-9 -23 -20.5 -49.5t-32 -62.5t-42.5 -64t-50.5 -48t-56.5 -20q-46 0 -119 56q-76 -55 -152 -55q-43 0 -74 16.5t-45 41t-14 53.5q0 44 32.5 75.5t90.5 31.5q65 0 155 -64q47 52 76 125.5t29 161.5
q0 97 -43.5 151.5t-118.5 54.5q-60 0 -105 -40t-66.5 -98.5t-21.5 -123.5q0 -26 7.5 -66.5t7.5 -42.5q0 -20 -12 -31.5t-29 -11.5q-27 0 -38 30q-20 59 -20 131q0 61 19 119t53.5 105t88.5 75.5t119 28.5q108 0 175.5 -76t67.5 -210q0 -98 -34 -183t-91 -147q44 -32 64 -32
q31 0 72.5 64t65.5 126zM267 102q0 -15 14.5 -26t39.5 -11q42 0 88 30q-55 40 -95 40q-15 0 -26 -5t-16 -12t-5 -16z" />
    <glyph glyph-name="R" unicode="R" horiz-adv-x="690" 
d="M712 254q10 27 35 27q8 0 15 -3.5t11 -11t4 -16.5q0 -8 -3 -17q-46 -124 -85.5 -180.5t-90.5 -56.5q-25 0 -47.5 10.5t-38.5 26t-32.5 40.5t-26 44.5t-22.5 48.5q-3 7 -8.5 20t-8.5 19.5t-8 17.5t-8.5 17t-8 15t-8.5 13.5t-8.5 10t-9 8.5t-9.5 5h-37q-4 -31 -18 -108
q-17 -100 -17 -147q0 -21 -10.5 -32t-28.5 -11q-41 0 -44 36q-4 45 15 140q16 80 22 130q-26 9 -26 35q0 13 8.5 23t23.5 12q2 27 2 54q0 21 -7.5 58t-7.5 41q0 20 11.5 32t27.5 12q19 0 31.5 -13t17.5 -36.5t7 -44.5t2 -49q0 -29 -2 -58q27 -1 54 -1q74 0 118 38t44 95
q0 43 -18.5 73.5t-54.5 46.5t-87 16q-92 0 -153.5 -49t-61.5 -120q0 -27 -12.5 -42.5t-29.5 -15.5t-29.5 15t-12.5 43q0 98 84 171t215 73q112 0 178 -56.5t66 -151.5q0 -70 -47 -125.5t-125 -75.5q17 -22 60 -109q15 -32 22 -45t19.5 -35t23 -31t20.5 -9q45 0 115 183z" />
    <glyph glyph-name="S" unicode="S" horiz-adv-x="431" 
d="M235 -11q-94 0 -154 54t-60 137q0 44 19 98q13 36 45 36q16 0 27 -10.5t11 -28.5q0 -14 -9 -43t-9 -50q0 -51 37 -84.5t96 -33.5q61 0 99.5 35.5t38.5 88.5q0 11 -2 21t-4.5 18t-8.5 17.5t-10 15.5t-13 15t-14.5 14t-16.5 13.5t-17 13t-19 14t-19 13.5q-24 17 -38 28
t-35 29t-33.5 34t-25 36.5t-18.5 43.5t-6 49q0 61 47 104t118 43q67 0 114 -37.5t47 -100.5q0 -29 -10.5 -49t-32.5 -20q-15 0 -26.5 10t-11.5 25q0 4 1 14t1 16q0 27 -24 47t-59 20q-34 0 -57 -20.5t-23 -50.5q0 -31 20 -60.5t40.5 -46t62.5 -47.5q79 -58 104 -85
q53 -59 53 -131q0 -87 -64 -146t-161 -59z" />
    <glyph glyph-name="T" unicode="T" horiz-adv-x="568" 
d="M666 742q14 0 24 -9t10 -23q0 -31 -19 -58t-51 -42.5t-67 -15.5q-46 0 -117 12q-5 -63 -12.5 -172.5t-9.5 -139.5q-11 -152 -55 -223t-126 -71q-94 0 -136 82q-8 16 -8 33q0 9 3 16.5t7.5 12.5t11 8t13.5 3q24 0 41 -28q11 -17 18 -26.5t20 -17.5t29 -8q85 0 98 225
q2 31 23 322q-73 14 -105 14q-38 0 -61 -18t-23 -46q0 -42 45 -67q27 -16 27 -39q0 -15 -12 -25.5t-30 -10.5q-16 0 -31 8q-39 21 -61 56.5t-22 76.5q0 63 46 101.5t122 38.5q51 0 146 -21t138 -21q34 0 54.5 11.5t27 25t17 25t25.5 11.5z" />
    <glyph glyph-name="U" unicode="U" horiz-adv-x="799" 
d="M820 254q10 27 35 27q8 0 15 -3.5t11.5 -10.5t4.5 -16t-4 -18q-92 -240 -204 -240q-57 0 -93 54t-36 167v23q-45 -114 -105 -180t-135 -66q-60 0 -97 39t-37 110q0 56 32 240.5t32 210.5q0 45 -37 45q-16 0 -29 -11.5t-29 -39.5q-12 -21 -33 -21q-15 0 -25.5 9t-10.5 24
q0 11 6 23q22 44 58 67t74 23q30 0 54.5 -13.5t40 -40.5t15.5 -64q0 -32 -32 -216t-32 -238q0 -71 58 -71q29 0 60 27t59.5 74.5t53.5 111t45.5 139.5t33.5 157l1 9q3 22 15.5 34t28.5 12q17 0 28.5 -12t11.5 -33q0 -7 -1 -15q-24 -188 -24 -331q0 -172 60 -172
q32 0 67.5 56.5t63.5 129.5z" />
    <glyph glyph-name="V" unicode="V" horiz-adv-x="617" 
d="M670 712q11 0 20.5 -5t14.5 -14t5 -20q0 -20 -21 -39q-52 -48 -96.5 -115.5t-80.5 -151t-61.5 -159.5t-54.5 -176q-4 -16 -16 -25t-26 -9q-19 0 -32.5 10.5t-18.5 27.5q-16 60 -28 138.5t-18 139.5t-18 188q-3 28 -4 42q-9 95 -62 95q-39 0 -73 -48q-15 -21 -36 -21
q-8 0 -15 4t-11 11.5t-4 17.5q0 19 11 39q16 30 52.5 51t78.5 21q41 0 71.5 -19t48.5 -55t23 -88q8 -80 20 -212.5t17 -176.5q27 94 54.5 168.5t61 142.5t73.5 123t88 99q17 16 37 16z" />
    <glyph glyph-name="W" unicode="W" horiz-adv-x="986" 
d="M925 684q49 -98 49 -239q0 -91 -15 -167t-40 -127t-58 -86t-68 -51t-70 -16q-70 0 -113 49t-56 162q-79 -211 -210 -211q-71 0 -110 45t-39 134q0 59 23.5 224.5t23.5 183.5q0 48 -39 48q-31 0 -58 -42q-14 -21 -33 -21q-13 0 -22 9.5t-9 23.5q0 21 15 44q42 61 119 61
q50 0 80.5 -33t30.5 -88q0 -27 -23.5 -193t-23.5 -227q0 -94 66 -94q67 0 125.5 125t93.5 333q3 21 15.5 32.5t27.5 11.5q17 0 29.5 -12t11.5 -30q0 -5 -4 -29q-17 -115 -17 -186q0 -117 25.5 -181t75.5 -64q59 0 110.5 98t51.5 286q0 118 -36 185q-9 16 -9 31q0 18 12 29
t29 11q24 0 39 -29z" />
    <glyph glyph-name="X" unicode="X" horiz-adv-x="588" 
d="M595 706q16 0 27.5 -11t11.5 -25q0 -19 -16 -33q-108 -95 -214 -343q77 -169 186 -266q14 -12 14 -32q0 -18 -13.5 -29.5t-28.5 -11.5q-16 0 -32 16q-98 98 -168 225q-45 -102 -87 -149.5t-106 -47.5q-54 0 -92 36q-21 20 -21 43q0 16 9.5 27t23.5 11q17 0 39 -20
q23 -21 45 -21q28 0 59.5 50.5t82.5 166.5q-76 173 -91 353q-1 12 -1 26q0 18 12 30t29 12q12 0 22 -5t15.5 -13.5t5.5 -19.5q6 -131 55 -275q22 47 47 93t52.5 88.5t55.5 74t51 42.5q16 8 27 8z" />
    <glyph glyph-name="Y" unicode="Y" horiz-adv-x="614" 
d="M610 665q5 -61 4 -108q-4 -115 -22 -214.5t-51 -180.5t-87.5 -127.5t-124.5 -46.5q-45 0 -82.5 19t-58.5 51q-11 16 -11 34q0 16 10.5 26t24.5 10q17 0 32 -18q40 -47 85 -47q65 0 110.5 74.5t69.5 193.5q-69 -97 -168 -97q-66 0 -104.5 42t-38.5 119q0 33 7 103.5
t7 84.5q0 47 -30 47q-15 0 -32.5 -12.5t-45.5 -40.5q-14 -14 -30 -14q-13 0 -22.5 9t-9.5 25q0 18 13 35q17 24 39.5 41t45.5 24.5t46 7.5q30 0 54.5 -13t40 -38.5t15.5 -59.5q0 -17 -7 -92.5t-7 -100.5q0 -92 72 -92q65 0 117 69t59 173v9q0 50 -3 94q-1 23 12.5 37
t31.5 14q15 0 26.5 -10.5t12.5 -29.5z" />
    <glyph glyph-name="Z" unicode="Z" horiz-adv-x="597" 
d="M619 254q10 27 34 27q13 0 22 -8.5t9 -22.5q0 -8 -3 -17q-44 -121 -94.5 -181.5t-116.5 -60.5q-56 0 -157 55q-57 -53 -121 -53q-38 0 -65 14t-39.5 34t-12.5 44q0 35 30 61t83 26q41 0 99 -28q43 62 107.5 197.5t113.5 262.5q-21 -4 -45 -4q-40 0 -107.5 16t-99.5 16
q-40 0 -40 -46q0 -12 7.5 -34t7.5 -26q0 -15 -10.5 -25.5t-25.5 -10.5q-28 0 -42 30t-14 66q0 54 33 87.5t84 33.5q32 0 102.5 -16t110.5 -16q24 0 53.5 14.5t46.5 14.5t28.5 -10.5t11.5 -29.5q0 -45 -72.5 -216t-148.5 -303q-13 -22 -26 -41q70 -38 109 -38q80 0 148 188z
M185 65q26 0 52 21q-35 17 -52 17q-15 0 -23 -6t-8 -13q0 -8 8.5 -13.5t22.5 -5.5z" />
    <glyph glyph-name="bracketleft" unicode="[" horiz-adv-x="314" 
d="M237 -23q-18 -1 -36 -1q-75 0 -94 17q-10 9 -16.5 69t-8.5 127.5t-2 136.5q0 46 2 99.5t5.5 102t9.5 83.5t12 41q24 22 131 22q14 0 24 -5t15 -12t5 -16q0 -13 -11 -23.5t-30 -11.5q-60 -2 -68 -12q-17 -21 -17 -269q0 -253 14 -269q2 -2 4.5 -3.5t6 -3t6.5 -2t8 -1
t8.5 -1t9.5 -0.5h9h10h10q18 0 28.5 -9t10.5 -22t-12 -24t-34 -13z" />
    <glyph glyph-name="backslash" unicode="\" 
d="M286 486q-11 0 -11 -8q0 -10 15.5 -17.5t42.5 -9.5h14h24q19 0 19 -21q0 -15 -8.5 -20t-34.5 -5q-13 0 -33 3t-23 3q-8 0 -8 -6q0 -11 18.5 -20t46.5 -10h20t16 -7.5t6 -17.5q0 -24 -22 -24h-8q30 -30 30 -72q0 -45 -31 -67q31 -23 31 -50q0 -25 -28 -39q28 -21 28 -49
q0 -18 -10 -31t-24 -19t-31 -6q-35 0 -64 21.5t-29 54.5q0 12 4 22q-54 -1 -82.5 12t-28.5 39q0 23 13 35t36 12q65 0 133 -57q40 2 40 13q0 12 -25 28h-8q-33 0 -57.5 20.5t-24.5 55.5q0 28 15 44t36 16q20 0 35 -14.5t15 -37.5t-11 -37q25 5 25 41q0 42 -41 67
q-49 3 -55 3q-10 0 -14.5 7.5t-4.5 16.5q0 23 19 23h3t7 -0.5t9 -0.5q-27 16 -27 39t19 34q-28 15 -28 42q0 41 38 41q7 0 32.5 -3t33.5 -3q9 0 9 8q0 6 -12.5 15t-33.5 17q-14 3 -27 9t-23 15.5t-16 23.5t-6 30q0 33 21 50.5t52 17.5q35 0 61.5 -21.5t26.5 -60.5
q0 -41 -34 -57q34 -22 34 -50q0 -43 -43 -43q-15 0 -37 2.5t-24 2.5zM272 642q0 -13 14 -21.5t31 -8.5q30 0 30 22q0 13 -14.5 22t-30.5 9q-14 0 -22 -6.5t-8 -16.5zM272 246q0 -16 25 -24q5 11 5 24q0 8 -5 12.5t-11 4.5q-4 0 -9 -5t-5 -12zM166 142q0 -10 78 -11
q-42 16 -67 16q-11 0 -11 -5zM322 38q25 0 25 20q0 14 -16.5 23.5t-36.5 9.5q-22 0 -22 -17q0 -16 16 -26t34 -10z" />
    <glyph glyph-name="bracketright" unicode="]" horiz-adv-x="314" 
d="M77 -23q-22 2 -34 12.5t-12 24.5q0 13 10.5 22t29.5 9h10h10h9t9 0.5t8 1t8 1.5t6.5 2t6 2.5t4.5 3.5q14 16 14 269q0 248 -17 269q-8 10 -68 12q-19 1 -30 11.5t-11 23.5q0 9 5 16t15 12t24 5q107 0 131 -22q12 -11 20.5 -118t8.5 -208q0 -115 -6.5 -217.5t-20.5 -115.5
q-20 -18 -92 -18q-19 0 -38 2z" />
    <glyph glyph-name="asciicircum" unicode="^" 
d="M286 486q-11 0 -11 -8q0 -10 15.5 -17.5t42.5 -9.5h14h24q19 0 19 -21q0 -15 -8.5 -20t-34.5 -5q-13 0 -33 3t-23 3q-8 0 -8 -6q0 -11 18.5 -20t46.5 -10h20t16 -7.5t6 -17.5q0 -24 -22 -24h-8q30 -30 30 -72q0 -45 -31 -67q31 -23 31 -50q0 -25 -28 -39q28 -21 28 -49
q0 -18 -10 -31t-24 -19t-31 -6q-35 0 -64 21.5t-29 54.5q0 12 4 22q-54 -1 -82.5 12t-28.5 39q0 23 13 35t36 12q65 0 133 -57q40 2 40 13q0 12 -25 28h-8q-33 0 -57.5 20.5t-24.5 55.5q0 28 15 44t36 16q20 0 35 -14.5t15 -37.5t-11 -37q25 5 25 41q0 42 -41 67
q-49 3 -55 3q-10 0 -14.5 7.5t-4.5 16.5q0 23 19 23h3t7 -0.5t9 -0.5q-27 16 -27 39t19 34q-28 15 -28 42q0 41 38 41q7 0 32.5 -3t33.5 -3q9 0 9 8q0 6 -12.5 15t-33.5 17q-14 3 -27 9t-23 15.5t-16 23.5t-6 30q0 33 21 50.5t52 17.5q35 0 61.5 -21.5t26.5 -60.5
q0 -41 -34 -57q34 -22 34 -50q0 -43 -43 -43q-15 0 -37 2.5t-24 2.5zM272 642q0 -13 14 -21.5t31 -8.5q30 0 30 22q0 13 -14.5 22t-30.5 9q-14 0 -22 -6.5t-8 -16.5zM272 246q0 -16 25 -24q5 11 5 24q0 8 -5 12.5t-11 4.5q-4 0 -9 -5t-5 -12zM166 142q0 -10 78 -11
q-42 16 -67 16q-11 0 -11 -5zM322 38q25 0 25 20q0 14 -16.5 23.5t-36.5 9.5q-22 0 -22 -17q0 -16 16 -26t34 -10z" />
    <glyph glyph-name="underscore" unicode="_" horiz-adv-x="405" 
d="M348 -26q-41 0 -119.5 1t-120.5 1q-16 0 -26 10t-10 25t10.5 25t26.5 10q42 0 120.5 -1t119.5 -1q16 0 26 -10t10 -25t-10.5 -25t-26.5 -10z" />
    <glyph glyph-name="a" unicode="a" horiz-adv-x="477" 
d="M499 254q11 27 33 27q12 0 22 -10t10 -24q0 -7 -3 -14q-45 -121 -87 -179t-94 -58q-21 0 -40 9.5t-34 30t-23 49.5q-61 -89 -142 -89q-61 0 -98.5 42t-37.5 120q0 52 17.5 99.5t46 80t65 51.5t74.5 19q42 0 79 -22q11 31 40 31q15 0 25.5 -11t10.5 -32q0 -8 -8 -87.5
t-8 -112.5q0 -105 40 -105q39 0 112 185zM152 70q33 0 68.5 34.5t51.5 110.5q6 38 7 83q-13 37 -61 37q-52 0 -92.5 -51t-40.5 -123q0 -45 18 -68t49 -23z" />
    <glyph glyph-name="b" unicode="b" horiz-adv-x="437" 
d="M459 254q11 26 35 26q8 0 14.5 -3.5t11 -11t4.5 -16.5q0 -8 -3 -16q-23 -68 -70.5 -106t-110.5 -43q-56 -90 -146 -90q-171 0 -171 276q0 97 17 178q-4 1 -7 2q-11 3 -18 9t-10.5 13t-3.5 15q0 13 9.5 22.5t24.5 9.5q6 0 22 -4q30 95 83 147t120 52q54 0 85.5 -31.5
t31.5 -80.5q0 -32 -14 -60.5t-42 -51.5t-75 -36.5t-108 -13.5h-20q-15 -73 -15 -161q0 -113 25.5 -162.5t65.5 -49.5q31 0 57 28q-59 18 -95 60.5t-36 98.5q0 68 36.5 108.5t94.5 40.5q44 0 75 -23.5t44.5 -59.5t13.5 -81q0 -41 -12 -82q54 19 87 97zM261 641
q-25 0 -48.5 -16t-43 -46t-34.5 -73h15q48 0 83.5 15t52 36t16.5 44q0 18 -11 29t-30 11zM190 253q0 -36 25.5 -63.5t71.5 -36.5q17 46 17 92q0 37 -15 61.5t-41 24.5q-25 0 -41.5 -22t-16.5 -56z" />
    <glyph glyph-name="c" unicode="c" horiz-adv-x="376" 
d="M199 -8q-84 0 -134.5 52t-50.5 141q0 66 26 118.5t68 79.5t91 27q36 0 64 -14t42.5 -37t14.5 -51q0 -56 -39 -56q-38 0 -38 41q0 20 -12 32t-32 12q-42 0 -73.5 -40.5t-31.5 -110.5q0 -39 13 -66.5t37 -41t56 -13.5q56 0 107 46t91 143q11 26 32 26q7 0 12.5 -2.5t10 -7
t7.5 -10.5t3 -13t-3 -14q-49 -125 -116.5 -183t-144.5 -58z" />
    <glyph glyph-name="d" unicode="d" horiz-adv-x="478" 
d="M500 254q11 26 33 26q12 0 22 -9.5t10 -23.5q0 -7 -3 -14q-47 -123 -85 -176.5t-90 -53.5q-72 0 -101 90q-29 -42 -68.5 -68t-76.5 -26q-58 0 -95 45.5t-37 131.5q0 103 62 172.5t143 69.5q26 0 46 -9q0 300 140 300q40 0 65.5 -29.5t25.5 -84.5q0 -145 -150 -391
q11 -128 49 -128q39 0 110 178zM391 637q-5 0 -8.5 -1.5t-8.5 -5.5t-8.5 -10.5t-7.5 -18t-7 -26.5t-6 -37.5t-5 -49.5t-3 -63t-1 -79v-10q34 69 56.5 145.5t22.5 114.5q0 41 -24 41zM147 72q41 0 83 55.5t42 136.5q0 43 -14.5 62t-42.5 19q-46 0 -86 -49t-40 -121
q0 -36 8.5 -60t21 -33.5t28.5 -9.5z" />
    <glyph glyph-name="e" unicode="e" horiz-adv-x="369" 
d="M391 254q11 26 33 26q12 0 22 -9.5t10 -23.5q0 -7 -3 -14q-46 -122 -108.5 -180.5t-144.5 -58.5q-83 0 -133.5 53.5t-50.5 144.5q0 99 54 159.5t132 60.5q57 0 92.5 -34t35.5 -86q0 -54 -42 -93.5t-105 -39.5q-46 0 -87 18q4 -54 33 -82t79 -28q109 0 183 187zM204 339
q-23 0 -43.5 -11t-36 -33.5t-22.5 -52.5q37 -16 79 -16q32 0 51.5 18t19.5 45q0 23 -13 36.5t-35 13.5z" />
    <glyph glyph-name="f" unicode="f" horiz-adv-x="325" 
d="M347 254q9 27 31 27q13 0 23.5 -10.5t10.5 -24.5q0 -6 -3 -13q-46 -121 -136 -136q32 -86 32 -164q0 -87 -37 -134t-92 -47q-29 0 -50.5 9.5t-41.5 36.5t-32.5 74t-20 125t-7.5 186q0 526 203 526q43 0 68.5 -27.5t25.5 -77.5q0 -28 -11 -65.5t-34.5 -85t-68 -103
t-103.5 -106.5v-43q0 -98 4.5 -168.5t11 -110t17 -62t20 -29t21.5 -6.5q19 0 33 26t14 86q0 41 -11.5 86t-30.5 79q-32 10 -48.5 30t-16.5 41q0 13 5.5 23t16 16.5t25.5 6.5q41 0 78 -61h5q61 0 99 96zM219 636q-36 0 -67 -79t-42 -215q43 48 74 102t44 94.5t13 68.5
q0 29 -22 29z" />
    <glyph glyph-name="g" unicode="g" horiz-adv-x="442" 
d="M464 254q9 26 31 26q13 0 23.5 -10t10.5 -24q0 -6 -3 -13q-80 -194 -190 -271l-2 -20q-8 -89 -49.5 -142.5t-99.5 -53.5q-42 0 -67 25t-25 62q0 20 7.5 38t17.5 31t29 27.5t33.5 23t40 23.5t40.5 24q2 33 3 73q-56 -63 -121 -63q-58 0 -98 43.5t-40 113.5q0 106 60 174
t143 68h1q59 0 105 -29.5t46 -79.5q0 -27 -17 -245q38 36 70.5 91t50.5 108zM155 83q81 0 118 136q7 42 6 73q-4 20 -20.5 31.5t-40.5 11.5q-34 0 -64.5 -20t-49.5 -58t-19 -86q0 -44 18.5 -66t51.5 -22zM193 -181q20 0 35 21t24 82q-41 -24 -62.5 -43t-21.5 -39
q0 -10 7 -15.5t18 -5.5z" />
    <glyph glyph-name="h" unicode="h" horiz-adv-x="442" 
d="M464 254q11 27 33 27q12 0 22 -9.5t10 -24.5q0 -7 -3 -14q-11 -28 -21 -51.5t-20.5 -46.5t-21.5 -41t-22.5 -34t-24 -27.5t-25.5 -20t-27.5 -12.5t-29.5 -4q-40 0 -67 28t-27 70q0 35 23.5 114.5t23.5 101.5q0 39 -34 39q-19 0 -43 -15.5t-47.5 -42.5t-40.5 -72t-19 -96
q0 -7 2 -35t2 -44q0 -48 -40 -48q-18 0 -28.5 13t-11.5 37q-5 91 -5 221q0 102 12 181q-5 1 -9 2q-16 4 -24 14.5t-8 22.5q0 13 9.5 22.5t24.5 9.5q5 0 20 -3q26 104 75 150.5t110 46.5q28 0 50.5 -8.5t37.5 -23.5t23.5 -35.5t8.5 -44.5q0 -67 -62 -114t-173 -47h-4
q-8 -58 -11 -133q16 28 35 49.5t40 36t44.5 22t47.5 7.5q43 0 69.5 -27.5t26.5 -73.5q0 -42 -23.5 -124t-23.5 -101q0 -12 7.5 -19.5t19.5 -7.5q47 0 119 185zM232 640q-74 0 -107 -134h2q61 0 104.5 25t43.5 67q0 18 -11.5 30t-31.5 12z" />
    <glyph glyph-name="i" unicode="i" horiz-adv-x="236" 
d="M89 457q-20 0 -34 14t-14 34t14 33.5t34 13.5q19 0 33 -14t14 -33q0 -20 -13.5 -34t-33.5 -14zM131 -4q-52 0 -83 41t-31 126q0 82 21 200q4 21 16 32.5t27 11.5q17 0 28 -14t8 -39q-2 -15 -8 -60.5t-9 -78t-3 -58.5q0 -88 39 -88q27 0 60 55t62 130q10 27 32 27
q13 0 23 -10t10 -24q0 -7 -3 -14q-48 -124 -89 -180.5t-100 -56.5z" />
    <glyph glyph-name="j" unicode="j" horiz-adv-x="182" 
d="M83 453q-20 0 -34 14t-14 34t14 33.5t34 13.5q19 0 33 -14t14 -33q0 -20 -13.5 -34t-33.5 -14zM204 254q11 26 32 26q13 0 23 -10t10 -24q0 -6 -3 -13q-38 -96 -79.5 -161.5t-106.5 -110.5q-1 -15 -1 -17q-2 -22 -6.5 -43.5t-15.5 -50.5t-26 -50t-41 -36t-59 -15
q-44 0 -71 24t-27 59q0 44 41.5 81t127.5 83q18 253 29 377q1 17 13 27t27 10q17 0 29.5 -12t10.5 -32q-6 -63 -24 -310q28 28 52.5 68t36 64t28.5 66zM-64 -178q47 0 60 99q-29 -16 -47 -29t-28.5 -26t-10.5 -24q0 -9 7 -14.5t19 -5.5z" />
    <glyph glyph-name="k" unicode="k" horiz-adv-x="413" 
d="M435 254q10 26 32 26q13 0 22.5 -10t9.5 -24q0 -6 -2 -13q-45 -120 -90 -180t-108 -60q-54 0 -98.5 49t-44.5 116q0 21 12 33t42 27q33 16 53 32.5t20 38.5q0 40 -46 40q-47 0 -87.5 -51t-43.5 -146q1 -40 4 -82q1 -17 -3.5 -29.5t-13.5 -18.5t-23 -6q-37 0 -40 50
q-5 91 -5 221q0 102 12 181q-5 1 -9 2q-11 3 -18 9t-10.5 13t-3.5 14q0 13 9.5 23t24.5 10q7 0 20 -3q49 197 188 197q35 0 61.5 -14.5t41 -40.5t14.5 -60q0 -64 -62 -111t-173 -47h-4q-7 -55 -10 -126q29 43 69.5 65.5t82.5 22.5q45 0 75 -30t30 -76q0 -34 -15.5 -61
t-32 -39.5t-40.5 -25.5q-35 -19 -35 -29q0 -30 20.5 -52.5t43.5 -22.5q57 0 131 188zM235 640q-74 0 -107 -134h2q69 0 108.5 28t39.5 62q0 20 -11.5 32t-31.5 12z" />
    <glyph glyph-name="l" unicode="l" horiz-adv-x="307" 
d="M329 254q10 25 33 25q13 0 22.5 -8.5t9.5 -22.5q0 -7 -3 -15q-48 -122 -97 -179t-116 -57q-154 0 -154 262q0 448 178 448q40 0 65 -27t25 -72q0 -59 -20.5 -123.5t-62.5 -135t-104 -139.5q5 -64 24.5 -102t55.5 -38q71 0 144 184zM193 634q-9 0 -19.5 -10.5t-21.5 -35
t-20.5 -59.5t-16.5 -89.5t-10 -120.5q109 149 109 275q0 40 -21 40z" />
    <glyph glyph-name="m" unicode="m" horiz-adv-x="654" 
d="M676 254q10 25 34 25q12 0 21.5 -8.5t9.5 -22.5q0 -7 -3 -15q-30 -77 -58 -127t-60 -78.5t-66 -28.5q-43 0 -68.5 30t-25.5 87q0 40 7.5 97t7.5 75q0 12 -2 20t-7 13t-11.5 7.5t-16.5 2.5q-19 0 -38 -11t-38 -34.5t-31 -70.5t-12 -111v-1q0 -14 2 -41.5t2 -28.5
q0 -16 -9 -26.5t-25 -10.5q-27 0 -38.5 21t-11.5 82q0 47 13.5 107t13.5 71q0 29 -30 29q-41 0 -85 -57t-52 -145v-68q0 -21 -10.5 -33t-28.5 -12q-41 0 -41 45q0 214 16 333q2 18 13 29t29 11q37 0 37 -43q0 -4 -1 -13t-3 -27.5t-3 -38.5q59 92 147 92q16 0 30.5 -5.5
t26.5 -15.5t20 -24q53 70 126 70q44 0 71.5 -27.5t27.5 -71.5q0 -21 -8 -89t-8 -112q0 -31 23 -31q42 0 113 181z" />
    <glyph glyph-name="n" unicode="n" horiz-adv-x="443" 
d="M465 254q9 27 31 27q13 0 23.5 -10.5t10.5 -24.5q0 -6 -3 -13q-48 -124 -87 -179t-94 -55q-45 0 -71 30t-26 87q0 40 8 98t8 75q0 23 -9 32.5t-29 9.5q-18 0 -39 -13.5t-41 -39t-33.5 -70t-14.5 -98.5v-74q0 -42 -38 -42q-42 0 -42 42q0 226 15 338q5 35 43 35
q12 0 21 -5t13 -13t4 -19q0 -4 -1 -9q-4 -23 -6 -44q56 85 134 85q47 0 75 -26.5t28 -67.5q0 -29 -8 -93t-8 -95q0 -50 26 -50q38 0 110 182z" />
    <glyph glyph-name="o" unicode="o" horiz-adv-x="426" 
d="M448 254q10 26 33 26q13 0 22.5 -9t9.5 -23q0 -7 -3 -15q-24 -65 -73.5 -101.5t-107.5 -41.5q-56 -98 -163 -98q-78 0 -118.5 52.5t-40.5 129.5q0 60 23 115.5t69.5 93.5t105.5 38q37 0 68 -13q42 -16 67.5 -65t25.5 -108q0 -37 -9 -74q64 23 91 93zM240 340
q-16 0 -25.5 -18.5t-9.5 -45.5q0 -25 8.5 -48t25 -40.5t37.5 -26.5q11 35 11 77q0 44 -12.5 73t-34.5 29zM167 65q44 0 77 38q-31 14 -55.5 39.5t-37 57t-12.5 64.5q0 34 10 65q-29 -24 -46 -67t-17 -88q0 -27 6 -48t17 -34.5t25.5 -20t32.5 -6.5z" />
    <glyph glyph-name="p" unicode="p" horiz-adv-x="442" 
d="M464 254q11 27 34 27q12 0 21.5 -9t9.5 -23q0 -8 -3 -16q-31 -84 -95.5 -136.5t-155.5 -71.5q-44 -37 -87 -37q-25 0 -39 13.5t-14 32.5t14 34t37 15q22 0 43 2q32 30 53.5 81.5t21.5 96.5q0 32 -14.5 52t-41.5 20q-44 0 -85 -44.5t-54 -100.5q0 -143 -36 -408
q-2 -17 -13.5 -26.5t-26.5 -9.5q-8 0 -15 2.5t-12.5 7.5t-9 12.5t-3.5 16.5q0 4 9 66t18 158t9 180q0 41 -3.5 83.5t-7 70t-3.5 31.5q0 18 12 28.5t28 10.5q13 0 23 -7t14 -20q7 -29 11 -65q33 40 73 64t79 24q58 0 93.5 -39.5t35.5 -108.5t-37 -142q81 44 117 135z" />
    <glyph glyph-name="q" unicode="q" horiz-adv-x="449" 
d="M471 254q11 27 32 27q13 0 23 -10t10 -24q0 -7 -3 -14q-25 -61 -52 -94.5t-71 -67.5q-11 -9 -11 -18q0 -6 7.5 -28t15 -58.5t7.5 -78.5q0 -64 -31 -102t-74 -38q-100 0 -100 131q0 57 20 174q-48 -42 -101 -42q-58 0 -98 43.5t-40 112.5q0 106 60 174t143 68h1
q61 0 106 -32t45 -76q0 -16 -29 -203q98 51 140 156zM155 85q80 0 117 130q8 48 7 77q-4 20 -20.5 31.5t-40.5 11.5q-34 0 -64.5 -20t-49.5 -58t-19 -86q0 -21 5 -37.5t14.5 -27t22 -16t28.5 -5.5zM323 -179q13 0 22.5 17t9.5 54q0 71 -31 158q-24 -155 -24 -194
q0 -35 23 -35z" />
    <glyph glyph-name="r" unicode="r" horiz-adv-x="383" 
d="M405 254q11 27 33 27q12 0 22 -10t10 -24q0 -7 -3 -14q-45 -120 -93 -178t-118 -58q-56 0 -91.5 36t-35.5 92q0 68 58 200q-31 4 -63 18q-19 -55 -40 -110q-10 -25 -33 -25q-6 0 -12 2.5t-10.5 6.5t-7 10t-2.5 12q0 7 3 15q27 68 41 123q-15 11 -15 35q0 17 10 30t27 13
q20 0 34 -19q32 -44 83 -44q12 0 26.5 4t19.5 4q15 0 25 -10.5t10 -26.5q0 -14 -11 -41q-2 -4 -18 -41.5t-22.5 -55t-14.5 -46.5t-8 -50q0 -28 15 -43.5t41 -15.5q68 0 140 184z" />
    <glyph glyph-name="s" unicode="s" horiz-adv-x="354" 
d="M376 254q10 26 33 26q12 0 22 -9.5t10 -23.5q0 -7 -3 -14q-27 -73 -78 -127t-118 -79q-38 -33 -94 -33q-50 0 -81 24q-23 17 -23 41q0 7 2.5 13.5t7 11t12 7.5t15.5 3q11 0 23 -4q30 -10 53 -10q12 0 23 1q24 15 24 53q0 17 -5.5 34t-17 36t-21 32t-27 35.5l-24.5 31.5
q-14 -41 -25 -70q-10 -25 -33 -25q-13 0 -22.5 9t-9.5 22q0 7 3 15q31 79 48 129v4q0 34 19.5 52t46.5 18q21 0 36.5 -12t15.5 -33q0 -11 -11 -27t-11 -22q0 -11 18.5 -36.5t40 -52.5t40 -68t18.5 -81v-2q59 45 93 131z" />
    <glyph glyph-name="t" unicode="t" horiz-adv-x="272" 
d="M294 254q10 26 32 26q9 0 16 -4t12 -12t5 -17q0 -7 -3 -14q-47 -125 -91.5 -181t-109.5 -56t-101 42.5t-36 127.5q0 57 20 184q2 10 5.5 33.5t5.5 37.5h-20q-18 0 -28.5 10.5t-10.5 24.5q0 9 4.5 16.5t14 12.5t22.5 5h28q10 71 12 125q1 19 13 29.5t29 10.5
q16 0 27.5 -11t11.5 -30q0 -26 -13 -130q42 -4 84 -13q27 -6 27 -33q0 -9 -3.5 -16.5t-11 -12.5t-16.5 -5q-4 0 -16 2t-32.5 5t-40.5 5q-8 -53 -12 -78q-19 -111 -19 -177q0 -50 15 -71t45 -21q18 0 36.5 14t30.5 30t27.5 47.5t22 46.5t18.5 47z" />
    <glyph glyph-name="u" unicode="u" horiz-adv-x="452" 
d="M474 254q10 26 32 26q13 0 23 -9t10 -24q0 -7 -3 -14q-18 -50 -35 -87.5t-39 -73t-48 -54t-55 -18.5q-69 0 -91 93q-59 -93 -147 -93q-51 0 -81.5 30.5t-30.5 79.5q0 56 11.5 132t11.5 87q0 15 -14.5 30.5t-14.5 28.5q0 15 11.5 26t27.5 11q18 0 34.5 -10t26.5 -27.5
t10 -38.5q0 -36 -12 -112.5t-12 -103.5q0 -60 43 -60q41 0 79 46.5t50 149.5q3 38 12 106q2 17 14 26t27 9q16 0 27.5 -11.5t9.5 -31.5q-16 -152 -16 -186q0 -108 31 -108q22 0 52 55t56 126z" />
    <glyph glyph-name="v" unicode="v" horiz-adv-x="416" 
d="M438 254q10 26 34 26q12 0 21.5 -9t9.5 -23q0 -7 -3 -15q-17 -47 -53 -72t-78 -25q-32 0 -61 15q-34 -70 -88.5 -114t-103.5 -44q-103 0 -103 136q0 42 9 108.5t9 122.5q0 13 4.5 23t14 16t22.5 6q39 0 39 -43q0 -62 -9 -130t-9 -104q0 -37 6.5 -49.5t20.5 -12.5
q24 0 66.5 41t60.5 107q-15 33 -15 75q0 11 1 22q4 47 20 71.5t39 24.5t37.5 -25.5t14.5 -77.5q0 -43 -11 -86q16 -15 38 -15q21 0 39.5 14t27.5 37z" />
    <glyph glyph-name="w" unicode="w" horiz-adv-x="626" 
d="M648 254q10 26 32 26q13 0 23 -9.5t10 -23.5q0 -7 -3 -14q-12 -30 -32.5 -51.5t-44.5 -31.5t-50 -10q-33 0 -62 16q-30 -70 -80.5 -113t-104.5 -43q-66 0 -92 56q-55 -65 -125 -65q-50 0 -80 35.5t-30 102.5q0 35 11.5 114.5t11.5 115.5q0 53 42 53q38 0 38 -53
q0 -34 -11.5 -113.5t-11.5 -109.5q0 -72 39 -72q12 0 28 9.5t33.5 29.5t32.5 59.5t22 91.5q3 36 3 76q0 13 4.5 23t14 16t22.5 6q39 0 39 -43q0 -41 -3 -78q-1 -6 -1 -13q-2 -17 -8 -55t-6 -58q0 -55 35 -55q28 0 65 41.5t54 105.5q-20 42 -20 98q0 45 16.5 71t38.5 26
q15 0 27 -11t20.5 -35.5t8.5 -57.5q0 -46 -11 -91q18 -14 40 -14q47 0 65 48z" />
    <glyph glyph-name="x" unicode="x" horiz-adv-x="469" 
d="M491 254q10 26 33 26q13 0 22.5 -9t9.5 -23q0 -7 -3 -15q-22 -56 -35 -87t-31 -65t-33 -50t-34.5 -26.5t-42.5 -10.5q-37 0 -64.5 25t-54.5 78q-4 9 -8 19q-38 -48 -82 -98q-24 -27 -45 -27q-14 0 -23.5 10t-9.5 24q0 19 16 36q58 63 111 133l-10 26q-25 67 -37 89
t-29 22q-11 0 -17.5 -9t-16.5 -32q-14 -35 -23 -57q-9 -24 -34 -24q-12 0 -21.5 8t-9.5 21q0 8 3 16q20 48 24 61q18 48 43 69t60 21q71 0 107 -96q9 -23 17 -45q33 52 55 98q18 36 44 36q14 0 23.5 -10t9.5 -27q0 -16 -8 -31q-49 -89 -90 -149q1 -4 3 -8q24 -56 41 -80.5
t32 -24.5q21 0 45.5 44.5t62.5 141.5z" />
    <glyph glyph-name="y" unicode="y" horiz-adv-x="434" 
d="M456 254q11 26 32 26q13 0 23 -10t10 -24q0 -7 -3 -13q-36 -92 -81.5 -159.5t-111.5 -112.5q-1 -10 -2 -17q-2 -20 -5.5 -38.5t-10 -42.5t-18 -43.5t-26.5 -36.5t-37.5 -26.5t-50.5 -9.5q-44 0 -71.5 25t-27.5 60q0 44 41.5 81t128.5 83q3 35 6 78q-59 -74 -140 -74
q-45 0 -74.5 30.5t-29.5 79.5q0 54 12 130t12 90q0 15 -14.5 30t-14.5 28q0 15 11.5 26t27.5 11q18 0 34.5 -10t26.5 -27.5t10 -38.5q0 -36 -12.5 -112.5t-12.5 -103.5q0 -33 10.5 -46.5t33.5 -13.5q18 0 36.5 9t38.5 30t36 61.5t24 95.5q4 58 8 104q1 17 13 27t27 10
q17 0 29 -11.5t11 -32.5q-3 -39 -7.5 -95t-8 -107.5t-6.5 -88.5q-1 -14 -1 -20q70 69 124 199zM180 -180q47 0 60 101q-29 -16 -47 -29t-28.5 -26t-10.5 -24q0 -22 26 -22z" />
    <glyph glyph-name="z" unicode="z" horiz-adv-x="413" 
d="M435 254q10 25 32 25q13 0 23 -9t10 -23q0 -7 -3 -14q-18 -49 -47 -102.5t-70 -99.5t-75 -46q-23 0 -59.5 7t-57.5 7q-23 0 -47 -4.5t-33 -4.5q-20 0 -32 11t-12 29q0 24 20 43q22 21 32.5 31t33 34.5t37 45t32.5 52t31 65.5q-75 7 -128 41q-25 -77 -38 -109
q-10 -24 -33 -24q-13 0 -22.5 8.5t-9.5 21.5q0 7 3 15q25 61 45 132q-2 22 -2 32q0 9 4 17t10 12.5t13 7t14 2.5q11 0 20 -5.5t13 -10.5t13 -17q12 -15 20.5 -24t29.5 -17.5t50 -8.5q15 0 34 4.5t25 4.5q13 0 21.5 -9.5t8.5 -24.5q0 -8 -2 -18q-9 -46 -33 -96t-52.5 -90
t-61.5 -75h3q28 0 55.5 -6t40.5 -6q29 0 73 62t71 134z" />
    <glyph glyph-name="braceleft" unicode="{" horiz-adv-x="370" 
d="M239 -17q-113 0 -113 140q0 14 5 56t4 70q-1 30 -35 47q-2 1 -6.5 3t-6.5 3t-5.5 2.5t-5 2.5l-4.5 3t-4.5 3.5t-3 3.5t-2.5 4.5t-1.5 5t-0.5 5.5q0 5 1.5 9t3.5 6.5t7 6t7.5 5t10 4.5t10.5 5q29 14 30 45q1 22 -0.5 46t-3.5 46t-2 36q0 60 29 97t85 37q37 0 71 -22
q21 -14 21 -33q0 -13 -9 -22t-23 -9q-11 0 -23 7q-24 13 -39 13q-9 0 -16.5 -4t-13 -12t-8 -19.5t-2.5 -26.5q0 -17 2.5 -63t2.5 -73q0 -11 -1.5 -20.5t-3.5 -17t-4.5 -13.5t-6 -10.5t-6 -7.5t-5.5 -6l-4 -4q1 -1 8.5 -9t12.5 -15t10 -22.5t5 -34.5q0 -27 -4 -72t-4 -62
q0 -32 11 -49.5t30 -17.5q16 0 37 15q12 9 23 9q12 0 20 -8.5t8 -21.5q0 -20 -20 -37q-30 -24 -68 -24z" />
    <glyph glyph-name="bar" unicode="|" 
d="M286 486q-11 0 -11 -8q0 -10 15.5 -17.5t42.5 -9.5h14h24q19 0 19 -21q0 -15 -8.5 -20t-34.5 -5q-13 0 -33 3t-23 3q-8 0 -8 -6q0 -11 18.5 -20t46.5 -10h20t16 -7.5t6 -17.5q0 -24 -22 -24h-8q30 -30 30 -72q0 -45 -31 -67q31 -23 31 -50q0 -25 -28 -39q28 -21 28 -49
q0 -18 -10 -31t-24 -19t-31 -6q-35 0 -64 21.5t-29 54.5q0 12 4 22q-54 -1 -82.5 12t-28.5 39q0 23 13 35t36 12q65 0 133 -57q40 2 40 13q0 12 -25 28h-8q-33 0 -57.5 20.5t-24.5 55.5q0 28 15 44t36 16q20 0 35 -14.5t15 -37.5t-11 -37q25 5 25 41q0 42 -41 67
q-49 3 -55 3q-10 0 -14.5 7.5t-4.5 16.5q0 23 19 23h3t7 -0.5t9 -0.5q-27 16 -27 39t19 34q-28 15 -28 42q0 41 38 41q7 0 32.5 -3t33.5 -3q9 0 9 8q0 6 -12.5 15t-33.5 17q-14 3 -27 9t-23 15.5t-16 23.5t-6 30q0 33 21 50.5t52 17.5q35 0 61.5 -21.5t26.5 -60.5
q0 -41 -34 -57q34 -22 34 -50q0 -43 -43 -43q-15 0 -37 2.5t-24 2.5zM272 642q0 -13 14 -21.5t31 -8.5q30 0 30 22q0 13 -14.5 22t-30.5 9q-14 0 -22 -6.5t-8 -16.5zM272 246q0 -16 25 -24q5 11 5 24q0 8 -5 12.5t-11 4.5q-4 0 -9 -5t-5 -12zM166 142q0 -10 78 -11
q-42 16 -67 16q-11 0 -11 -5zM322 38q25 0 25 20q0 14 -16.5 23.5t-36.5 9.5q-22 0 -22 -17q0 -16 16 -26t34 -10z" />
    <glyph glyph-name="braceright" unicode="}" horiz-adv-x="371" 
d="M132 -17q-38 0 -68 24q-20 16 -20 37q0 12 8 20.5t20 8.5q11 0 23 -8q21 -15 37 -15q19 0 30 17.5t11 49.5q0 17 -4 62t-4 72q0 13 2 24t5.5 18.5t8 14.5t8 10.5l7.5 7.5t5 6l-5 5t-6.5 7.5t-6.5 10t-6.5 14t-4.5 18.5t-2 24q0 27 2.5 73t2.5 63q0 30 -10.5 46t-29.5 16
q-15 0 -39 -13q-12 -6 -23 -6q-9 0 -16.5 4t-12 11t-4.5 15q0 19 22 33q34 22 71 22q56 0 85 -37t29 -97q0 -13 -3.5 -56.5t-2.5 -71.5q1 -30 30 -45q3 -2 10.5 -5t10 -4.5t7.5 -5t7 -6t3.5 -6.5t1.5 -9t-1.5 -9t-3.5 -6.5t-7 -6t-7.5 -5t-10 -4.5t-10.5 -5q-34 -17 -35 -47
q-1 -28 4 -70t5 -56q0 -140 -113 -140z" />
    <glyph glyph-name="asciitilde" unicode="~" 
d="M286 486q-11 0 -11 -8q0 -10 15.5 -17.5t42.5 -9.5h14h24q19 0 19 -21q0 -15 -8.5 -20t-34.5 -5q-13 0 -33 3t-23 3q-8 0 -8 -6q0 -11 18.5 -20t46.5 -10h20t16 -7.5t6 -17.5q0 -24 -22 -24h-8q30 -30 30 -72q0 -45 -31 -67q31 -23 31 -50q0 -25 -28 -39q28 -21 28 -49
q0 -18 -10 -31t-24 -19t-31 -6q-35 0 -64 21.5t-29 54.5q0 12 4 22q-54 -1 -82.5 12t-28.5 39q0 23 13 35t36 12q65 0 133 -57q40 2 40 13q0 12 -25 28h-8q-33 0 -57.5 20.5t-24.5 55.5q0 28 15 44t36 16q20 0 35 -14.5t15 -37.5t-11 -37q25 5 25 41q0 42 -41 67
q-49 3 -55 3q-10 0 -14.5 7.5t-4.5 16.5q0 23 19 23h3t7 -0.5t9 -0.5q-27 16 -27 39t19 34q-28 15 -28 42q0 41 38 41q7 0 32.5 -3t33.5 -3q9 0 9 8q0 6 -12.5 15t-33.5 17q-14 3 -27 9t-23 15.5t-16 23.5t-6 30q0 33 21 50.5t52 17.5q35 0 61.5 -21.5t26.5 -60.5
q0 -41 -34 -57q34 -22 34 -50q0 -43 -43 -43q-15 0 -37 2.5t-24 2.5zM272 642q0 -13 14 -21.5t31 -8.5q30 0 30 22q0 13 -14.5 22t-30.5 9q-14 0 -22 -6.5t-8 -16.5zM272 246q0 -16 25 -24q5 11 5 24q0 8 -5 12.5t-11 4.5q-4 0 -9 -5t-5 -12zM166 142q0 -10 78 -11
q-42 16 -67 16q-11 0 -11 -5zM322 38q25 0 25 20q0 14 -16.5 23.5t-36.5 9.5q-22 0 -22 -17q0 -16 16 -26t34 -10z" />
    <glyph glyph-name="uni00A0" unicode="&#xa0;" horiz-adv-x="250" 
 />
    <glyph glyph-name="exclamdown" unicode="&#xa1;" 
d="M286 486q-11 0 -11 -8q0 -10 15.5 -17.5t42.5 -9.5h14h24q19 0 19 -21q0 -15 -8.5 -20t-34.5 -5q-13 0 -33 3t-23 3q-8 0 -8 -6q0 -11 18.5 -20t46.5 -10h20t16 -7.5t6 -17.5q0 -24 -22 -24h-8q30 -30 30 -72q0 -45 -31 -67q31 -23 31 -50q0 -25 -28 -39q28 -21 28 -49
q0 -18 -10 -31t-24 -19t-31 -6q-35 0 -64 21.5t-29 54.5q0 12 4 22q-54 -1 -82.5 12t-28.5 39q0 23 13 35t36 12q65 0 133 -57q40 2 40 13q0 12 -25 28h-8q-33 0 -57.5 20.5t-24.5 55.5q0 28 15 44t36 16q20 0 35 -14.5t15 -37.5t-11 -37q25 5 25 41q0 42 -41 67
q-49 3 -55 3q-10 0 -14.5 7.5t-4.5 16.5q0 23 19 23h3t7 -0.5t9 -0.5q-27 16 -27 39t19 34q-28 15 -28 42q0 41 38 41q7 0 32.5 -3t33.5 -3q9 0 9 8q0 6 -12.5 15t-33.5 17q-14 3 -27 9t-23 15.5t-16 23.5t-6 30q0 33 21 50.5t52 17.5q35 0 61.5 -21.5t26.5 -60.5
q0 -41 -34 -57q34 -22 34 -50q0 -43 -43 -43q-15 0 -37 2.5t-24 2.5zM272 642q0 -13 14 -21.5t31 -8.5q30 0 30 22q0 13 -14.5 22t-30.5 9q-14 0 -22 -6.5t-8 -16.5zM272 246q0 -16 25 -24q5 11 5 24q0 8 -5 12.5t-11 4.5q-4 0 -9 -5t-5 -12zM166 142q0 -10 78 -11
q-42 16 -67 16q-11 0 -11 -5zM322 38q25 0 25 20q0 14 -16.5 23.5t-36.5 9.5q-22 0 -22 -17q0 -16 16 -26t34 -10z" />
    <glyph glyph-name="cent" unicode="&#xa2;" horiz-adv-x="553" 
d="M471 265q13 0 22 -9.5t9 -24.5q0 -12 -15 -43q-25 -53 -58.5 -93t-76.5 -66t-91 -31q0 -10 -1.5 -26.5t-2.5 -23.5q-2 -22 -12.5 -33.5t-23.5 -11.5q-15 0 -26 12.5t-11 34.5q0 23 2 51q-78 16 -118 80.5t-40 149.5q0 91 44.5 168t120.5 101q-1 14 -2 29t-1.5 22t-0.5 10
q0 10 3 18t8 13t11.5 7.5t13.5 2.5q14 0 25.5 -11t13.5 -31q3 -30 4 -53q60 -4 95.5 -40.5t35.5 -93.5q0 -25 -11.5 -39t-27.5 -14q-15 0 -25.5 12t-10.5 35q0 58 -53 66q1 -61 1 -105q0 -140 -6 -254q97 21 166 160q16 31 39 31zM108 237q0 -60 21 -102.5t62 -57.5
q7 123 7 255q0 43 -1 89q-28 -15 -48.5 -44.5t-30.5 -65.5t-10 -74z" />
    <glyph glyph-name="sterling" unicode="&#xa3;" horiz-adv-x="489" 
d="M420 184q7 0 13.5 -3t12 -7.5t8.5 -12t3 -16.5q0 -58 -42 -108t-108 -50q-33 0 -87 20.5t-70 20.5q-6 0 -12 -2t-10.5 -5t-13.5 -8.5t-16 -8.5q-13 -7 -24 -7q-18 0 -30 14t-12 32q0 23 21 36q48 29 62 51.5t14 67.5q0 30 -10 117h-19q-12 0 -21.5 5t-14 12.5t-4.5 16.5
q0 8 4.5 15.5t14 12.5t21.5 5h12q-3 34 -3 62q0 127 54.5 190t130.5 63q73 0 115.5 -38t42.5 -97q0 -38 -15 -71q-13 -27 -37 -27q-14 0 -24.5 10t-10.5 26q0 7 6 24.5t6 29.5q0 29 -21.5 49t-56.5 20q-46 0 -79 -43.5t-33 -135.5q0 -27 3 -63h58q20 0 30.5 -10t10.5 -23
q0 -14 -10.5 -24t-30.5 -10h-51q10 -85 10 -116q0 -61 -20 -102q16 -3 58.5 -19t62.5 -16q60 0 74 87q6 36 38 36z" />
    <glyph glyph-name="currency" unicode="&#xa4;" 
d="M286 486q-11 0 -11 -8q0 -10 15.5 -17.5t42.5 -9.5h14h24q19 0 19 -21q0 -15 -8.5 -20t-34.5 -5q-13 0 -33 3t-23 3q-8 0 -8 -6q0 -11 18.5 -20t46.5 -10h20t16 -7.5t6 -17.5q0 -24 -22 -24h-8q30 -30 30 -72q0 -45 -31 -67q31 -23 31 -50q0 -25 -28 -39q28 -21 28 -49
q0 -18 -10 -31t-24 -19t-31 -6q-35 0 -64 21.5t-29 54.5q0 12 4 22q-54 -1 -82.5 12t-28.5 39q0 23 13 35t36 12q65 0 133 -57q40 2 40 13q0 12 -25 28h-8q-33 0 -57.5 20.5t-24.5 55.5q0 28 15 44t36 16q20 0 35 -14.5t15 -37.5t-11 -37q25 5 25 41q0 42 -41 67
q-49 3 -55 3q-10 0 -14.5 7.5t-4.5 16.5q0 23 19 23h3t7 -0.5t9 -0.5q-27 16 -27 39t19 34q-28 15 -28 42q0 41 38 41q7 0 32.5 -3t33.5 -3q9 0 9 8q0 6 -12.5 15t-33.5 17q-14 3 -27 9t-23 15.5t-16 23.5t-6 30q0 33 21 50.5t52 17.5q35 0 61.5 -21.5t26.5 -60.5
q0 -41 -34 -57q34 -22 34 -50q0 -43 -43 -43q-15 0 -37 2.5t-24 2.5zM272 642q0 -13 14 -21.5t31 -8.5q30 0 30 22q0 13 -14.5 22t-30.5 9q-14 0 -22 -6.5t-8 -16.5zM272 246q0 -16 25 -24q5 11 5 24q0 8 -5 12.5t-11 4.5q-4 0 -9 -5t-5 -12zM166 142q0 -10 78 -11
q-42 16 -67 16q-11 0 -11 -5zM322 38q25 0 25 20q0 14 -16.5 23.5t-36.5 9.5q-22 0 -22 -17q0 -16 16 -26t34 -10z" />
    <glyph glyph-name="yen" unicode="&#xa5;" horiz-adv-x="465" 
d="M428 630q0 -12 -8 -28q-42 -78 -152 -279h43q18 0 28.5 -9.5t10.5 -21.5t-10.5 -20.5t-29.5 -8.5l-61 1l-6 -44l65 -1q18 0 29 -9.5t11 -21.5t-11 -20.5t-30 -8.5l-71 1l-16 -131q-2 -19 -14 -29t-27 -10t-26.5 11t-11.5 30q0 6 15 130h-48q-20 0 -31 9.5t-11 21.5
t11 20.5t31 8.5l55 -1l5 44l-58 1q-20 0 -31 9.5t-11 21.5t11 20.5t31 8.5h40q-43 78 -81.5 176t-38.5 132q0 18 12 29.5t27 11.5q32 0 42 -38q45 -165 100 -260q18 33 139 263q16 30 41 30q15 0 26 -11t11 -28z" />
    <glyph glyph-name="brokenbar" unicode="&#xa6;" 
d="M286 486q-11 0 -11 -8q0 -10 15.5 -17.5t42.5 -9.5h14h24q19 0 19 -21q0 -15 -8.5 -20t-34.5 -5q-13 0 -33 3t-23 3q-8 0 -8 -6q0 -11 18.5 -20t46.5 -10h20t16 -7.5t6 -17.5q0 -24 -22 -24h-8q30 -30 30 -72q0 -45 -31 -67q31 -23 31 -50q0 -25 -28 -39q28 -21 28 -49
q0 -18 -10 -31t-24 -19t-31 -6q-35 0 -64 21.5t-29 54.5q0 12 4 22q-54 -1 -82.5 12t-28.5 39q0 23 13 35t36 12q65 0 133 -57q40 2 40 13q0 12 -25 28h-8q-33 0 -57.5 20.5t-24.5 55.5q0 28 15 44t36 16q20 0 35 -14.5t15 -37.5t-11 -37q25 5 25 41q0 42 -41 67
q-49 3 -55 3q-10 0 -14.5 7.5t-4.5 16.5q0 23 19 23h3t7 -0.5t9 -0.5q-27 16 -27 39t19 34q-28 15 -28 42q0 41 38 41q7 0 32.5 -3t33.5 -3q9 0 9 8q0 6 -12.5 15t-33.5 17q-14 3 -27 9t-23 15.5t-16 23.5t-6 30q0 33 21 50.5t52 17.5q35 0 61.5 -21.5t26.5 -60.5
q0 -41 -34 -57q34 -22 34 -50q0 -43 -43 -43q-15 0 -37 2.5t-24 2.5zM272 642q0 -13 14 -21.5t31 -8.5q30 0 30 22q0 13 -14.5 22t-30.5 9q-14 0 -22 -6.5t-8 -16.5zM272 246q0 -16 25 -24q5 11 5 24q0 8 -5 12.5t-11 4.5q-4 0 -9 -5t-5 -12zM166 142q0 -10 78 -11
q-42 16 -67 16q-11 0 -11 -5zM322 38q25 0 25 20q0 14 -16.5 23.5t-36.5 9.5q-22 0 -22 -17q0 -16 16 -26t34 -10z" />
    <glyph glyph-name="section" unicode="&#xa7;" horiz-adv-x="357" 
d="M319 309q0 -55 -41 -104q32 -44 32 -97q0 -57 -37 -93t-96 -36q-61 0 -100.5 37t-39.5 94q0 30 10 51.5t33 21.5q13 0 23.5 -9.5t10.5 -24.5q0 -2 -2 -17.5t-2 -19.5q0 -26 19 -43.5t47 -17.5t44.5 18t16.5 47q0 20 -13.5 41t-33.5 37t-43.5 36t-43.5 39t-33.5 44.5
t-13.5 53.5q0 59 49 99q-37 41 -37 92q0 45 32.5 74.5t81.5 29.5q75 0 119 -58q10 -13 10 -27t-10 -24.5t-23 -10.5q-16 0 -28 15q-27 33 -67 33q-42 0 -42 -35q0 -24 28 -51t61 -49t61 -61t28 -85zM128 368q0 -15 10.5 -31t22 -26t36 -29t36.5 -29q13 21 13 55
q0 22 -13 42.5t-26.5 32t-40.5 31.5q-2 2 -3 2.5t-2.5 1.5t-2.5 2q-30 -21 -30 -52z" />
    <glyph glyph-name="copyright" unicode="&#xa9;" horiz-adv-x="589" 
d="M306 589q109 0 178.5 -66.5t69.5 -170.5q0 -127 -74.5 -209.5t-189.5 -82.5q-122 0 -192 65.5t-70 179.5q0 122 79.5 203t198.5 81zM311 522q-96 0 -154 -59.5t-58 -157.5q0 -84 48 -130t136 -46q90 0 144.5 61t54.5 162q0 75 -48 122.5t-123 47.5zM366 280q12 16 27 16
q11 0 19.5 -8t8.5 -20t-9 -25q-45 -67 -122 -67q-60 0 -91.5 40.5t-31.5 99.5q0 62 34 110t91 48q38 0 62.5 -23t24.5 -60q0 -16 -9 -24.5t-21 -8.5q-11 0 -19.5 8t-8.5 23q0 26 -29 26q-28 0 -44.5 -27.5t-16.5 -64.5q0 -36 16 -61t47 -25q41 0 72 43z" />
    <glyph glyph-name="ordfeminine" unicode="&#xaa;" 
d="M286 486q-11 0 -11 -8q0 -10 15.5 -17.5t42.5 -9.5h14h24q19 0 19 -21q0 -15 -8.5 -20t-34.5 -5q-13 0 -33 3t-23 3q-8 0 -8 -6q0 -11 18.5 -20t46.5 -10h20t16 -7.5t6 -17.5q0 -24 -22 -24h-8q30 -30 30 -72q0 -45 -31 -67q31 -23 31 -50q0 -25 -28 -39q28 -21 28 -49
q0 -18 -10 -31t-24 -19t-31 -6q-35 0 -64 21.5t-29 54.5q0 12 4 22q-54 -1 -82.5 12t-28.5 39q0 23 13 35t36 12q65 0 133 -57q40 2 40 13q0 12 -25 28h-8q-33 0 -57.5 20.5t-24.5 55.5q0 28 15 44t36 16q20 0 35 -14.5t15 -37.5t-11 -37q25 5 25 41q0 42 -41 67
q-49 3 -55 3q-10 0 -14.5 7.5t-4.5 16.5q0 23 19 23h3t7 -0.5t9 -0.5q-27 16 -27 39t19 34q-28 15 -28 42q0 41 38 41q7 0 32.5 -3t33.5 -3q9 0 9 8q0 6 -12.5 15t-33.5 17q-14 3 -27 9t-23 15.5t-16 23.5t-6 30q0 33 21 50.5t52 17.5q35 0 61.5 -21.5t26.5 -60.5
q0 -41 -34 -57q34 -22 34 -50q0 -43 -43 -43q-15 0 -37 2.5t-24 2.5zM272 642q0 -13 14 -21.5t31 -8.5q30 0 30 22q0 13 -14.5 22t-30.5 9q-14 0 -22 -6.5t-8 -16.5zM272 246q0 -16 25 -24q5 11 5 24q0 8 -5 12.5t-11 4.5q-4 0 -9 -5t-5 -12zM166 142q0 -10 78 -11
q-42 16 -67 16q-11 0 -11 -5zM322 38q25 0 25 20q0 14 -16.5 23.5t-36.5 9.5q-22 0 -22 -17q0 -16 16 -26t34 -10z" />
    <glyph glyph-name="guillemotleft" unicode="&#xab;" horiz-adv-x="401" 
d="M195 225q-9 -9 -21 -9q-17 0 -34 17q-63 63 -88 108q-6 10 -6 16q0 7 7 17q25 38 89 95q15 13 31 13q15 0 24 -10q8 -9 8 -21q0 -18 -16 -34q-37 -37 -46 -48q-5 -9 -5 -11q0 -3 6 -12q9 -14 49 -64q13 -16 13 -32q0 -15 -11 -25zM355 225q-9 -9 -21 -9q-17 0 -34 17
q-63 63 -88 108q-6 10 -6 16q0 11 31 46.5t65 65.5q15 13 31 13q15 0 24 -10q8 -9 8 -21q0 -18 -16 -34q-5 -5 -14 -13.5t-14 -13.5t-10.5 -11t-7.5 -10q-5 -9 -5 -11q0 -3 6 -12q9 -14 49 -64q13 -16 13 -32q0 -15 -11 -25z" />
    <glyph glyph-name="logicalnot" unicode="&#xac;" 
d="M286 486q-11 0 -11 -8q0 -10 15.5 -17.5t42.5 -9.5h14h24q19 0 19 -21q0 -15 -8.5 -20t-34.5 -5q-13 0 -33 3t-23 3q-8 0 -8 -6q0 -11 18.5 -20t46.5 -10h20t16 -7.5t6 -17.5q0 -24 -22 -24h-8q30 -30 30 -72q0 -45 -31 -67q31 -23 31 -50q0 -25 -28 -39q28 -21 28 -49
q0 -18 -10 -31t-24 -19t-31 -6q-35 0 -64 21.5t-29 54.5q0 12 4 22q-54 -1 -82.5 12t-28.5 39q0 23 13 35t36 12q65 0 133 -57q40 2 40 13q0 12 -25 28h-8q-33 0 -57.5 20.5t-24.5 55.5q0 28 15 44t36 16q20 0 35 -14.5t15 -37.5t-11 -37q25 5 25 41q0 42 -41 67
q-49 3 -55 3q-10 0 -14.5 7.5t-4.5 16.5q0 23 19 23h3t7 -0.5t9 -0.5q-27 16 -27 39t19 34q-28 15 -28 42q0 41 38 41q7 0 32.5 -3t33.5 -3q9 0 9 8q0 6 -12.5 15t-33.5 17q-14 3 -27 9t-23 15.5t-16 23.5t-6 30q0 33 21 50.5t52 17.5q35 0 61.5 -21.5t26.5 -60.5
q0 -41 -34 -57q34 -22 34 -50q0 -43 -43 -43q-15 0 -37 2.5t-24 2.5zM272 642q0 -13 14 -21.5t31 -8.5q30 0 30 22q0 13 -14.5 22t-30.5 9q-14 0 -22 -6.5t-8 -16.5zM272 246q0 -16 25 -24q5 11 5 24q0 8 -5 12.5t-11 4.5q-4 0 -9 -5t-5 -12zM166 142q0 -10 78 -11
q-42 16 -67 16q-11 0 -11 -5zM322 38q25 0 25 20q0 14 -16.5 23.5t-36.5 9.5q-22 0 -22 -17q0 -16 16 -26t34 -10z" />
    <glyph glyph-name="uni00AD" unicode="&#xad;" horiz-adv-x="417" 
d="M310 222q-29 0 -87 1t-87 1q-16 0 -26 10t-10 25t10.5 25t26.5 10q29 0 87 -1t87 -1q16 0 26 -10t10 -25t-10.5 -25t-26.5 -10z" />
    <glyph glyph-name="registered" unicode="&#xae;" horiz-adv-x="449" 
d="M236 675q87 0 134.5 -53.5t47.5 -128.5q0 -81 -52.5 -142t-142.5 -61q-91 0 -140 53.5t-49 128.5q0 81 54.5 142t147.5 61zM226 343q62 0 99 46t37 105q0 53 -32.5 90.5t-93.5 37.5q-67 0 -106.5 -44t-39.5 -102q0 -55 35 -94t101 -39zM258 471q6 -14 25 -42q6 -9 6 -17
t-5.5 -14t-13.5 -6q-10 0 -19 10q-20 22 -30 57q-6 0 -13 2l-2 -50q-1 -11 -7 -17.5t-14 -6.5q-9 0 -15.5 7t-5.5 18l6 157q26 18 54 18q27 0 44.5 -17.5t17.5 -45.5q0 -32 -28 -53zM211 543l-2 -40q7 -3 14 -3q9 0 14.5 7t5.5 19q0 9 -5 15t-12 6t-15 -4z" />
    <glyph glyph-name="degree" unicode="&#xb0;" 
d="M286 486q-11 0 -11 -8q0 -10 15.5 -17.5t42.5 -9.5h14h24q19 0 19 -21q0 -15 -8.5 -20t-34.5 -5q-13 0 -33 3t-23 3q-8 0 -8 -6q0 -11 18.5 -20t46.5 -10h20t16 -7.5t6 -17.5q0 -24 -22 -24h-8q30 -30 30 -72q0 -45 -31 -67q31 -23 31 -50q0 -25 -28 -39q28 -21 28 -49
q0 -18 -10 -31t-24 -19t-31 -6q-35 0 -64 21.5t-29 54.5q0 12 4 22q-54 -1 -82.5 12t-28.5 39q0 23 13 35t36 12q65 0 133 -57q40 2 40 13q0 12 -25 28h-8q-33 0 -57.5 20.5t-24.5 55.5q0 28 15 44t36 16q20 0 35 -14.5t15 -37.5t-11 -37q25 5 25 41q0 42 -41 67
q-49 3 -55 3q-10 0 -14.5 7.5t-4.5 16.5q0 23 19 23h3t7 -0.5t9 -0.5q-27 16 -27 39t19 34q-28 15 -28 42q0 41 38 41q7 0 32.5 -3t33.5 -3q9 0 9 8q0 6 -12.5 15t-33.5 17q-14 3 -27 9t-23 15.5t-16 23.5t-6 30q0 33 21 50.5t52 17.5q35 0 61.5 -21.5t26.5 -60.5
q0 -41 -34 -57q34 -22 34 -50q0 -43 -43 -43q-15 0 -37 2.5t-24 2.5zM272 642q0 -13 14 -21.5t31 -8.5q30 0 30 22q0 13 -14.5 22t-30.5 9q-14 0 -22 -6.5t-8 -16.5zM272 246q0 -16 25 -24q5 11 5 24q0 8 -5 12.5t-11 4.5q-4 0 -9 -5t-5 -12zM166 142q0 -10 78 -11
q-42 16 -67 16q-11 0 -11 -5zM322 38q25 0 25 20q0 14 -16.5 23.5t-36.5 9.5q-22 0 -22 -17q0 -16 16 -26t34 -10z" />
    <glyph glyph-name="plusminus" unicode="&#xb1;" 
d="M286 486q-11 0 -11 -8q0 -10 15.5 -17.5t42.5 -9.5h14h24q19 0 19 -21q0 -15 -8.5 -20t-34.5 -5q-13 0 -33 3t-23 3q-8 0 -8 -6q0 -11 18.5 -20t46.5 -10h20t16 -7.5t6 -17.5q0 -24 -22 -24h-8q30 -30 30 -72q0 -45 -31 -67q31 -23 31 -50q0 -25 -28 -39q28 -21 28 -49
q0 -18 -10 -31t-24 -19t-31 -6q-35 0 -64 21.5t-29 54.5q0 12 4 22q-54 -1 -82.5 12t-28.5 39q0 23 13 35t36 12q65 0 133 -57q40 2 40 13q0 12 -25 28h-8q-33 0 -57.5 20.5t-24.5 55.5q0 28 15 44t36 16q20 0 35 -14.5t15 -37.5t-11 -37q25 5 25 41q0 42 -41 67
q-49 3 -55 3q-10 0 -14.5 7.5t-4.5 16.5q0 23 19 23h3t7 -0.5t9 -0.5q-27 16 -27 39t19 34q-28 15 -28 42q0 41 38 41q7 0 32.5 -3t33.5 -3q9 0 9 8q0 6 -12.5 15t-33.5 17q-14 3 -27 9t-23 15.5t-16 23.5t-6 30q0 33 21 50.5t52 17.5q35 0 61.5 -21.5t26.5 -60.5
q0 -41 -34 -57q34 -22 34 -50q0 -43 -43 -43q-15 0 -37 2.5t-24 2.5zM272 642q0 -13 14 -21.5t31 -8.5q30 0 30 22q0 13 -14.5 22t-30.5 9q-14 0 -22 -6.5t-8 -16.5zM272 246q0 -16 25 -24q5 11 5 24q0 8 -5 12.5t-11 4.5q-4 0 -9 -5t-5 -12zM166 142q0 -10 78 -11
q-42 16 -67 16q-11 0 -11 -5zM322 38q25 0 25 20q0 14 -16.5 23.5t-36.5 9.5q-22 0 -22 -17q0 -16 16 -26t34 -10z" />
    <glyph glyph-name="uni00B2" unicode="&#xb2;" 
d="M286 486q-11 0 -11 -8q0 -10 15.5 -17.5t42.5 -9.5h14h24q19 0 19 -21q0 -15 -8.5 -20t-34.5 -5q-13 0 -33 3t-23 3q-8 0 -8 -6q0 -11 18.5 -20t46.5 -10h20t16 -7.5t6 -17.5q0 -24 -22 -24h-8q30 -30 30 -72q0 -45 -31 -67q31 -23 31 -50q0 -25 -28 -39q28 -21 28 -49
q0 -18 -10 -31t-24 -19t-31 -6q-35 0 -64 21.5t-29 54.5q0 12 4 22q-54 -1 -82.5 12t-28.5 39q0 23 13 35t36 12q65 0 133 -57q40 2 40 13q0 12 -25 28h-8q-33 0 -57.5 20.5t-24.5 55.5q0 28 15 44t36 16q20 0 35 -14.5t15 -37.5t-11 -37q25 5 25 41q0 42 -41 67
q-49 3 -55 3q-10 0 -14.5 7.5t-4.5 16.5q0 23 19 23h3t7 -0.5t9 -0.5q-27 16 -27 39t19 34q-28 15 -28 42q0 41 38 41q7 0 32.5 -3t33.5 -3q9 0 9 8q0 6 -12.5 15t-33.5 17q-14 3 -27 9t-23 15.5t-16 23.5t-6 30q0 33 21 50.5t52 17.5q35 0 61.5 -21.5t26.5 -60.5
q0 -41 -34 -57q34 -22 34 -50q0 -43 -43 -43q-15 0 -37 2.5t-24 2.5zM272 642q0 -13 14 -21.5t31 -8.5q30 0 30 22q0 13 -14.5 22t-30.5 9q-14 0 -22 -6.5t-8 -16.5zM272 246q0 -16 25 -24q5 11 5 24q0 8 -5 12.5t-11 4.5q-4 0 -9 -5t-5 -12zM166 142q0 -10 78 -11
q-42 16 -67 16q-11 0 -11 -5zM322 38q25 0 25 20q0 14 -16.5 23.5t-36.5 9.5q-22 0 -22 -17q0 -16 16 -26t34 -10z" />
    <glyph glyph-name="uni00B3" unicode="&#xb3;" 
d="M286 486q-11 0 -11 -8q0 -10 15.5 -17.5t42.5 -9.5h14h24q19 0 19 -21q0 -15 -8.5 -20t-34.5 -5q-13 0 -33 3t-23 3q-8 0 -8 -6q0 -11 18.5 -20t46.5 -10h20t16 -7.5t6 -17.5q0 -24 -22 -24h-8q30 -30 30 -72q0 -45 -31 -67q31 -23 31 -50q0 -25 -28 -39q28 -21 28 -49
q0 -18 -10 -31t-24 -19t-31 -6q-35 0 -64 21.5t-29 54.5q0 12 4 22q-54 -1 -82.5 12t-28.5 39q0 23 13 35t36 12q65 0 133 -57q40 2 40 13q0 12 -25 28h-8q-33 0 -57.5 20.5t-24.5 55.5q0 28 15 44t36 16q20 0 35 -14.5t15 -37.5t-11 -37q25 5 25 41q0 42 -41 67
q-49 3 -55 3q-10 0 -14.5 7.5t-4.5 16.5q0 23 19 23h3t7 -0.5t9 -0.5q-27 16 -27 39t19 34q-28 15 -28 42q0 41 38 41q7 0 32.5 -3t33.5 -3q9 0 9 8q0 6 -12.5 15t-33.5 17q-14 3 -27 9t-23 15.5t-16 23.5t-6 30q0 33 21 50.5t52 17.5q35 0 61.5 -21.5t26.5 -60.5
q0 -41 -34 -57q34 -22 34 -50q0 -43 -43 -43q-15 0 -37 2.5t-24 2.5zM272 642q0 -13 14 -21.5t31 -8.5q30 0 30 22q0 13 -14.5 22t-30.5 9q-14 0 -22 -6.5t-8 -16.5zM272 246q0 -16 25 -24q5 11 5 24q0 8 -5 12.5t-11 4.5q-4 0 -9 -5t-5 -12zM166 142q0 -10 78 -11
q-42 16 -67 16q-11 0 -11 -5zM322 38q25 0 25 20q0 14 -16.5 23.5t-36.5 9.5q-22 0 -22 -17q0 -16 16 -26t34 -10z" />
    <glyph glyph-name="paragraph" unicode="&#xb6;" horiz-adv-x="431" 
d="M446 641q16 0 25.5 -10.5t9.5 -24.5q0 -6 -1.5 -11t-4 -8.5t-6 -7t-7.5 -5.5t-8.5 -4t-9.5 -3t-10 -1.5t-10 -0.5q-26 0 -56 5q-4 -235 -8 -308q-7 -137 -51 -210.5t-123 -73.5q-39 0 -71.5 23.5t-48.5 55t-16 59.5q0 17 11 27.5t26 10.5q28 0 38 -32q21 -70 68 -70
q36 0 60 56.5t27 155.5q8 268 9 325q-24 6 -31 6q-23 0 -23 -27q0 -134 -8.5 -202t-29.5 -96.5t-63 -28.5q-58 0 -81 53t-23 184q0 93 43 146t118 53q40 0 116 -19.5t105 -19.5q3 0 16.5 1.5t17.5 1.5z" />
    <glyph glyph-name="periodcentered" unicode="&#xb7;" 
d="M286 486q-11 0 -11 -8q0 -10 15.5 -17.5t42.5 -9.5h14h24q19 0 19 -21q0 -15 -8.5 -20t-34.5 -5q-13 0 -33 3t-23 3q-8 0 -8 -6q0 -11 18.5 -20t46.5 -10h20t16 -7.5t6 -17.5q0 -24 -22 -24h-8q30 -30 30 -72q0 -45 -31 -67q31 -23 31 -50q0 -25 -28 -39q28 -21 28 -49
q0 -18 -10 -31t-24 -19t-31 -6q-35 0 -64 21.5t-29 54.5q0 12 4 22q-54 -1 -82.5 12t-28.5 39q0 23 13 35t36 12q65 0 133 -57q40 2 40 13q0 12 -25 28h-8q-33 0 -57.5 20.5t-24.5 55.5q0 28 15 44t36 16q20 0 35 -14.5t15 -37.5t-11 -37q25 5 25 41q0 42 -41 67
q-49 3 -55 3q-10 0 -14.5 7.5t-4.5 16.5q0 23 19 23h3t7 -0.5t9 -0.5q-27 16 -27 39t19 34q-28 15 -28 42q0 41 38 41q7 0 32.5 -3t33.5 -3q9 0 9 8q0 6 -12.5 15t-33.5 17q-14 3 -27 9t-23 15.5t-16 23.5t-6 30q0 33 21 50.5t52 17.5q35 0 61.5 -21.5t26.5 -60.5
q0 -41 -34 -57q34 -22 34 -50q0 -43 -43 -43q-15 0 -37 2.5t-24 2.5zM272 642q0 -13 14 -21.5t31 -8.5q30 0 30 22q0 13 -14.5 22t-30.5 9q-14 0 -22 -6.5t-8 -16.5zM272 246q0 -16 25 -24q5 11 5 24q0 8 -5 12.5t-11 4.5q-4 0 -9 -5t-5 -12zM166 142q0 -10 78 -11
q-42 16 -67 16q-11 0 -11 -5zM322 38q25 0 25 20q0 14 -16.5 23.5t-36.5 9.5q-22 0 -22 -17q0 -16 16 -26t34 -10z" />
    <glyph glyph-name="uni00B9" unicode="&#xb9;" 
d="M286 486q-11 0 -11 -8q0 -10 15.5 -17.5t42.5 -9.5h14h24q19 0 19 -21q0 -15 -8.5 -20t-34.5 -5q-13 0 -33 3t-23 3q-8 0 -8 -6q0 -11 18.5 -20t46.5 -10h20t16 -7.5t6 -17.5q0 -24 -22 -24h-8q30 -30 30 -72q0 -45 -31 -67q31 -23 31 -50q0 -25 -28 -39q28 -21 28 -49
q0 -18 -10 -31t-24 -19t-31 -6q-35 0 -64 21.5t-29 54.5q0 12 4 22q-54 -1 -82.5 12t-28.5 39q0 23 13 35t36 12q65 0 133 -57q40 2 40 13q0 12 -25 28h-8q-33 0 -57.5 20.5t-24.5 55.5q0 28 15 44t36 16q20 0 35 -14.5t15 -37.5t-11 -37q25 5 25 41q0 42 -41 67
q-49 3 -55 3q-10 0 -14.5 7.5t-4.5 16.5q0 23 19 23h3t7 -0.5t9 -0.5q-27 16 -27 39t19 34q-28 15 -28 42q0 41 38 41q7 0 32.5 -3t33.5 -3q9 0 9 8q0 6 -12.5 15t-33.5 17q-14 3 -27 9t-23 15.5t-16 23.5t-6 30q0 33 21 50.5t52 17.5q35 0 61.5 -21.5t26.5 -60.5
q0 -41 -34 -57q34 -22 34 -50q0 -43 -43 -43q-15 0 -37 2.5t-24 2.5zM272 642q0 -13 14 -21.5t31 -8.5q30 0 30 22q0 13 -14.5 22t-30.5 9q-14 0 -22 -6.5t-8 -16.5zM272 246q0 -16 25 -24q5 11 5 24q0 8 -5 12.5t-11 4.5q-4 0 -9 -5t-5 -12zM166 142q0 -10 78 -11
q-42 16 -67 16q-11 0 -11 -5zM322 38q25 0 25 20q0 14 -16.5 23.5t-36.5 9.5q-22 0 -22 -17q0 -16 16 -26t34 -10z" />
    <glyph glyph-name="ordmasculine" unicode="&#xba;" 
d="M286 486q-11 0 -11 -8q0 -10 15.5 -17.5t42.5 -9.5h14h24q19 0 19 -21q0 -15 -8.5 -20t-34.5 -5q-13 0 -33 3t-23 3q-8 0 -8 -6q0 -11 18.5 -20t46.5 -10h20t16 -7.5t6 -17.5q0 -24 -22 -24h-8q30 -30 30 -72q0 -45 -31 -67q31 -23 31 -50q0 -25 -28 -39q28 -21 28 -49
q0 -18 -10 -31t-24 -19t-31 -6q-35 0 -64 21.5t-29 54.5q0 12 4 22q-54 -1 -82.5 12t-28.5 39q0 23 13 35t36 12q65 0 133 -57q40 2 40 13q0 12 -25 28h-8q-33 0 -57.5 20.5t-24.5 55.5q0 28 15 44t36 16q20 0 35 -14.5t15 -37.5t-11 -37q25 5 25 41q0 42 -41 67
q-49 3 -55 3q-10 0 -14.5 7.5t-4.5 16.5q0 23 19 23h3t7 -0.5t9 -0.5q-27 16 -27 39t19 34q-28 15 -28 42q0 41 38 41q7 0 32.5 -3t33.5 -3q9 0 9 8q0 6 -12.5 15t-33.5 17q-14 3 -27 9t-23 15.5t-16 23.5t-6 30q0 33 21 50.5t52 17.5q35 0 61.5 -21.5t26.5 -60.5
q0 -41 -34 -57q34 -22 34 -50q0 -43 -43 -43q-15 0 -37 2.5t-24 2.5zM272 642q0 -13 14 -21.5t31 -8.5q30 0 30 22q0 13 -14.5 22t-30.5 9q-14 0 -22 -6.5t-8 -16.5zM272 246q0 -16 25 -24q5 11 5 24q0 8 -5 12.5t-11 4.5q-4 0 -9 -5t-5 -12zM166 142q0 -10 78 -11
q-42 16 -67 16q-11 0 -11 -5zM322 38q25 0 25 20q0 14 -16.5 23.5t-36.5 9.5q-22 0 -22 -17q0 -16 16 -26t34 -10z" />
    <glyph glyph-name="guillemotright" unicode="&#xbb;" horiz-adv-x="481" 
d="M136 225q-11 10 -11 25q0 16 13 32q40 50 49 64q6 9 6 12q0 2 -5 11q-3 5 -9.5 12t-19 19t-17.5 17q-16 16 -16 34q0 12 8 21q9 10 24 10q16 0 31 -13q58 -51 89 -95q7 -10 7 -17q0 -6 -6 -16q-25 -45 -88 -108q-17 -17 -34 -17q-12 0 -21 9zM296 225q-11 10 -11 25
q0 16 13 32q40 50 49 64q7 10 7 13t-6 10q-9 11 -46 48q-16 16 -16 34q0 12 8 21q9 10 24 10q16 0 31 -13q58 -51 89 -95q7 -10 7 -17q0 -6 -6 -16q-25 -45 -88 -108q-17 -17 -34 -17q-12 0 -21 9z" />
    <glyph glyph-name="onequarter" unicode="&#xbc;" 
d="M286 486q-11 0 -11 -8q0 -10 15.5 -17.5t42.5 -9.5h14h24q19 0 19 -21q0 -15 -8.5 -20t-34.5 -5q-13 0 -33 3t-23 3q-8 0 -8 -6q0 -11 18.5 -20t46.5 -10h20t16 -7.5t6 -17.5q0 -24 -22 -24h-8q30 -30 30 -72q0 -45 -31 -67q31 -23 31 -50q0 -25 -28 -39q28 -21 28 -49
q0 -18 -10 -31t-24 -19t-31 -6q-35 0 -64 21.5t-29 54.5q0 12 4 22q-54 -1 -82.5 12t-28.5 39q0 23 13 35t36 12q65 0 133 -57q40 2 40 13q0 12 -25 28h-8q-33 0 -57.5 20.5t-24.5 55.5q0 28 15 44t36 16q20 0 35 -14.5t15 -37.5t-11 -37q25 5 25 41q0 42 -41 67
q-49 3 -55 3q-10 0 -14.5 7.5t-4.5 16.5q0 23 19 23h3t7 -0.5t9 -0.5q-27 16 -27 39t19 34q-28 15 -28 42q0 41 38 41q7 0 32.5 -3t33.5 -3q9 0 9 8q0 6 -12.5 15t-33.5 17q-14 3 -27 9t-23 15.5t-16 23.5t-6 30q0 33 21 50.5t52 17.5q35 0 61.5 -21.5t26.5 -60.5
q0 -41 -34 -57q34 -22 34 -50q0 -43 -43 -43q-15 0 -37 2.5t-24 2.5zM272 642q0 -13 14 -21.5t31 -8.5q30 0 30 22q0 13 -14.5 22t-30.5 9q-14 0 -22 -6.5t-8 -16.5zM272 246q0 -16 25 -24q5 11 5 24q0 8 -5 12.5t-11 4.5q-4 0 -9 -5t-5 -12zM166 142q0 -10 78 -11
q-42 16 -67 16q-11 0 -11 -5zM322 38q25 0 25 20q0 14 -16.5 23.5t-36.5 9.5q-22 0 -22 -17q0 -16 16 -26t34 -10z" />
    <glyph glyph-name="onehalf" unicode="&#xbd;" 
d="M286 486q-11 0 -11 -8q0 -10 15.5 -17.5t42.5 -9.5h14h24q19 0 19 -21q0 -15 -8.5 -20t-34.5 -5q-13 0 -33 3t-23 3q-8 0 -8 -6q0 -11 18.5 -20t46.5 -10h20t16 -7.5t6 -17.5q0 -24 -22 -24h-8q30 -30 30 -72q0 -45 -31 -67q31 -23 31 -50q0 -25 -28 -39q28 -21 28 -49
q0 -18 -10 -31t-24 -19t-31 -6q-35 0 -64 21.5t-29 54.5q0 12 4 22q-54 -1 -82.5 12t-28.5 39q0 23 13 35t36 12q65 0 133 -57q40 2 40 13q0 12 -25 28h-8q-33 0 -57.5 20.5t-24.5 55.5q0 28 15 44t36 16q20 0 35 -14.5t15 -37.5t-11 -37q25 5 25 41q0 42 -41 67
q-49 3 -55 3q-10 0 -14.5 7.5t-4.5 16.5q0 23 19 23h3t7 -0.5t9 -0.5q-27 16 -27 39t19 34q-28 15 -28 42q0 41 38 41q7 0 32.5 -3t33.5 -3q9 0 9 8q0 6 -12.5 15t-33.5 17q-14 3 -27 9t-23 15.5t-16 23.5t-6 30q0 33 21 50.5t52 17.5q35 0 61.5 -21.5t26.5 -60.5
q0 -41 -34 -57q34 -22 34 -50q0 -43 -43 -43q-15 0 -37 2.5t-24 2.5zM272 642q0 -13 14 -21.5t31 -8.5q30 0 30 22q0 13 -14.5 22t-30.5 9q-14 0 -22 -6.5t-8 -16.5zM272 246q0 -16 25 -24q5 11 5 24q0 8 -5 12.5t-11 4.5q-4 0 -9 -5t-5 -12zM166 142q0 -10 78 -11
q-42 16 -67 16q-11 0 -11 -5zM322 38q25 0 25 20q0 14 -16.5 23.5t-36.5 9.5q-22 0 -22 -17q0 -16 16 -26t34 -10z" />
    <glyph glyph-name="threequarters" unicode="&#xbe;" 
d="M286 486q-11 0 -11 -8q0 -10 15.5 -17.5t42.5 -9.5h14h24q19 0 19 -21q0 -15 -8.5 -20t-34.5 -5q-13 0 -33 3t-23 3q-8 0 -8 -6q0 -11 18.5 -20t46.5 -10h20t16 -7.5t6 -17.5q0 -24 -22 -24h-8q30 -30 30 -72q0 -45 -31 -67q31 -23 31 -50q0 -25 -28 -39q28 -21 28 -49
q0 -18 -10 -31t-24 -19t-31 -6q-35 0 -64 21.5t-29 54.5q0 12 4 22q-54 -1 -82.5 12t-28.5 39q0 23 13 35t36 12q65 0 133 -57q40 2 40 13q0 12 -25 28h-8q-33 0 -57.5 20.5t-24.5 55.5q0 28 15 44t36 16q20 0 35 -14.5t15 -37.5t-11 -37q25 5 25 41q0 42 -41 67
q-49 3 -55 3q-10 0 -14.5 7.5t-4.5 16.5q0 23 19 23h3t7 -0.5t9 -0.5q-27 16 -27 39t19 34q-28 15 -28 42q0 41 38 41q7 0 32.5 -3t33.5 -3q9 0 9 8q0 6 -12.5 15t-33.5 17q-14 3 -27 9t-23 15.5t-16 23.5t-6 30q0 33 21 50.5t52 17.5q35 0 61.5 -21.5t26.5 -60.5
q0 -41 -34 -57q34 -22 34 -50q0 -43 -43 -43q-15 0 -37 2.5t-24 2.5zM272 642q0 -13 14 -21.5t31 -8.5q30 0 30 22q0 13 -14.5 22t-30.5 9q-14 0 -22 -6.5t-8 -16.5zM272 246q0 -16 25 -24q5 11 5 24q0 8 -5 12.5t-11 4.5q-4 0 -9 -5t-5 -12zM166 142q0 -10 78 -11
q-42 16 -67 16q-11 0 -11 -5zM322 38q25 0 25 20q0 14 -16.5 23.5t-36.5 9.5q-22 0 -22 -17q0 -16 16 -26t34 -10z" />
    <glyph glyph-name="questiondown" unicode="&#xbf;" 
d="M286 486q-11 0 -11 -8q0 -10 15.5 -17.5t42.5 -9.5h14h24q19 0 19 -21q0 -15 -8.5 -20t-34.5 -5q-13 0 -33 3t-23 3q-8 0 -8 -6q0 -11 18.5 -20t46.5 -10h20t16 -7.5t6 -17.5q0 -24 -22 -24h-8q30 -30 30 -72q0 -45 -31 -67q31 -23 31 -50q0 -25 -28 -39q28 -21 28 -49
q0 -18 -10 -31t-24 -19t-31 -6q-35 0 -64 21.5t-29 54.5q0 12 4 22q-54 -1 -82.5 12t-28.5 39q0 23 13 35t36 12q65 0 133 -57q40 2 40 13q0 12 -25 28h-8q-33 0 -57.5 20.5t-24.5 55.5q0 28 15 44t36 16q20 0 35 -14.5t15 -37.5t-11 -37q25 5 25 41q0 42 -41 67
q-49 3 -55 3q-10 0 -14.5 7.5t-4.5 16.5q0 23 19 23h3t7 -0.5t9 -0.5q-27 16 -27 39t19 34q-28 15 -28 42q0 41 38 41q7 0 32.5 -3t33.5 -3q9 0 9 8q0 6 -12.5 15t-33.5 17q-14 3 -27 9t-23 15.5t-16 23.5t-6 30q0 33 21 50.5t52 17.5q35 0 61.5 -21.5t26.5 -60.5
q0 -41 -34 -57q34 -22 34 -50q0 -43 -43 -43q-15 0 -37 2.5t-24 2.5zM272 642q0 -13 14 -21.5t31 -8.5q30 0 30 22q0 13 -14.5 22t-30.5 9q-14 0 -22 -6.5t-8 -16.5zM272 246q0 -16 25 -24q5 11 5 24q0 8 -5 12.5t-11 4.5q-4 0 -9 -5t-5 -12zM166 142q0 -10 78 -11
q-42 16 -67 16q-11 0 -11 -5zM322 38q25 0 25 20q0 14 -16.5 23.5t-36.5 9.5q-22 0 -22 -17q0 -16 16 -26t34 -10z" />
    <glyph glyph-name="Agrave" unicode="&#xc0;" 
d="M286 486q-11 0 -11 -8q0 -10 15.5 -17.5t42.5 -9.5h14h24q19 0 19 -21q0 -15 -8.5 -20t-34.5 -5q-13 0 -33 3t-23 3q-8 0 -8 -6q0 -11 18.5 -20t46.5 -10h20t16 -7.5t6 -17.5q0 -24 -22 -24h-8q30 -30 30 -72q0 -45 -31 -67q31 -23 31 -50q0 -25 -28 -39q28 -21 28 -49
q0 -18 -10 -31t-24 -19t-31 -6q-35 0 -64 21.5t-29 54.5q0 12 4 22q-54 -1 -82.5 12t-28.5 39q0 23 13 35t36 12q65 0 133 -57q40 2 40 13q0 12 -25 28h-8q-33 0 -57.5 20.5t-24.5 55.5q0 28 15 44t36 16q20 0 35 -14.5t15 -37.5t-11 -37q25 5 25 41q0 42 -41 67
q-49 3 -55 3q-10 0 -14.5 7.5t-4.5 16.5q0 23 19 23h3t7 -0.5t9 -0.5q-27 16 -27 39t19 34q-28 15 -28 42q0 41 38 41q7 0 32.5 -3t33.5 -3q9 0 9 8q0 6 -12.5 15t-33.5 17q-14 3 -27 9t-23 15.5t-16 23.5t-6 30q0 33 21 50.5t52 17.5q35 0 61.5 -21.5t26.5 -60.5
q0 -41 -34 -57q34 -22 34 -50q0 -43 -43 -43q-15 0 -37 2.5t-24 2.5zM272 642q0 -13 14 -21.5t31 -8.5q30 0 30 22q0 13 -14.5 22t-30.5 9q-14 0 -22 -6.5t-8 -16.5zM272 246q0 -16 25 -24q5 11 5 24q0 8 -5 12.5t-11 4.5q-4 0 -9 -5t-5 -12zM166 142q0 -10 78 -11
q-42 16 -67 16q-11 0 -11 -5zM322 38q25 0 25 20q0 14 -16.5 23.5t-36.5 9.5q-22 0 -22 -17q0 -16 16 -26t34 -10z" />
    <glyph glyph-name="Aacute" unicode="&#xc1;" 
d="M286 486q-11 0 -11 -8q0 -10 15.5 -17.5t42.5 -9.5h14h24q19 0 19 -21q0 -15 -8.5 -20t-34.5 -5q-13 0 -33 3t-23 3q-8 0 -8 -6q0 -11 18.5 -20t46.5 -10h20t16 -7.5t6 -17.5q0 -24 -22 -24h-8q30 -30 30 -72q0 -45 -31 -67q31 -23 31 -50q0 -25 -28 -39q28 -21 28 -49
q0 -18 -10 -31t-24 -19t-31 -6q-35 0 -64 21.5t-29 54.5q0 12 4 22q-54 -1 -82.5 12t-28.5 39q0 23 13 35t36 12q65 0 133 -57q40 2 40 13q0 12 -25 28h-8q-33 0 -57.5 20.5t-24.5 55.5q0 28 15 44t36 16q20 0 35 -14.5t15 -37.5t-11 -37q25 5 25 41q0 42 -41 67
q-49 3 -55 3q-10 0 -14.5 7.5t-4.5 16.5q0 23 19 23h3t7 -0.5t9 -0.5q-27 16 -27 39t19 34q-28 15 -28 42q0 41 38 41q7 0 32.5 -3t33.5 -3q9 0 9 8q0 6 -12.5 15t-33.5 17q-14 3 -27 9t-23 15.5t-16 23.5t-6 30q0 33 21 50.5t52 17.5q35 0 61.5 -21.5t26.5 -60.5
q0 -41 -34 -57q34 -22 34 -50q0 -43 -43 -43q-15 0 -37 2.5t-24 2.5zM272 642q0 -13 14 -21.5t31 -8.5q30 0 30 22q0 13 -14.5 22t-30.5 9q-14 0 -22 -6.5t-8 -16.5zM272 246q0 -16 25 -24q5 11 5 24q0 8 -5 12.5t-11 4.5q-4 0 -9 -5t-5 -12zM166 142q0 -10 78 -11
q-42 16 -67 16q-11 0 -11 -5zM322 38q25 0 25 20q0 14 -16.5 23.5t-36.5 9.5q-22 0 -22 -17q0 -16 16 -26t34 -10z" />
    <glyph glyph-name="Acircumflex" unicode="&#xc2;" 
d="M286 486q-11 0 -11 -8q0 -10 15.5 -17.5t42.5 -9.5h14h24q19 0 19 -21q0 -15 -8.5 -20t-34.5 -5q-13 0 -33 3t-23 3q-8 0 -8 -6q0 -11 18.5 -20t46.5 -10h20t16 -7.5t6 -17.5q0 -24 -22 -24h-8q30 -30 30 -72q0 -45 -31 -67q31 -23 31 -50q0 -25 -28 -39q28 -21 28 -49
q0 -18 -10 -31t-24 -19t-31 -6q-35 0 -64 21.5t-29 54.5q0 12 4 22q-54 -1 -82.5 12t-28.5 39q0 23 13 35t36 12q65 0 133 -57q40 2 40 13q0 12 -25 28h-8q-33 0 -57.5 20.5t-24.5 55.5q0 28 15 44t36 16q20 0 35 -14.5t15 -37.5t-11 -37q25 5 25 41q0 42 -41 67
q-49 3 -55 3q-10 0 -14.5 7.5t-4.5 16.5q0 23 19 23h3t7 -0.5t9 -0.5q-27 16 -27 39t19 34q-28 15 -28 42q0 41 38 41q7 0 32.5 -3t33.5 -3q9 0 9 8q0 6 -12.5 15t-33.5 17q-14 3 -27 9t-23 15.5t-16 23.5t-6 30q0 33 21 50.5t52 17.5q35 0 61.5 -21.5t26.5 -60.5
q0 -41 -34 -57q34 -22 34 -50q0 -43 -43 -43q-15 0 -37 2.5t-24 2.5zM272 642q0 -13 14 -21.5t31 -8.5q30 0 30 22q0 13 -14.5 22t-30.5 9q-14 0 -22 -6.5t-8 -16.5zM272 246q0 -16 25 -24q5 11 5 24q0 8 -5 12.5t-11 4.5q-4 0 -9 -5t-5 -12zM166 142q0 -10 78 -11
q-42 16 -67 16q-11 0 -11 -5zM322 38q25 0 25 20q0 14 -16.5 23.5t-36.5 9.5q-22 0 -22 -17q0 -16 16 -26t34 -10z" />
    <glyph glyph-name="Atilde" unicode="&#xc3;" 
d="M286 486q-11 0 -11 -8q0 -10 15.5 -17.5t42.5 -9.5h14h24q19 0 19 -21q0 -15 -8.5 -20t-34.5 -5q-13 0 -33 3t-23 3q-8 0 -8 -6q0 -11 18.5 -20t46.5 -10h20t16 -7.5t6 -17.5q0 -24 -22 -24h-8q30 -30 30 -72q0 -45 -31 -67q31 -23 31 -50q0 -25 -28 -39q28 -21 28 -49
q0 -18 -10 -31t-24 -19t-31 -6q-35 0 -64 21.5t-29 54.5q0 12 4 22q-54 -1 -82.5 12t-28.5 39q0 23 13 35t36 12q65 0 133 -57q40 2 40 13q0 12 -25 28h-8q-33 0 -57.5 20.5t-24.5 55.5q0 28 15 44t36 16q20 0 35 -14.5t15 -37.5t-11 -37q25 5 25 41q0 42 -41 67
q-49 3 -55 3q-10 0 -14.5 7.5t-4.5 16.5q0 23 19 23h3t7 -0.5t9 -0.5q-27 16 -27 39t19 34q-28 15 -28 42q0 41 38 41q7 0 32.5 -3t33.5 -3q9 0 9 8q0 6 -12.5 15t-33.5 17q-14 3 -27 9t-23 15.5t-16 23.5t-6 30q0 33 21 50.5t52 17.5q35 0 61.5 -21.5t26.5 -60.5
q0 -41 -34 -57q34 -22 34 -50q0 -43 -43 -43q-15 0 -37 2.5t-24 2.5zM272 642q0 -13 14 -21.5t31 -8.5q30 0 30 22q0 13 -14.5 22t-30.5 9q-14 0 -22 -6.5t-8 -16.5zM272 246q0 -16 25 -24q5 11 5 24q0 8 -5 12.5t-11 4.5q-4 0 -9 -5t-5 -12zM166 142q0 -10 78 -11
q-42 16 -67 16q-11 0 -11 -5zM322 38q25 0 25 20q0 14 -16.5 23.5t-36.5 9.5q-22 0 -22 -17q0 -16 16 -26t34 -10z" />
    <glyph glyph-name="Adieresis" unicode="&#xc4;" 
d="M286 486q-11 0 -11 -8q0 -10 15.5 -17.5t42.5 -9.5h14h24q19 0 19 -21q0 -15 -8.5 -20t-34.5 -5q-13 0 -33 3t-23 3q-8 0 -8 -6q0 -11 18.5 -20t46.5 -10h20t16 -7.5t6 -17.5q0 -24 -22 -24h-8q30 -30 30 -72q0 -45 -31 -67q31 -23 31 -50q0 -25 -28 -39q28 -21 28 -49
q0 -18 -10 -31t-24 -19t-31 -6q-35 0 -64 21.5t-29 54.5q0 12 4 22q-54 -1 -82.5 12t-28.5 39q0 23 13 35t36 12q65 0 133 -57q40 2 40 13q0 12 -25 28h-8q-33 0 -57.5 20.5t-24.5 55.5q0 28 15 44t36 16q20 0 35 -14.5t15 -37.5t-11 -37q25 5 25 41q0 42 -41 67
q-49 3 -55 3q-10 0 -14.5 7.5t-4.5 16.5q0 23 19 23h3t7 -0.5t9 -0.5q-27 16 -27 39t19 34q-28 15 -28 42q0 41 38 41q7 0 32.5 -3t33.5 -3q9 0 9 8q0 6 -12.5 15t-33.5 17q-14 3 -27 9t-23 15.5t-16 23.5t-6 30q0 33 21 50.5t52 17.5q35 0 61.5 -21.5t26.5 -60.5
q0 -41 -34 -57q34 -22 34 -50q0 -43 -43 -43q-15 0 -37 2.5t-24 2.5zM272 642q0 -13 14 -21.5t31 -8.5q30 0 30 22q0 13 -14.5 22t-30.5 9q-14 0 -22 -6.5t-8 -16.5zM272 246q0 -16 25 -24q5 11 5 24q0 8 -5 12.5t-11 4.5q-4 0 -9 -5t-5 -12zM166 142q0 -10 78 -11
q-42 16 -67 16q-11 0 -11 -5zM322 38q25 0 25 20q0 14 -16.5 23.5t-36.5 9.5q-22 0 -22 -17q0 -16 16 -26t34 -10z" />
    <glyph glyph-name="Aring" unicode="&#xc5;" 
d="M286 486q-11 0 -11 -8q0 -10 15.5 -17.5t42.5 -9.5h14h24q19 0 19 -21q0 -15 -8.5 -20t-34.5 -5q-13 0 -33 3t-23 3q-8 0 -8 -6q0 -11 18.5 -20t46.5 -10h20t16 -7.5t6 -17.5q0 -24 -22 -24h-8q30 -30 30 -72q0 -45 -31 -67q31 -23 31 -50q0 -25 -28 -39q28 -21 28 -49
q0 -18 -10 -31t-24 -19t-31 -6q-35 0 -64 21.5t-29 54.5q0 12 4 22q-54 -1 -82.5 12t-28.5 39q0 23 13 35t36 12q65 0 133 -57q40 2 40 13q0 12 -25 28h-8q-33 0 -57.5 20.5t-24.5 55.5q0 28 15 44t36 16q20 0 35 -14.5t15 -37.5t-11 -37q25 5 25 41q0 42 -41 67
q-49 3 -55 3q-10 0 -14.5 7.5t-4.5 16.5q0 23 19 23h3t7 -0.5t9 -0.5q-27 16 -27 39t19 34q-28 15 -28 42q0 41 38 41q7 0 32.5 -3t33.5 -3q9 0 9 8q0 6 -12.5 15t-33.5 17q-14 3 -27 9t-23 15.5t-16 23.5t-6 30q0 33 21 50.5t52 17.5q35 0 61.5 -21.5t26.5 -60.5
q0 -41 -34 -57q34 -22 34 -50q0 -43 -43 -43q-15 0 -37 2.5t-24 2.5zM272 642q0 -13 14 -21.5t31 -8.5q30 0 30 22q0 13 -14.5 22t-30.5 9q-14 0 -22 -6.5t-8 -16.5zM272 246q0 -16 25 -24q5 11 5 24q0 8 -5 12.5t-11 4.5q-4 0 -9 -5t-5 -12zM166 142q0 -10 78 -11
q-42 16 -67 16q-11 0 -11 -5zM322 38q25 0 25 20q0 14 -16.5 23.5t-36.5 9.5q-22 0 -22 -17q0 -16 16 -26t34 -10z" />
    <glyph glyph-name="AE" unicode="&#xc6;" 
d="M286 486q-11 0 -11 -8q0 -10 15.5 -17.5t42.5 -9.5h14h24q19 0 19 -21q0 -15 -8.5 -20t-34.5 -5q-13 0 -33 3t-23 3q-8 0 -8 -6q0 -11 18.5 -20t46.5 -10h20t16 -7.5t6 -17.5q0 -24 -22 -24h-8q30 -30 30 -72q0 -45 -31 -67q31 -23 31 -50q0 -25 -28 -39q28 -21 28 -49
q0 -18 -10 -31t-24 -19t-31 -6q-35 0 -64 21.5t-29 54.5q0 12 4 22q-54 -1 -82.5 12t-28.5 39q0 23 13 35t36 12q65 0 133 -57q40 2 40 13q0 12 -25 28h-8q-33 0 -57.5 20.5t-24.5 55.5q0 28 15 44t36 16q20 0 35 -14.5t15 -37.5t-11 -37q25 5 25 41q0 42 -41 67
q-49 3 -55 3q-10 0 -14.5 7.5t-4.5 16.5q0 23 19 23h3t7 -0.5t9 -0.5q-27 16 -27 39t19 34q-28 15 -28 42q0 41 38 41q7 0 32.5 -3t33.5 -3q9 0 9 8q0 6 -12.5 15t-33.5 17q-14 3 -27 9t-23 15.5t-16 23.5t-6 30q0 33 21 50.5t52 17.5q35 0 61.5 -21.5t26.5 -60.5
q0 -41 -34 -57q34 -22 34 -50q0 -43 -43 -43q-15 0 -37 2.5t-24 2.5zM272 642q0 -13 14 -21.5t31 -8.5q30 0 30 22q0 13 -14.5 22t-30.5 9q-14 0 -22 -6.5t-8 -16.5zM272 246q0 -16 25 -24q5 11 5 24q0 8 -5 12.5t-11 4.5q-4 0 -9 -5t-5 -12zM166 142q0 -10 78 -11
q-42 16 -67 16q-11 0 -11 -5zM322 38q25 0 25 20q0 14 -16.5 23.5t-36.5 9.5q-22 0 -22 -17q0 -16 16 -26t34 -10z" />
    <glyph glyph-name="Ccedilla" unicode="&#xc7;" 
d="M286 486q-11 0 -11 -8q0 -10 15.5 -17.5t42.5 -9.5h14h24q19 0 19 -21q0 -15 -8.5 -20t-34.5 -5q-13 0 -33 3t-23 3q-8 0 -8 -6q0 -11 18.5 -20t46.5 -10h20t16 -7.5t6 -17.5q0 -24 -22 -24h-8q30 -30 30 -72q0 -45 -31 -67q31 -23 31 -50q0 -25 -28 -39q28 -21 28 -49
q0 -18 -10 -31t-24 -19t-31 -6q-35 0 -64 21.5t-29 54.5q0 12 4 22q-54 -1 -82.5 12t-28.5 39q0 23 13 35t36 12q65 0 133 -57q40 2 40 13q0 12 -25 28h-8q-33 0 -57.5 20.5t-24.5 55.5q0 28 15 44t36 16q20 0 35 -14.5t15 -37.5t-11 -37q25 5 25 41q0 42 -41 67
q-49 3 -55 3q-10 0 -14.5 7.5t-4.5 16.5q0 23 19 23h3t7 -0.5t9 -0.5q-27 16 -27 39t19 34q-28 15 -28 42q0 41 38 41q7 0 32.5 -3t33.5 -3q9 0 9 8q0 6 -12.5 15t-33.5 17q-14 3 -27 9t-23 15.5t-16 23.5t-6 30q0 33 21 50.5t52 17.5q35 0 61.5 -21.5t26.5 -60.5
q0 -41 -34 -57q34 -22 34 -50q0 -43 -43 -43q-15 0 -37 2.5t-24 2.5zM272 642q0 -13 14 -21.5t31 -8.5q30 0 30 22q0 13 -14.5 22t-30.5 9q-14 0 -22 -6.5t-8 -16.5zM272 246q0 -16 25 -24q5 11 5 24q0 8 -5 12.5t-11 4.5q-4 0 -9 -5t-5 -12zM166 142q0 -10 78 -11
q-42 16 -67 16q-11 0 -11 -5zM322 38q25 0 25 20q0 14 -16.5 23.5t-36.5 9.5q-22 0 -22 -17q0 -16 16 -26t34 -10z" />
    <glyph glyph-name="Egrave" unicode="&#xc8;" 
d="M286 486q-11 0 -11 -8q0 -10 15.5 -17.5t42.5 -9.5h14h24q19 0 19 -21q0 -15 -8.5 -20t-34.5 -5q-13 0 -33 3t-23 3q-8 0 -8 -6q0 -11 18.5 -20t46.5 -10h20t16 -7.5t6 -17.5q0 -24 -22 -24h-8q30 -30 30 -72q0 -45 -31 -67q31 -23 31 -50q0 -25 -28 -39q28 -21 28 -49
q0 -18 -10 -31t-24 -19t-31 -6q-35 0 -64 21.5t-29 54.5q0 12 4 22q-54 -1 -82.5 12t-28.5 39q0 23 13 35t36 12q65 0 133 -57q40 2 40 13q0 12 -25 28h-8q-33 0 -57.5 20.5t-24.5 55.5q0 28 15 44t36 16q20 0 35 -14.5t15 -37.5t-11 -37q25 5 25 41q0 42 -41 67
q-49 3 -55 3q-10 0 -14.5 7.5t-4.5 16.5q0 23 19 23h3t7 -0.5t9 -0.5q-27 16 -27 39t19 34q-28 15 -28 42q0 41 38 41q7 0 32.5 -3t33.5 -3q9 0 9 8q0 6 -12.5 15t-33.5 17q-14 3 -27 9t-23 15.5t-16 23.5t-6 30q0 33 21 50.5t52 17.5q35 0 61.5 -21.5t26.5 -60.5
q0 -41 -34 -57q34 -22 34 -50q0 -43 -43 -43q-15 0 -37 2.5t-24 2.5zM272 642q0 -13 14 -21.5t31 -8.5q30 0 30 22q0 13 -14.5 22t-30.5 9q-14 0 -22 -6.5t-8 -16.5zM272 246q0 -16 25 -24q5 11 5 24q0 8 -5 12.5t-11 4.5q-4 0 -9 -5t-5 -12zM166 142q0 -10 78 -11
q-42 16 -67 16q-11 0 -11 -5zM322 38q25 0 25 20q0 14 -16.5 23.5t-36.5 9.5q-22 0 -22 -17q0 -16 16 -26t34 -10z" />
    <glyph glyph-name="Eacute" unicode="&#xc9;" 
d="M286 486q-11 0 -11 -8q0 -10 15.5 -17.5t42.5 -9.5h14h24q19 0 19 -21q0 -15 -8.5 -20t-34.5 -5q-13 0 -33 3t-23 3q-8 0 -8 -6q0 -11 18.5 -20t46.5 -10h20t16 -7.5t6 -17.5q0 -24 -22 -24h-8q30 -30 30 -72q0 -45 -31 -67q31 -23 31 -50q0 -25 -28 -39q28 -21 28 -49
q0 -18 -10 -31t-24 -19t-31 -6q-35 0 -64 21.5t-29 54.5q0 12 4 22q-54 -1 -82.5 12t-28.5 39q0 23 13 35t36 12q65 0 133 -57q40 2 40 13q0 12 -25 28h-8q-33 0 -57.5 20.5t-24.5 55.5q0 28 15 44t36 16q20 0 35 -14.5t15 -37.5t-11 -37q25 5 25 41q0 42 -41 67
q-49 3 -55 3q-10 0 -14.5 7.5t-4.5 16.5q0 23 19 23h3t7 -0.5t9 -0.5q-27 16 -27 39t19 34q-28 15 -28 42q0 41 38 41q7 0 32.5 -3t33.5 -3q9 0 9 8q0 6 -12.5 15t-33.5 17q-14 3 -27 9t-23 15.5t-16 23.5t-6 30q0 33 21 50.5t52 17.5q35 0 61.5 -21.5t26.5 -60.5
q0 -41 -34 -57q34 -22 34 -50q0 -43 -43 -43q-15 0 -37 2.5t-24 2.5zM272 642q0 -13 14 -21.5t31 -8.5q30 0 30 22q0 13 -14.5 22t-30.5 9q-14 0 -22 -6.5t-8 -16.5zM272 246q0 -16 25 -24q5 11 5 24q0 8 -5 12.5t-11 4.5q-4 0 -9 -5t-5 -12zM166 142q0 -10 78 -11
q-42 16 -67 16q-11 0 -11 -5zM322 38q25 0 25 20q0 14 -16.5 23.5t-36.5 9.5q-22 0 -22 -17q0 -16 16 -26t34 -10z" />
    <glyph glyph-name="Ecircumflex" unicode="&#xca;" 
d="M286 486q-11 0 -11 -8q0 -10 15.5 -17.5t42.5 -9.5h14h24q19 0 19 -21q0 -15 -8.5 -20t-34.5 -5q-13 0 -33 3t-23 3q-8 0 -8 -6q0 -11 18.5 -20t46.5 -10h20t16 -7.5t6 -17.5q0 -24 -22 -24h-8q30 -30 30 -72q0 -45 -31 -67q31 -23 31 -50q0 -25 -28 -39q28 -21 28 -49
q0 -18 -10 -31t-24 -19t-31 -6q-35 0 -64 21.5t-29 54.5q0 12 4 22q-54 -1 -82.5 12t-28.5 39q0 23 13 35t36 12q65 0 133 -57q40 2 40 13q0 12 -25 28h-8q-33 0 -57.5 20.5t-24.5 55.5q0 28 15 44t36 16q20 0 35 -14.5t15 -37.5t-11 -37q25 5 25 41q0 42 -41 67
q-49 3 -55 3q-10 0 -14.5 7.5t-4.5 16.5q0 23 19 23h3t7 -0.5t9 -0.5q-27 16 -27 39t19 34q-28 15 -28 42q0 41 38 41q7 0 32.5 -3t33.5 -3q9 0 9 8q0 6 -12.5 15t-33.5 17q-14 3 -27 9t-23 15.5t-16 23.5t-6 30q0 33 21 50.5t52 17.5q35 0 61.5 -21.5t26.5 -60.5
q0 -41 -34 -57q34 -22 34 -50q0 -43 -43 -43q-15 0 -37 2.5t-24 2.5zM272 642q0 -13 14 -21.5t31 -8.5q30 0 30 22q0 13 -14.5 22t-30.5 9q-14 0 -22 -6.5t-8 -16.5zM272 246q0 -16 25 -24q5 11 5 24q0 8 -5 12.5t-11 4.5q-4 0 -9 -5t-5 -12zM166 142q0 -10 78 -11
q-42 16 -67 16q-11 0 -11 -5zM322 38q25 0 25 20q0 14 -16.5 23.5t-36.5 9.5q-22 0 -22 -17q0 -16 16 -26t34 -10z" />
    <glyph glyph-name="Edieresis" unicode="&#xcb;" 
d="M286 486q-11 0 -11 -8q0 -10 15.5 -17.5t42.5 -9.5h14h24q19 0 19 -21q0 -15 -8.5 -20t-34.5 -5q-13 0 -33 3t-23 3q-8 0 -8 -6q0 -11 18.5 -20t46.5 -10h20t16 -7.5t6 -17.5q0 -24 -22 -24h-8q30 -30 30 -72q0 -45 -31 -67q31 -23 31 -50q0 -25 -28 -39q28 -21 28 -49
q0 -18 -10 -31t-24 -19t-31 -6q-35 0 -64 21.5t-29 54.5q0 12 4 22q-54 -1 -82.5 12t-28.5 39q0 23 13 35t36 12q65 0 133 -57q40 2 40 13q0 12 -25 28h-8q-33 0 -57.5 20.5t-24.5 55.5q0 28 15 44t36 16q20 0 35 -14.5t15 -37.5t-11 -37q25 5 25 41q0 42 -41 67
q-49 3 -55 3q-10 0 -14.5 7.5t-4.5 16.5q0 23 19 23h3t7 -0.5t9 -0.5q-27 16 -27 39t19 34q-28 15 -28 42q0 41 38 41q7 0 32.5 -3t33.5 -3q9 0 9 8q0 6 -12.5 15t-33.5 17q-14 3 -27 9t-23 15.5t-16 23.5t-6 30q0 33 21 50.5t52 17.5q35 0 61.5 -21.5t26.5 -60.5
q0 -41 -34 -57q34 -22 34 -50q0 -43 -43 -43q-15 0 -37 2.5t-24 2.5zM272 642q0 -13 14 -21.5t31 -8.5q30 0 30 22q0 13 -14.5 22t-30.5 9q-14 0 -22 -6.5t-8 -16.5zM272 246q0 -16 25 -24q5 11 5 24q0 8 -5 12.5t-11 4.5q-4 0 -9 -5t-5 -12zM166 142q0 -10 78 -11
q-42 16 -67 16q-11 0 -11 -5zM322 38q25 0 25 20q0 14 -16.5 23.5t-36.5 9.5q-22 0 -22 -17q0 -16 16 -26t34 -10z" />
    <glyph glyph-name="Igrave" unicode="&#xcc;" 
d="M286 486q-11 0 -11 -8q0 -10 15.5 -17.5t42.5 -9.5h14h24q19 0 19 -21q0 -15 -8.5 -20t-34.5 -5q-13 0 -33 3t-23 3q-8 0 -8 -6q0 -11 18.5 -20t46.5 -10h20t16 -7.5t6 -17.5q0 -24 -22 -24h-8q30 -30 30 -72q0 -45 -31 -67q31 -23 31 -50q0 -25 -28 -39q28 -21 28 -49
q0 -18 -10 -31t-24 -19t-31 -6q-35 0 -64 21.5t-29 54.5q0 12 4 22q-54 -1 -82.5 12t-28.5 39q0 23 13 35t36 12q65 0 133 -57q40 2 40 13q0 12 -25 28h-8q-33 0 -57.5 20.5t-24.5 55.5q0 28 15 44t36 16q20 0 35 -14.5t15 -37.5t-11 -37q25 5 25 41q0 42 -41 67
q-49 3 -55 3q-10 0 -14.5 7.5t-4.5 16.5q0 23 19 23h3t7 -0.5t9 -0.5q-27 16 -27 39t19 34q-28 15 -28 42q0 41 38 41q7 0 32.5 -3t33.5 -3q9 0 9 8q0 6 -12.5 15t-33.5 17q-14 3 -27 9t-23 15.5t-16 23.5t-6 30q0 33 21 50.5t52 17.5q35 0 61.5 -21.5t26.5 -60.5
q0 -41 -34 -57q34 -22 34 -50q0 -43 -43 -43q-15 0 -37 2.5t-24 2.5zM272 642q0 -13 14 -21.5t31 -8.5q30 0 30 22q0 13 -14.5 22t-30.5 9q-14 0 -22 -6.5t-8 -16.5zM272 246q0 -16 25 -24q5 11 5 24q0 8 -5 12.5t-11 4.5q-4 0 -9 -5t-5 -12zM166 142q0 -10 78 -11
q-42 16 -67 16q-11 0 -11 -5zM322 38q25 0 25 20q0 14 -16.5 23.5t-36.5 9.5q-22 0 -22 -17q0 -16 16 -26t34 -10z" />
    <glyph glyph-name="Iacute" unicode="&#xcd;" 
d="M286 486q-11 0 -11 -8q0 -10 15.5 -17.5t42.5 -9.5h14h24q19 0 19 -21q0 -15 -8.5 -20t-34.5 -5q-13 0 -33 3t-23 3q-8 0 -8 -6q0 -11 18.5 -20t46.5 -10h20t16 -7.5t6 -17.5q0 -24 -22 -24h-8q30 -30 30 -72q0 -45 -31 -67q31 -23 31 -50q0 -25 -28 -39q28 -21 28 -49
q0 -18 -10 -31t-24 -19t-31 -6q-35 0 -64 21.5t-29 54.5q0 12 4 22q-54 -1 -82.5 12t-28.5 39q0 23 13 35t36 12q65 0 133 -57q40 2 40 13q0 12 -25 28h-8q-33 0 -57.5 20.5t-24.5 55.5q0 28 15 44t36 16q20 0 35 -14.5t15 -37.5t-11 -37q25 5 25 41q0 42 -41 67
q-49 3 -55 3q-10 0 -14.5 7.5t-4.5 16.5q0 23 19 23h3t7 -0.5t9 -0.5q-27 16 -27 39t19 34q-28 15 -28 42q0 41 38 41q7 0 32.5 -3t33.5 -3q9 0 9 8q0 6 -12.5 15t-33.5 17q-14 3 -27 9t-23 15.5t-16 23.5t-6 30q0 33 21 50.5t52 17.5q35 0 61.5 -21.5t26.5 -60.5
q0 -41 -34 -57q34 -22 34 -50q0 -43 -43 -43q-15 0 -37 2.5t-24 2.5zM272 642q0 -13 14 -21.5t31 -8.5q30 0 30 22q0 13 -14.5 22t-30.5 9q-14 0 -22 -6.5t-8 -16.5zM272 246q0 -16 25 -24q5 11 5 24q0 8 -5 12.5t-11 4.5q-4 0 -9 -5t-5 -12zM166 142q0 -10 78 -11
q-42 16 -67 16q-11 0 -11 -5zM322 38q25 0 25 20q0 14 -16.5 23.5t-36.5 9.5q-22 0 -22 -17q0 -16 16 -26t34 -10z" />
    <glyph glyph-name="Icircumflex" unicode="&#xce;" 
d="M286 486q-11 0 -11 -8q0 -10 15.5 -17.5t42.5 -9.5h14h24q19 0 19 -21q0 -15 -8.5 -20t-34.5 -5q-13 0 -33 3t-23 3q-8 0 -8 -6q0 -11 18.5 -20t46.5 -10h20t16 -7.5t6 -17.5q0 -24 -22 -24h-8q30 -30 30 -72q0 -45 -31 -67q31 -23 31 -50q0 -25 -28 -39q28 -21 28 -49
q0 -18 -10 -31t-24 -19t-31 -6q-35 0 -64 21.5t-29 54.5q0 12 4 22q-54 -1 -82.5 12t-28.5 39q0 23 13 35t36 12q65 0 133 -57q40 2 40 13q0 12 -25 28h-8q-33 0 -57.5 20.5t-24.5 55.5q0 28 15 44t36 16q20 0 35 -14.5t15 -37.5t-11 -37q25 5 25 41q0 42 -41 67
q-49 3 -55 3q-10 0 -14.5 7.5t-4.5 16.5q0 23 19 23h3t7 -0.5t9 -0.5q-27 16 -27 39t19 34q-28 15 -28 42q0 41 38 41q7 0 32.5 -3t33.5 -3q9 0 9 8q0 6 -12.5 15t-33.5 17q-14 3 -27 9t-23 15.5t-16 23.5t-6 30q0 33 21 50.5t52 17.5q35 0 61.5 -21.5t26.5 -60.5
q0 -41 -34 -57q34 -22 34 -50q0 -43 -43 -43q-15 0 -37 2.5t-24 2.5zM272 642q0 -13 14 -21.5t31 -8.5q30 0 30 22q0 13 -14.5 22t-30.5 9q-14 0 -22 -6.5t-8 -16.5zM272 246q0 -16 25 -24q5 11 5 24q0 8 -5 12.5t-11 4.5q-4 0 -9 -5t-5 -12zM166 142q0 -10 78 -11
q-42 16 -67 16q-11 0 -11 -5zM322 38q25 0 25 20q0 14 -16.5 23.5t-36.5 9.5q-22 0 -22 -17q0 -16 16 -26t34 -10z" />
    <glyph glyph-name="Idieresis" unicode="&#xcf;" 
d="M286 486q-11 0 -11 -8q0 -10 15.5 -17.5t42.5 -9.5h14h24q19 0 19 -21q0 -15 -8.5 -20t-34.5 -5q-13 0 -33 3t-23 3q-8 0 -8 -6q0 -11 18.5 -20t46.5 -10h20t16 -7.5t6 -17.5q0 -24 -22 -24h-8q30 -30 30 -72q0 -45 -31 -67q31 -23 31 -50q0 -25 -28 -39q28 -21 28 -49
q0 -18 -10 -31t-24 -19t-31 -6q-35 0 -64 21.5t-29 54.5q0 12 4 22q-54 -1 -82.5 12t-28.5 39q0 23 13 35t36 12q65 0 133 -57q40 2 40 13q0 12 -25 28h-8q-33 0 -57.5 20.5t-24.5 55.5q0 28 15 44t36 16q20 0 35 -14.5t15 -37.5t-11 -37q25 5 25 41q0 42 -41 67
q-49 3 -55 3q-10 0 -14.5 7.5t-4.5 16.5q0 23 19 23h3t7 -0.5t9 -0.5q-27 16 -27 39t19 34q-28 15 -28 42q0 41 38 41q7 0 32.5 -3t33.5 -3q9 0 9 8q0 6 -12.5 15t-33.5 17q-14 3 -27 9t-23 15.5t-16 23.5t-6 30q0 33 21 50.5t52 17.5q35 0 61.5 -21.5t26.5 -60.5
q0 -41 -34 -57q34 -22 34 -50q0 -43 -43 -43q-15 0 -37 2.5t-24 2.5zM272 642q0 -13 14 -21.5t31 -8.5q30 0 30 22q0 13 -14.5 22t-30.5 9q-14 0 -22 -6.5t-8 -16.5zM272 246q0 -16 25 -24q5 11 5 24q0 8 -5 12.5t-11 4.5q-4 0 -9 -5t-5 -12zM166 142q0 -10 78 -11
q-42 16 -67 16q-11 0 -11 -5zM322 38q25 0 25 20q0 14 -16.5 23.5t-36.5 9.5q-22 0 -22 -17q0 -16 16 -26t34 -10z" />
    <glyph glyph-name="Eth" unicode="&#xd0;" 
d="M286 486q-11 0 -11 -8q0 -10 15.5 -17.5t42.5 -9.5h14h24q19 0 19 -21q0 -15 -8.5 -20t-34.5 -5q-13 0 -33 3t-23 3q-8 0 -8 -6q0 -11 18.5 -20t46.5 -10h20t16 -7.5t6 -17.5q0 -24 -22 -24h-8q30 -30 30 -72q0 -45 -31 -67q31 -23 31 -50q0 -25 -28 -39q28 -21 28 -49
q0 -18 -10 -31t-24 -19t-31 -6q-35 0 -64 21.5t-29 54.5q0 12 4 22q-54 -1 -82.5 12t-28.5 39q0 23 13 35t36 12q65 0 133 -57q40 2 40 13q0 12 -25 28h-8q-33 0 -57.5 20.5t-24.5 55.5q0 28 15 44t36 16q20 0 35 -14.5t15 -37.5t-11 -37q25 5 25 41q0 42 -41 67
q-49 3 -55 3q-10 0 -14.5 7.5t-4.5 16.5q0 23 19 23h3t7 -0.5t9 -0.5q-27 16 -27 39t19 34q-28 15 -28 42q0 41 38 41q7 0 32.5 -3t33.5 -3q9 0 9 8q0 6 -12.5 15t-33.5 17q-14 3 -27 9t-23 15.5t-16 23.5t-6 30q0 33 21 50.5t52 17.5q35 0 61.5 -21.5t26.5 -60.5
q0 -41 -34 -57q34 -22 34 -50q0 -43 -43 -43q-15 0 -37 2.5t-24 2.5zM272 642q0 -13 14 -21.5t31 -8.5q30 0 30 22q0 13 -14.5 22t-30.5 9q-14 0 -22 -6.5t-8 -16.5zM272 246q0 -16 25 -24q5 11 5 24q0 8 -5 12.5t-11 4.5q-4 0 -9 -5t-5 -12zM166 142q0 -10 78 -11
q-42 16 -67 16q-11 0 -11 -5zM322 38q25 0 25 20q0 14 -16.5 23.5t-36.5 9.5q-22 0 -22 -17q0 -16 16 -26t34 -10z" />
    <glyph glyph-name="Ntilde" unicode="&#xd1;" 
d="M286 486q-11 0 -11 -8q0 -10 15.5 -17.5t42.5 -9.5h14h24q19 0 19 -21q0 -15 -8.5 -20t-34.5 -5q-13 0 -33 3t-23 3q-8 0 -8 -6q0 -11 18.5 -20t46.5 -10h20t16 -7.5t6 -17.5q0 -24 -22 -24h-8q30 -30 30 -72q0 -45 -31 -67q31 -23 31 -50q0 -25 -28 -39q28 -21 28 -49
q0 -18 -10 -31t-24 -19t-31 -6q-35 0 -64 21.5t-29 54.5q0 12 4 22q-54 -1 -82.5 12t-28.5 39q0 23 13 35t36 12q65 0 133 -57q40 2 40 13q0 12 -25 28h-8q-33 0 -57.5 20.5t-24.5 55.5q0 28 15 44t36 16q20 0 35 -14.5t15 -37.5t-11 -37q25 5 25 41q0 42 -41 67
q-49 3 -55 3q-10 0 -14.5 7.5t-4.5 16.5q0 23 19 23h3t7 -0.5t9 -0.5q-27 16 -27 39t19 34q-28 15 -28 42q0 41 38 41q7 0 32.5 -3t33.5 -3q9 0 9 8q0 6 -12.5 15t-33.5 17q-14 3 -27 9t-23 15.5t-16 23.5t-6 30q0 33 21 50.5t52 17.5q35 0 61.5 -21.5t26.5 -60.5
q0 -41 -34 -57q34 -22 34 -50q0 -43 -43 -43q-15 0 -37 2.5t-24 2.5zM272 642q0 -13 14 -21.5t31 -8.5q30 0 30 22q0 13 -14.5 22t-30.5 9q-14 0 -22 -6.5t-8 -16.5zM272 246q0 -16 25 -24q5 11 5 24q0 8 -5 12.5t-11 4.5q-4 0 -9 -5t-5 -12zM166 142q0 -10 78 -11
q-42 16 -67 16q-11 0 -11 -5zM322 38q25 0 25 20q0 14 -16.5 23.5t-36.5 9.5q-22 0 -22 -17q0 -16 16 -26t34 -10z" />
    <glyph glyph-name="Ograve" unicode="&#xd2;" 
d="M286 486q-11 0 -11 -8q0 -10 15.5 -17.5t42.5 -9.5h14h24q19 0 19 -21q0 -15 -8.5 -20t-34.5 -5q-13 0 -33 3t-23 3q-8 0 -8 -6q0 -11 18.5 -20t46.5 -10h20t16 -7.5t6 -17.5q0 -24 -22 -24h-8q30 -30 30 -72q0 -45 -31 -67q31 -23 31 -50q0 -25 -28 -39q28 -21 28 -49
q0 -18 -10 -31t-24 -19t-31 -6q-35 0 -64 21.5t-29 54.5q0 12 4 22q-54 -1 -82.5 12t-28.5 39q0 23 13 35t36 12q65 0 133 -57q40 2 40 13q0 12 -25 28h-8q-33 0 -57.5 20.5t-24.5 55.5q0 28 15 44t36 16q20 0 35 -14.5t15 -37.5t-11 -37q25 5 25 41q0 42 -41 67
q-49 3 -55 3q-10 0 -14.5 7.5t-4.5 16.5q0 23 19 23h3t7 -0.5t9 -0.5q-27 16 -27 39t19 34q-28 15 -28 42q0 41 38 41q7 0 32.5 -3t33.5 -3q9 0 9 8q0 6 -12.5 15t-33.5 17q-14 3 -27 9t-23 15.5t-16 23.5t-6 30q0 33 21 50.5t52 17.5q35 0 61.5 -21.5t26.5 -60.5
q0 -41 -34 -57q34 -22 34 -50q0 -43 -43 -43q-15 0 -37 2.5t-24 2.5zM272 642q0 -13 14 -21.5t31 -8.5q30 0 30 22q0 13 -14.5 22t-30.5 9q-14 0 -22 -6.5t-8 -16.5zM272 246q0 -16 25 -24q5 11 5 24q0 8 -5 12.5t-11 4.5q-4 0 -9 -5t-5 -12zM166 142q0 -10 78 -11
q-42 16 -67 16q-11 0 -11 -5zM322 38q25 0 25 20q0 14 -16.5 23.5t-36.5 9.5q-22 0 -22 -17q0 -16 16 -26t34 -10z" />
    <glyph glyph-name="Oacute" unicode="&#xd3;" 
d="M286 486q-11 0 -11 -8q0 -10 15.5 -17.5t42.5 -9.5h14h24q19 0 19 -21q0 -15 -8.5 -20t-34.5 -5q-13 0 -33 3t-23 3q-8 0 -8 -6q0 -11 18.5 -20t46.5 -10h20t16 -7.5t6 -17.5q0 -24 -22 -24h-8q30 -30 30 -72q0 -45 -31 -67q31 -23 31 -50q0 -25 -28 -39q28 -21 28 -49
q0 -18 -10 -31t-24 -19t-31 -6q-35 0 -64 21.5t-29 54.5q0 12 4 22q-54 -1 -82.5 12t-28.5 39q0 23 13 35t36 12q65 0 133 -57q40 2 40 13q0 12 -25 28h-8q-33 0 -57.5 20.5t-24.5 55.5q0 28 15 44t36 16q20 0 35 -14.5t15 -37.5t-11 -37q25 5 25 41q0 42 -41 67
q-49 3 -55 3q-10 0 -14.5 7.5t-4.5 16.5q0 23 19 23h3t7 -0.5t9 -0.5q-27 16 -27 39t19 34q-28 15 -28 42q0 41 38 41q7 0 32.5 -3t33.5 -3q9 0 9 8q0 6 -12.5 15t-33.5 17q-14 3 -27 9t-23 15.5t-16 23.5t-6 30q0 33 21 50.5t52 17.5q35 0 61.5 -21.5t26.5 -60.5
q0 -41 -34 -57q34 -22 34 -50q0 -43 -43 -43q-15 0 -37 2.5t-24 2.5zM272 642q0 -13 14 -21.5t31 -8.5q30 0 30 22q0 13 -14.5 22t-30.5 9q-14 0 -22 -6.5t-8 -16.5zM272 246q0 -16 25 -24q5 11 5 24q0 8 -5 12.5t-11 4.5q-4 0 -9 -5t-5 -12zM166 142q0 -10 78 -11
q-42 16 -67 16q-11 0 -11 -5zM322 38q25 0 25 20q0 14 -16.5 23.5t-36.5 9.5q-22 0 -22 -17q0 -16 16 -26t34 -10z" />
    <glyph glyph-name="Ocircumflex" unicode="&#xd4;" 
d="M286 486q-11 0 -11 -8q0 -10 15.5 -17.5t42.5 -9.5h14h24q19 0 19 -21q0 -15 -8.5 -20t-34.5 -5q-13 0 -33 3t-23 3q-8 0 -8 -6q0 -11 18.5 -20t46.5 -10h20t16 -7.5t6 -17.5q0 -24 -22 -24h-8q30 -30 30 -72q0 -45 -31 -67q31 -23 31 -50q0 -25 -28 -39q28 -21 28 -49
q0 -18 -10 -31t-24 -19t-31 -6q-35 0 -64 21.5t-29 54.5q0 12 4 22q-54 -1 -82.5 12t-28.5 39q0 23 13 35t36 12q65 0 133 -57q40 2 40 13q0 12 -25 28h-8q-33 0 -57.5 20.5t-24.5 55.5q0 28 15 44t36 16q20 0 35 -14.5t15 -37.5t-11 -37q25 5 25 41q0 42 -41 67
q-49 3 -55 3q-10 0 -14.5 7.5t-4.5 16.5q0 23 19 23h3t7 -0.5t9 -0.5q-27 16 -27 39t19 34q-28 15 -28 42q0 41 38 41q7 0 32.5 -3t33.5 -3q9 0 9 8q0 6 -12.5 15t-33.5 17q-14 3 -27 9t-23 15.5t-16 23.5t-6 30q0 33 21 50.5t52 17.5q35 0 61.5 -21.5t26.5 -60.5
q0 -41 -34 -57q34 -22 34 -50q0 -43 -43 -43q-15 0 -37 2.5t-24 2.5zM272 642q0 -13 14 -21.5t31 -8.5q30 0 30 22q0 13 -14.5 22t-30.5 9q-14 0 -22 -6.5t-8 -16.5zM272 246q0 -16 25 -24q5 11 5 24q0 8 -5 12.5t-11 4.5q-4 0 -9 -5t-5 -12zM166 142q0 -10 78 -11
q-42 16 -67 16q-11 0 -11 -5zM322 38q25 0 25 20q0 14 -16.5 23.5t-36.5 9.5q-22 0 -22 -17q0 -16 16 -26t34 -10z" />
    <glyph glyph-name="Otilde" unicode="&#xd5;" 
d="M286 486q-11 0 -11 -8q0 -10 15.5 -17.5t42.5 -9.5h14h24q19 0 19 -21q0 -15 -8.5 -20t-34.5 -5q-13 0 -33 3t-23 3q-8 0 -8 -6q0 -11 18.5 -20t46.5 -10h20t16 -7.5t6 -17.5q0 -24 -22 -24h-8q30 -30 30 -72q0 -45 -31 -67q31 -23 31 -50q0 -25 -28 -39q28 -21 28 -49
q0 -18 -10 -31t-24 -19t-31 -6q-35 0 -64 21.5t-29 54.5q0 12 4 22q-54 -1 -82.5 12t-28.5 39q0 23 13 35t36 12q65 0 133 -57q40 2 40 13q0 12 -25 28h-8q-33 0 -57.5 20.5t-24.5 55.5q0 28 15 44t36 16q20 0 35 -14.5t15 -37.5t-11 -37q25 5 25 41q0 42 -41 67
q-49 3 -55 3q-10 0 -14.5 7.5t-4.5 16.5q0 23 19 23h3t7 -0.5t9 -0.5q-27 16 -27 39t19 34q-28 15 -28 42q0 41 38 41q7 0 32.5 -3t33.5 -3q9 0 9 8q0 6 -12.5 15t-33.5 17q-14 3 -27 9t-23 15.5t-16 23.5t-6 30q0 33 21 50.5t52 17.5q35 0 61.5 -21.5t26.5 -60.5
q0 -41 -34 -57q34 -22 34 -50q0 -43 -43 -43q-15 0 -37 2.5t-24 2.5zM272 642q0 -13 14 -21.5t31 -8.5q30 0 30 22q0 13 -14.5 22t-30.5 9q-14 0 -22 -6.5t-8 -16.5zM272 246q0 -16 25 -24q5 11 5 24q0 8 -5 12.5t-11 4.5q-4 0 -9 -5t-5 -12zM166 142q0 -10 78 -11
q-42 16 -67 16q-11 0 -11 -5zM322 38q25 0 25 20q0 14 -16.5 23.5t-36.5 9.5q-22 0 -22 -17q0 -16 16 -26t34 -10z" />
    <glyph glyph-name="Odieresis" unicode="&#xd6;" 
d="M286 486q-11 0 -11 -8q0 -10 15.5 -17.5t42.5 -9.5h14h24q19 0 19 -21q0 -15 -8.5 -20t-34.5 -5q-13 0 -33 3t-23 3q-8 0 -8 -6q0 -11 18.5 -20t46.5 -10h20t16 -7.5t6 -17.5q0 -24 -22 -24h-8q30 -30 30 -72q0 -45 -31 -67q31 -23 31 -50q0 -25 -28 -39q28 -21 28 -49
q0 -18 -10 -31t-24 -19t-31 -6q-35 0 -64 21.5t-29 54.5q0 12 4 22q-54 -1 -82.5 12t-28.5 39q0 23 13 35t36 12q65 0 133 -57q40 2 40 13q0 12 -25 28h-8q-33 0 -57.5 20.5t-24.5 55.5q0 28 15 44t36 16q20 0 35 -14.5t15 -37.5t-11 -37q25 5 25 41q0 42 -41 67
q-49 3 -55 3q-10 0 -14.5 7.5t-4.5 16.5q0 23 19 23h3t7 -0.5t9 -0.5q-27 16 -27 39t19 34q-28 15 -28 42q0 41 38 41q7 0 32.5 -3t33.5 -3q9 0 9 8q0 6 -12.5 15t-33.5 17q-14 3 -27 9t-23 15.5t-16 23.5t-6 30q0 33 21 50.5t52 17.5q35 0 61.5 -21.5t26.5 -60.5
q0 -41 -34 -57q34 -22 34 -50q0 -43 -43 -43q-15 0 -37 2.5t-24 2.5zM272 642q0 -13 14 -21.5t31 -8.5q30 0 30 22q0 13 -14.5 22t-30.5 9q-14 0 -22 -6.5t-8 -16.5zM272 246q0 -16 25 -24q5 11 5 24q0 8 -5 12.5t-11 4.5q-4 0 -9 -5t-5 -12zM166 142q0 -10 78 -11
q-42 16 -67 16q-11 0 -11 -5zM322 38q25 0 25 20q0 14 -16.5 23.5t-36.5 9.5q-22 0 -22 -17q0 -16 16 -26t34 -10z" />
    <glyph glyph-name="multiply" unicode="&#xd7;" horiz-adv-x="390" 
d="M336 281q13 -13 13 -28q0 -14 -11 -25t-26 -11q-14 0 -27 12l-61 60l-62 -61q-14 -12 -28 -12t-25 11t-11 25q0 15 13 28l61 61l-54 53q-12 12 -12 27t10.5 26t25.5 11q14 0 27 -12l55 -54l57 57q13 12 28 12q14 0 25 -11t11 -25q0 -15 -13 -28l-57 -56z" />
    <glyph glyph-name="Oslash" unicode="&#xd8;" 
d="M286 486q-11 0 -11 -8q0 -10 15.5 -17.5t42.5 -9.5h14h24q19 0 19 -21q0 -15 -8.5 -20t-34.5 -5q-13 0 -33 3t-23 3q-8 0 -8 -6q0 -11 18.5 -20t46.5 -10h20t16 -7.5t6 -17.5q0 -24 -22 -24h-8q30 -30 30 -72q0 -45 -31 -67q31 -23 31 -50q0 -25 -28 -39q28 -21 28 -49
q0 -18 -10 -31t-24 -19t-31 -6q-35 0 -64 21.5t-29 54.5q0 12 4 22q-54 -1 -82.5 12t-28.5 39q0 23 13 35t36 12q65 0 133 -57q40 2 40 13q0 12 -25 28h-8q-33 0 -57.5 20.5t-24.5 55.5q0 28 15 44t36 16q20 0 35 -14.5t15 -37.5t-11 -37q25 5 25 41q0 42 -41 67
q-49 3 -55 3q-10 0 -14.5 7.5t-4.5 16.5q0 23 19 23h3t7 -0.5t9 -0.5q-27 16 -27 39t19 34q-28 15 -28 42q0 41 38 41q7 0 32.5 -3t33.5 -3q9 0 9 8q0 6 -12.5 15t-33.5 17q-14 3 -27 9t-23 15.5t-16 23.5t-6 30q0 33 21 50.5t52 17.5q35 0 61.5 -21.5t26.5 -60.5
q0 -41 -34 -57q34 -22 34 -50q0 -43 -43 -43q-15 0 -37 2.5t-24 2.5zM272 642q0 -13 14 -21.5t31 -8.5q30 0 30 22q0 13 -14.5 22t-30.5 9q-14 0 -22 -6.5t-8 -16.5zM272 246q0 -16 25 -24q5 11 5 24q0 8 -5 12.5t-11 4.5q-4 0 -9 -5t-5 -12zM166 142q0 -10 78 -11
q-42 16 -67 16q-11 0 -11 -5zM322 38q25 0 25 20q0 14 -16.5 23.5t-36.5 9.5q-22 0 -22 -17q0 -16 16 -26t34 -10z" />
    <glyph glyph-name="Ugrave" unicode="&#xd9;" 
d="M286 486q-11 0 -11 -8q0 -10 15.5 -17.5t42.5 -9.5h14h24q19 0 19 -21q0 -15 -8.5 -20t-34.5 -5q-13 0 -33 3t-23 3q-8 0 -8 -6q0 -11 18.5 -20t46.5 -10h20t16 -7.5t6 -17.5q0 -24 -22 -24h-8q30 -30 30 -72q0 -45 -31 -67q31 -23 31 -50q0 -25 -28 -39q28 -21 28 -49
q0 -18 -10 -31t-24 -19t-31 -6q-35 0 -64 21.5t-29 54.5q0 12 4 22q-54 -1 -82.5 12t-28.5 39q0 23 13 35t36 12q65 0 133 -57q40 2 40 13q0 12 -25 28h-8q-33 0 -57.5 20.5t-24.5 55.5q0 28 15 44t36 16q20 0 35 -14.5t15 -37.5t-11 -37q25 5 25 41q0 42 -41 67
q-49 3 -55 3q-10 0 -14.5 7.5t-4.5 16.5q0 23 19 23h3t7 -0.5t9 -0.5q-27 16 -27 39t19 34q-28 15 -28 42q0 41 38 41q7 0 32.5 -3t33.5 -3q9 0 9 8q0 6 -12.5 15t-33.5 17q-14 3 -27 9t-23 15.5t-16 23.5t-6 30q0 33 21 50.5t52 17.5q35 0 61.5 -21.5t26.5 -60.5
q0 -41 -34 -57q34 -22 34 -50q0 -43 -43 -43q-15 0 -37 2.5t-24 2.5zM272 642q0 -13 14 -21.5t31 -8.5q30 0 30 22q0 13 -14.5 22t-30.5 9q-14 0 -22 -6.5t-8 -16.5zM272 246q0 -16 25 -24q5 11 5 24q0 8 -5 12.5t-11 4.5q-4 0 -9 -5t-5 -12zM166 142q0 -10 78 -11
q-42 16 -67 16q-11 0 -11 -5zM322 38q25 0 25 20q0 14 -16.5 23.5t-36.5 9.5q-22 0 -22 -17q0 -16 16 -26t34 -10z" />
    <glyph glyph-name="Uacute" unicode="&#xda;" 
d="M286 486q-11 0 -11 -8q0 -10 15.5 -17.5t42.5 -9.5h14h24q19 0 19 -21q0 -15 -8.5 -20t-34.5 -5q-13 0 -33 3t-23 3q-8 0 -8 -6q0 -11 18.5 -20t46.5 -10h20t16 -7.5t6 -17.5q0 -24 -22 -24h-8q30 -30 30 -72q0 -45 -31 -67q31 -23 31 -50q0 -25 -28 -39q28 -21 28 -49
q0 -18 -10 -31t-24 -19t-31 -6q-35 0 -64 21.5t-29 54.5q0 12 4 22q-54 -1 -82.5 12t-28.5 39q0 23 13 35t36 12q65 0 133 -57q40 2 40 13q0 12 -25 28h-8q-33 0 -57.5 20.5t-24.5 55.5q0 28 15 44t36 16q20 0 35 -14.5t15 -37.5t-11 -37q25 5 25 41q0 42 -41 67
q-49 3 -55 3q-10 0 -14.5 7.5t-4.5 16.5q0 23 19 23h3t7 -0.5t9 -0.5q-27 16 -27 39t19 34q-28 15 -28 42q0 41 38 41q7 0 32.5 -3t33.5 -3q9 0 9 8q0 6 -12.5 15t-33.5 17q-14 3 -27 9t-23 15.5t-16 23.5t-6 30q0 33 21 50.5t52 17.5q35 0 61.5 -21.5t26.5 -60.5
q0 -41 -34 -57q34 -22 34 -50q0 -43 -43 -43q-15 0 -37 2.5t-24 2.5zM272 642q0 -13 14 -21.5t31 -8.5q30 0 30 22q0 13 -14.5 22t-30.5 9q-14 0 -22 -6.5t-8 -16.5zM272 246q0 -16 25 -24q5 11 5 24q0 8 -5 12.5t-11 4.5q-4 0 -9 -5t-5 -12zM166 142q0 -10 78 -11
q-42 16 -67 16q-11 0 -11 -5zM322 38q25 0 25 20q0 14 -16.5 23.5t-36.5 9.5q-22 0 -22 -17q0 -16 16 -26t34 -10z" />
    <glyph glyph-name="Ucircumflex" unicode="&#xdb;" 
d="M286 486q-11 0 -11 -8q0 -10 15.5 -17.5t42.5 -9.5h14h24q19 0 19 -21q0 -15 -8.5 -20t-34.5 -5q-13 0 -33 3t-23 3q-8 0 -8 -6q0 -11 18.5 -20t46.5 -10h20t16 -7.5t6 -17.5q0 -24 -22 -24h-8q30 -30 30 -72q0 -45 -31 -67q31 -23 31 -50q0 -25 -28 -39q28 -21 28 -49
q0 -18 -10 -31t-24 -19t-31 -6q-35 0 -64 21.5t-29 54.5q0 12 4 22q-54 -1 -82.5 12t-28.5 39q0 23 13 35t36 12q65 0 133 -57q40 2 40 13q0 12 -25 28h-8q-33 0 -57.5 20.5t-24.5 55.5q0 28 15 44t36 16q20 0 35 -14.5t15 -37.5t-11 -37q25 5 25 41q0 42 -41 67
q-49 3 -55 3q-10 0 -14.5 7.5t-4.5 16.5q0 23 19 23h3t7 -0.5t9 -0.5q-27 16 -27 39t19 34q-28 15 -28 42q0 41 38 41q7 0 32.5 -3t33.5 -3q9 0 9 8q0 6 -12.5 15t-33.5 17q-14 3 -27 9t-23 15.5t-16 23.5t-6 30q0 33 21 50.5t52 17.5q35 0 61.5 -21.5t26.5 -60.5
q0 -41 -34 -57q34 -22 34 -50q0 -43 -43 -43q-15 0 -37 2.5t-24 2.5zM272 642q0 -13 14 -21.5t31 -8.5q30 0 30 22q0 13 -14.5 22t-30.5 9q-14 0 -22 -6.5t-8 -16.5zM272 246q0 -16 25 -24q5 11 5 24q0 8 -5 12.5t-11 4.5q-4 0 -9 -5t-5 -12zM166 142q0 -10 78 -11
q-42 16 -67 16q-11 0 -11 -5zM322 38q25 0 25 20q0 14 -16.5 23.5t-36.5 9.5q-22 0 -22 -17q0 -16 16 -26t34 -10z" />
    <glyph glyph-name="Udieresis" unicode="&#xdc;" 
d="M286 486q-11 0 -11 -8q0 -10 15.5 -17.5t42.5 -9.5h14h24q19 0 19 -21q0 -15 -8.5 -20t-34.5 -5q-13 0 -33 3t-23 3q-8 0 -8 -6q0 -11 18.5 -20t46.5 -10h20t16 -7.5t6 -17.5q0 -24 -22 -24h-8q30 -30 30 -72q0 -45 -31 -67q31 -23 31 -50q0 -25 -28 -39q28 -21 28 -49
q0 -18 -10 -31t-24 -19t-31 -6q-35 0 -64 21.5t-29 54.5q0 12 4 22q-54 -1 -82.5 12t-28.5 39q0 23 13 35t36 12q65 0 133 -57q40 2 40 13q0 12 -25 28h-8q-33 0 -57.5 20.5t-24.5 55.5q0 28 15 44t36 16q20 0 35 -14.5t15 -37.5t-11 -37q25 5 25 41q0 42 -41 67
q-49 3 -55 3q-10 0 -14.5 7.5t-4.5 16.5q0 23 19 23h3t7 -0.5t9 -0.5q-27 16 -27 39t19 34q-28 15 -28 42q0 41 38 41q7 0 32.5 -3t33.5 -3q9 0 9 8q0 6 -12.5 15t-33.5 17q-14 3 -27 9t-23 15.5t-16 23.5t-6 30q0 33 21 50.5t52 17.5q35 0 61.5 -21.5t26.5 -60.5
q0 -41 -34 -57q34 -22 34 -50q0 -43 -43 -43q-15 0 -37 2.5t-24 2.5zM272 642q0 -13 14 -21.5t31 -8.5q30 0 30 22q0 13 -14.5 22t-30.5 9q-14 0 -22 -6.5t-8 -16.5zM272 246q0 -16 25 -24q5 11 5 24q0 8 -5 12.5t-11 4.5q-4 0 -9 -5t-5 -12zM166 142q0 -10 78 -11
q-42 16 -67 16q-11 0 -11 -5zM322 38q25 0 25 20q0 14 -16.5 23.5t-36.5 9.5q-22 0 -22 -17q0 -16 16 -26t34 -10z" />
    <glyph glyph-name="Yacute" unicode="&#xdd;" 
d="M286 486q-11 0 -11 -8q0 -10 15.5 -17.5t42.5 -9.5h14h24q19 0 19 -21q0 -15 -8.5 -20t-34.5 -5q-13 0 -33 3t-23 3q-8 0 -8 -6q0 -11 18.5 -20t46.5 -10h20t16 -7.5t6 -17.5q0 -24 -22 -24h-8q30 -30 30 -72q0 -45 -31 -67q31 -23 31 -50q0 -25 -28 -39q28 -21 28 -49
q0 -18 -10 -31t-24 -19t-31 -6q-35 0 -64 21.5t-29 54.5q0 12 4 22q-54 -1 -82.5 12t-28.5 39q0 23 13 35t36 12q65 0 133 -57q40 2 40 13q0 12 -25 28h-8q-33 0 -57.5 20.5t-24.5 55.5q0 28 15 44t36 16q20 0 35 -14.5t15 -37.5t-11 -37q25 5 25 41q0 42 -41 67
q-49 3 -55 3q-10 0 -14.5 7.5t-4.5 16.5q0 23 19 23h3t7 -0.5t9 -0.5q-27 16 -27 39t19 34q-28 15 -28 42q0 41 38 41q7 0 32.5 -3t33.5 -3q9 0 9 8q0 6 -12.5 15t-33.5 17q-14 3 -27 9t-23 15.5t-16 23.5t-6 30q0 33 21 50.5t52 17.5q35 0 61.5 -21.5t26.5 -60.5
q0 -41 -34 -57q34 -22 34 -50q0 -43 -43 -43q-15 0 -37 2.5t-24 2.5zM272 642q0 -13 14 -21.5t31 -8.5q30 0 30 22q0 13 -14.5 22t-30.5 9q-14 0 -22 -6.5t-8 -16.5zM272 246q0 -16 25 -24q5 11 5 24q0 8 -5 12.5t-11 4.5q-4 0 -9 -5t-5 -12zM166 142q0 -10 78 -11
q-42 16 -67 16q-11 0 -11 -5zM322 38q25 0 25 20q0 14 -16.5 23.5t-36.5 9.5q-22 0 -22 -17q0 -16 16 -26t34 -10z" />
    <glyph glyph-name="Thorn" unicode="&#xde;" 
d="M286 486q-11 0 -11 -8q0 -10 15.5 -17.5t42.5 -9.5h14h24q19 0 19 -21q0 -15 -8.5 -20t-34.5 -5q-13 0 -33 3t-23 3q-8 0 -8 -6q0 -11 18.5 -20t46.5 -10h20t16 -7.5t6 -17.5q0 -24 -22 -24h-8q30 -30 30 -72q0 -45 -31 -67q31 -23 31 -50q0 -25 -28 -39q28 -21 28 -49
q0 -18 -10 -31t-24 -19t-31 -6q-35 0 -64 21.5t-29 54.5q0 12 4 22q-54 -1 -82.5 12t-28.5 39q0 23 13 35t36 12q65 0 133 -57q40 2 40 13q0 12 -25 28h-8q-33 0 -57.5 20.5t-24.5 55.5q0 28 15 44t36 16q20 0 35 -14.5t15 -37.5t-11 -37q25 5 25 41q0 42 -41 67
q-49 3 -55 3q-10 0 -14.5 7.5t-4.5 16.5q0 23 19 23h3t7 -0.5t9 -0.5q-27 16 -27 39t19 34q-28 15 -28 42q0 41 38 41q7 0 32.5 -3t33.5 -3q9 0 9 8q0 6 -12.5 15t-33.5 17q-14 3 -27 9t-23 15.5t-16 23.5t-6 30q0 33 21 50.5t52 17.5q35 0 61.5 -21.5t26.5 -60.5
q0 -41 -34 -57q34 -22 34 -50q0 -43 -43 -43q-15 0 -37 2.5t-24 2.5zM272 642q0 -13 14 -21.5t31 -8.5q30 0 30 22q0 13 -14.5 22t-30.5 9q-14 0 -22 -6.5t-8 -16.5zM272 246q0 -16 25 -24q5 11 5 24q0 8 -5 12.5t-11 4.5q-4 0 -9 -5t-5 -12zM166 142q0 -10 78 -11
q-42 16 -67 16q-11 0 -11 -5zM322 38q25 0 25 20q0 14 -16.5 23.5t-36.5 9.5q-22 0 -22 -17q0 -16 16 -26t34 -10z" />
    <glyph glyph-name="germandbls" unicode="&#xdf;" 
d="M286 486q-11 0 -11 -8q0 -10 15.5 -17.5t42.5 -9.5h14h24q19 0 19 -21q0 -15 -8.5 -20t-34.5 -5q-13 0 -33 3t-23 3q-8 0 -8 -6q0 -11 18.5 -20t46.5 -10h20t16 -7.5t6 -17.5q0 -24 -22 -24h-8q30 -30 30 -72q0 -45 -31 -67q31 -23 31 -50q0 -25 -28 -39q28 -21 28 -49
q0 -18 -10 -31t-24 -19t-31 -6q-35 0 -64 21.5t-29 54.5q0 12 4 22q-54 -1 -82.5 12t-28.5 39q0 23 13 35t36 12q65 0 133 -57q40 2 40 13q0 12 -25 28h-8q-33 0 -57.5 20.5t-24.5 55.5q0 28 15 44t36 16q20 0 35 -14.5t15 -37.5t-11 -37q25 5 25 41q0 42 -41 67
q-49 3 -55 3q-10 0 -14.5 7.5t-4.5 16.5q0 23 19 23h3t7 -0.5t9 -0.5q-27 16 -27 39t19 34q-28 15 -28 42q0 41 38 41q7 0 32.5 -3t33.5 -3q9 0 9 8q0 6 -12.5 15t-33.5 17q-14 3 -27 9t-23 15.5t-16 23.5t-6 30q0 33 21 50.5t52 17.5q35 0 61.5 -21.5t26.5 -60.5
q0 -41 -34 -57q34 -22 34 -50q0 -43 -43 -43q-15 0 -37 2.5t-24 2.5zM272 642q0 -13 14 -21.5t31 -8.5q30 0 30 22q0 13 -14.5 22t-30.5 9q-14 0 -22 -6.5t-8 -16.5zM272 246q0 -16 25 -24q5 11 5 24q0 8 -5 12.5t-11 4.5q-4 0 -9 -5t-5 -12zM166 142q0 -10 78 -11
q-42 16 -67 16q-11 0 -11 -5zM322 38q25 0 25 20q0 14 -16.5 23.5t-36.5 9.5q-22 0 -22 -17q0 -16 16 -26t34 -10z" />
    <glyph glyph-name="agrave" unicode="&#xe0;" 
d="M286 486q-11 0 -11 -8q0 -10 15.5 -17.5t42.5 -9.5h14h24q19 0 19 -21q0 -15 -8.5 -20t-34.5 -5q-13 0 -33 3t-23 3q-8 0 -8 -6q0 -11 18.5 -20t46.5 -10h20t16 -7.5t6 -17.5q0 -24 -22 -24h-8q30 -30 30 -72q0 -45 -31 -67q31 -23 31 -50q0 -25 -28 -39q28 -21 28 -49
q0 -18 -10 -31t-24 -19t-31 -6q-35 0 -64 21.5t-29 54.5q0 12 4 22q-54 -1 -82.5 12t-28.5 39q0 23 13 35t36 12q65 0 133 -57q40 2 40 13q0 12 -25 28h-8q-33 0 -57.5 20.5t-24.5 55.5q0 28 15 44t36 16q20 0 35 -14.5t15 -37.5t-11 -37q25 5 25 41q0 42 -41 67
q-49 3 -55 3q-10 0 -14.5 7.5t-4.5 16.5q0 23 19 23h3t7 -0.5t9 -0.5q-27 16 -27 39t19 34q-28 15 -28 42q0 41 38 41q7 0 32.5 -3t33.5 -3q9 0 9 8q0 6 -12.5 15t-33.5 17q-14 3 -27 9t-23 15.5t-16 23.5t-6 30q0 33 21 50.5t52 17.5q35 0 61.5 -21.5t26.5 -60.5
q0 -41 -34 -57q34 -22 34 -50q0 -43 -43 -43q-15 0 -37 2.5t-24 2.5zM272 642q0 -13 14 -21.5t31 -8.5q30 0 30 22q0 13 -14.5 22t-30.5 9q-14 0 -22 -6.5t-8 -16.5zM272 246q0 -16 25 -24q5 11 5 24q0 8 -5 12.5t-11 4.5q-4 0 -9 -5t-5 -12zM166 142q0 -10 78 -11
q-42 16 -67 16q-11 0 -11 -5zM322 38q25 0 25 20q0 14 -16.5 23.5t-36.5 9.5q-22 0 -22 -17q0 -16 16 -26t34 -10z" />
    <glyph glyph-name="aacute" unicode="&#xe1;" 
d="M286 486q-11 0 -11 -8q0 -10 15.5 -17.5t42.5 -9.5h14h24q19 0 19 -21q0 -15 -8.5 -20t-34.5 -5q-13 0 -33 3t-23 3q-8 0 -8 -6q0 -11 18.5 -20t46.5 -10h20t16 -7.5t6 -17.5q0 -24 -22 -24h-8q30 -30 30 -72q0 -45 -31 -67q31 -23 31 -50q0 -25 -28 -39q28 -21 28 -49
q0 -18 -10 -31t-24 -19t-31 -6q-35 0 -64 21.5t-29 54.5q0 12 4 22q-54 -1 -82.5 12t-28.5 39q0 23 13 35t36 12q65 0 133 -57q40 2 40 13q0 12 -25 28h-8q-33 0 -57.5 20.5t-24.5 55.5q0 28 15 44t36 16q20 0 35 -14.5t15 -37.5t-11 -37q25 5 25 41q0 42 -41 67
q-49 3 -55 3q-10 0 -14.5 7.5t-4.5 16.5q0 23 19 23h3t7 -0.5t9 -0.5q-27 16 -27 39t19 34q-28 15 -28 42q0 41 38 41q7 0 32.5 -3t33.5 -3q9 0 9 8q0 6 -12.5 15t-33.5 17q-14 3 -27 9t-23 15.5t-16 23.5t-6 30q0 33 21 50.5t52 17.5q35 0 61.5 -21.5t26.5 -60.5
q0 -41 -34 -57q34 -22 34 -50q0 -43 -43 -43q-15 0 -37 2.5t-24 2.5zM272 642q0 -13 14 -21.5t31 -8.5q30 0 30 22q0 13 -14.5 22t-30.5 9q-14 0 -22 -6.5t-8 -16.5zM272 246q0 -16 25 -24q5 11 5 24q0 8 -5 12.5t-11 4.5q-4 0 -9 -5t-5 -12zM166 142q0 -10 78 -11
q-42 16 -67 16q-11 0 -11 -5zM322 38q25 0 25 20q0 14 -16.5 23.5t-36.5 9.5q-22 0 -22 -17q0 -16 16 -26t34 -10z" />
    <glyph glyph-name="acircumflex" unicode="&#xe2;" 
d="M286 486q-11 0 -11 -8q0 -10 15.5 -17.5t42.5 -9.5h14h24q19 0 19 -21q0 -15 -8.5 -20t-34.5 -5q-13 0 -33 3t-23 3q-8 0 -8 -6q0 -11 18.5 -20t46.5 -10h20t16 -7.5t6 -17.5q0 -24 -22 -24h-8q30 -30 30 -72q0 -45 -31 -67q31 -23 31 -50q0 -25 -28 -39q28 -21 28 -49
q0 -18 -10 -31t-24 -19t-31 -6q-35 0 -64 21.5t-29 54.5q0 12 4 22q-54 -1 -82.5 12t-28.5 39q0 23 13 35t36 12q65 0 133 -57q40 2 40 13q0 12 -25 28h-8q-33 0 -57.5 20.5t-24.5 55.5q0 28 15 44t36 16q20 0 35 -14.5t15 -37.5t-11 -37q25 5 25 41q0 42 -41 67
q-49 3 -55 3q-10 0 -14.5 7.5t-4.5 16.5q0 23 19 23h3t7 -0.5t9 -0.5q-27 16 -27 39t19 34q-28 15 -28 42q0 41 38 41q7 0 32.5 -3t33.5 -3q9 0 9 8q0 6 -12.5 15t-33.5 17q-14 3 -27 9t-23 15.5t-16 23.5t-6 30q0 33 21 50.5t52 17.5q35 0 61.5 -21.5t26.5 -60.5
q0 -41 -34 -57q34 -22 34 -50q0 -43 -43 -43q-15 0 -37 2.5t-24 2.5zM272 642q0 -13 14 -21.5t31 -8.5q30 0 30 22q0 13 -14.5 22t-30.5 9q-14 0 -22 -6.5t-8 -16.5zM272 246q0 -16 25 -24q5 11 5 24q0 8 -5 12.5t-11 4.5q-4 0 -9 -5t-5 -12zM166 142q0 -10 78 -11
q-42 16 -67 16q-11 0 -11 -5zM322 38q25 0 25 20q0 14 -16.5 23.5t-36.5 9.5q-22 0 -22 -17q0 -16 16 -26t34 -10z" />
    <glyph glyph-name="atilde" unicode="&#xe3;" 
d="M286 486q-11 0 -11 -8q0 -10 15.5 -17.5t42.5 -9.5h14h24q19 0 19 -21q0 -15 -8.5 -20t-34.5 -5q-13 0 -33 3t-23 3q-8 0 -8 -6q0 -11 18.5 -20t46.5 -10h20t16 -7.5t6 -17.5q0 -24 -22 -24h-8q30 -30 30 -72q0 -45 -31 -67q31 -23 31 -50q0 -25 -28 -39q28 -21 28 -49
q0 -18 -10 -31t-24 -19t-31 -6q-35 0 -64 21.5t-29 54.5q0 12 4 22q-54 -1 -82.5 12t-28.5 39q0 23 13 35t36 12q65 0 133 -57q40 2 40 13q0 12 -25 28h-8q-33 0 -57.5 20.5t-24.5 55.5q0 28 15 44t36 16q20 0 35 -14.5t15 -37.5t-11 -37q25 5 25 41q0 42 -41 67
q-49 3 -55 3q-10 0 -14.5 7.5t-4.5 16.5q0 23 19 23h3t7 -0.5t9 -0.5q-27 16 -27 39t19 34q-28 15 -28 42q0 41 38 41q7 0 32.5 -3t33.5 -3q9 0 9 8q0 6 -12.5 15t-33.5 17q-14 3 -27 9t-23 15.5t-16 23.5t-6 30q0 33 21 50.5t52 17.5q35 0 61.5 -21.5t26.5 -60.5
q0 -41 -34 -57q34 -22 34 -50q0 -43 -43 -43q-15 0 -37 2.5t-24 2.5zM272 642q0 -13 14 -21.5t31 -8.5q30 0 30 22q0 13 -14.5 22t-30.5 9q-14 0 -22 -6.5t-8 -16.5zM272 246q0 -16 25 -24q5 11 5 24q0 8 -5 12.5t-11 4.5q-4 0 -9 -5t-5 -12zM166 142q0 -10 78 -11
q-42 16 -67 16q-11 0 -11 -5zM322 38q25 0 25 20q0 14 -16.5 23.5t-36.5 9.5q-22 0 -22 -17q0 -16 16 -26t34 -10z" />
    <glyph glyph-name="adieresis" unicode="&#xe4;" 
d="M286 486q-11 0 -11 -8q0 -10 15.5 -17.5t42.5 -9.5h14h24q19 0 19 -21q0 -15 -8.5 -20t-34.5 -5q-13 0 -33 3t-23 3q-8 0 -8 -6q0 -11 18.5 -20t46.5 -10h20t16 -7.5t6 -17.5q0 -24 -22 -24h-8q30 -30 30 -72q0 -45 -31 -67q31 -23 31 -50q0 -25 -28 -39q28 -21 28 -49
q0 -18 -10 -31t-24 -19t-31 -6q-35 0 -64 21.5t-29 54.5q0 12 4 22q-54 -1 -82.5 12t-28.5 39q0 23 13 35t36 12q65 0 133 -57q40 2 40 13q0 12 -25 28h-8q-33 0 -57.5 20.5t-24.5 55.5q0 28 15 44t36 16q20 0 35 -14.5t15 -37.5t-11 -37q25 5 25 41q0 42 -41 67
q-49 3 -55 3q-10 0 -14.5 7.5t-4.5 16.5q0 23 19 23h3t7 -0.5t9 -0.5q-27 16 -27 39t19 34q-28 15 -28 42q0 41 38 41q7 0 32.5 -3t33.5 -3q9 0 9 8q0 6 -12.5 15t-33.5 17q-14 3 -27 9t-23 15.5t-16 23.5t-6 30q0 33 21 50.5t52 17.5q35 0 61.5 -21.5t26.5 -60.5
q0 -41 -34 -57q34 -22 34 -50q0 -43 -43 -43q-15 0 -37 2.5t-24 2.5zM272 642q0 -13 14 -21.5t31 -8.5q30 0 30 22q0 13 -14.5 22t-30.5 9q-14 0 -22 -6.5t-8 -16.5zM272 246q0 -16 25 -24q5 11 5 24q0 8 -5 12.5t-11 4.5q-4 0 -9 -5t-5 -12zM166 142q0 -10 78 -11
q-42 16 -67 16q-11 0 -11 -5zM322 38q25 0 25 20q0 14 -16.5 23.5t-36.5 9.5q-22 0 -22 -17q0 -16 16 -26t34 -10z" />
    <glyph glyph-name="aring" unicode="&#xe5;" 
d="M286 486q-11 0 -11 -8q0 -10 15.5 -17.5t42.5 -9.5h14h24q19 0 19 -21q0 -15 -8.5 -20t-34.5 -5q-13 0 -33 3t-23 3q-8 0 -8 -6q0 -11 18.5 -20t46.5 -10h20t16 -7.5t6 -17.5q0 -24 -22 -24h-8q30 -30 30 -72q0 -45 -31 -67q31 -23 31 -50q0 -25 -28 -39q28 -21 28 -49
q0 -18 -10 -31t-24 -19t-31 -6q-35 0 -64 21.5t-29 54.5q0 12 4 22q-54 -1 -82.5 12t-28.5 39q0 23 13 35t36 12q65 0 133 -57q40 2 40 13q0 12 -25 28h-8q-33 0 -57.5 20.5t-24.5 55.5q0 28 15 44t36 16q20 0 35 -14.5t15 -37.5t-11 -37q25 5 25 41q0 42 -41 67
q-49 3 -55 3q-10 0 -14.5 7.5t-4.5 16.5q0 23 19 23h3t7 -0.5t9 -0.5q-27 16 -27 39t19 34q-28 15 -28 42q0 41 38 41q7 0 32.5 -3t33.5 -3q9 0 9 8q0 6 -12.5 15t-33.5 17q-14 3 -27 9t-23 15.5t-16 23.5t-6 30q0 33 21 50.5t52 17.5q35 0 61.5 -21.5t26.5 -60.5
q0 -41 -34 -57q34 -22 34 -50q0 -43 -43 -43q-15 0 -37 2.5t-24 2.5zM272 642q0 -13 14 -21.5t31 -8.5q30 0 30 22q0 13 -14.5 22t-30.5 9q-14 0 -22 -6.5t-8 -16.5zM272 246q0 -16 25 -24q5 11 5 24q0 8 -5 12.5t-11 4.5q-4 0 -9 -5t-5 -12zM166 142q0 -10 78 -11
q-42 16 -67 16q-11 0 -11 -5zM322 38q25 0 25 20q0 14 -16.5 23.5t-36.5 9.5q-22 0 -22 -17q0 -16 16 -26t34 -10z" />
    <glyph glyph-name="ae" unicode="&#xe6;" 
d="M286 486q-11 0 -11 -8q0 -10 15.5 -17.5t42.5 -9.5h14h24q19 0 19 -21q0 -15 -8.5 -20t-34.5 -5q-13 0 -33 3t-23 3q-8 0 -8 -6q0 -11 18.5 -20t46.5 -10h20t16 -7.5t6 -17.5q0 -24 -22 -24h-8q30 -30 30 -72q0 -45 -31 -67q31 -23 31 -50q0 -25 -28 -39q28 -21 28 -49
q0 -18 -10 -31t-24 -19t-31 -6q-35 0 -64 21.5t-29 54.5q0 12 4 22q-54 -1 -82.5 12t-28.5 39q0 23 13 35t36 12q65 0 133 -57q40 2 40 13q0 12 -25 28h-8q-33 0 -57.5 20.5t-24.5 55.5q0 28 15 44t36 16q20 0 35 -14.5t15 -37.5t-11 -37q25 5 25 41q0 42 -41 67
q-49 3 -55 3q-10 0 -14.5 7.5t-4.5 16.5q0 23 19 23h3t7 -0.5t9 -0.5q-27 16 -27 39t19 34q-28 15 -28 42q0 41 38 41q7 0 32.5 -3t33.5 -3q9 0 9 8q0 6 -12.5 15t-33.5 17q-14 3 -27 9t-23 15.5t-16 23.5t-6 30q0 33 21 50.5t52 17.5q35 0 61.5 -21.5t26.5 -60.5
q0 -41 -34 -57q34 -22 34 -50q0 -43 -43 -43q-15 0 -37 2.5t-24 2.5zM272 642q0 -13 14 -21.5t31 -8.5q30 0 30 22q0 13 -14.5 22t-30.5 9q-14 0 -22 -6.5t-8 -16.5zM272 246q0 -16 25 -24q5 11 5 24q0 8 -5 12.5t-11 4.5q-4 0 -9 -5t-5 -12zM166 142q0 -10 78 -11
q-42 16 -67 16q-11 0 -11 -5zM322 38q25 0 25 20q0 14 -16.5 23.5t-36.5 9.5q-22 0 -22 -17q0 -16 16 -26t34 -10z" />
    <glyph glyph-name="ccedilla" unicode="&#xe7;" 
d="M286 486q-11 0 -11 -8q0 -10 15.5 -17.5t42.5 -9.5h14h24q19 0 19 -21q0 -15 -8.5 -20t-34.5 -5q-13 0 -33 3t-23 3q-8 0 -8 -6q0 -11 18.5 -20t46.5 -10h20t16 -7.5t6 -17.5q0 -24 -22 -24h-8q30 -30 30 -72q0 -45 -31 -67q31 -23 31 -50q0 -25 -28 -39q28 -21 28 -49
q0 -18 -10 -31t-24 -19t-31 -6q-35 0 -64 21.5t-29 54.5q0 12 4 22q-54 -1 -82.5 12t-28.5 39q0 23 13 35t36 12q65 0 133 -57q40 2 40 13q0 12 -25 28h-8q-33 0 -57.5 20.5t-24.5 55.5q0 28 15 44t36 16q20 0 35 -14.5t15 -37.5t-11 -37q25 5 25 41q0 42 -41 67
q-49 3 -55 3q-10 0 -14.5 7.5t-4.5 16.5q0 23 19 23h3t7 -0.5t9 -0.5q-27 16 -27 39t19 34q-28 15 -28 42q0 41 38 41q7 0 32.5 -3t33.5 -3q9 0 9 8q0 6 -12.5 15t-33.5 17q-14 3 -27 9t-23 15.5t-16 23.5t-6 30q0 33 21 50.5t52 17.5q35 0 61.5 -21.5t26.5 -60.5
q0 -41 -34 -57q34 -22 34 -50q0 -43 -43 -43q-15 0 -37 2.5t-24 2.5zM272 642q0 -13 14 -21.5t31 -8.5q30 0 30 22q0 13 -14.5 22t-30.5 9q-14 0 -22 -6.5t-8 -16.5zM272 246q0 -16 25 -24q5 11 5 24q0 8 -5 12.5t-11 4.5q-4 0 -9 -5t-5 -12zM166 142q0 -10 78 -11
q-42 16 -67 16q-11 0 -11 -5zM322 38q25 0 25 20q0 14 -16.5 23.5t-36.5 9.5q-22 0 -22 -17q0 -16 16 -26t34 -10z" />
    <glyph glyph-name="egrave" unicode="&#xe8;" 
d="M286 486q-11 0 -11 -8q0 -10 15.5 -17.5t42.5 -9.5h14h24q19 0 19 -21q0 -15 -8.5 -20t-34.5 -5q-13 0 -33 3t-23 3q-8 0 -8 -6q0 -11 18.5 -20t46.5 -10h20t16 -7.5t6 -17.5q0 -24 -22 -24h-8q30 -30 30 -72q0 -45 -31 -67q31 -23 31 -50q0 -25 -28 -39q28 -21 28 -49
q0 -18 -10 -31t-24 -19t-31 -6q-35 0 -64 21.5t-29 54.5q0 12 4 22q-54 -1 -82.5 12t-28.5 39q0 23 13 35t36 12q65 0 133 -57q40 2 40 13q0 12 -25 28h-8q-33 0 -57.5 20.5t-24.5 55.5q0 28 15 44t36 16q20 0 35 -14.5t15 -37.5t-11 -37q25 5 25 41q0 42 -41 67
q-49 3 -55 3q-10 0 -14.5 7.5t-4.5 16.5q0 23 19 23h3t7 -0.5t9 -0.5q-27 16 -27 39t19 34q-28 15 -28 42q0 41 38 41q7 0 32.5 -3t33.5 -3q9 0 9 8q0 6 -12.5 15t-33.5 17q-14 3 -27 9t-23 15.5t-16 23.5t-6 30q0 33 21 50.5t52 17.5q35 0 61.5 -21.5t26.5 -60.5
q0 -41 -34 -57q34 -22 34 -50q0 -43 -43 -43q-15 0 -37 2.5t-24 2.5zM272 642q0 -13 14 -21.5t31 -8.5q30 0 30 22q0 13 -14.5 22t-30.5 9q-14 0 -22 -6.5t-8 -16.5zM272 246q0 -16 25 -24q5 11 5 24q0 8 -5 12.5t-11 4.5q-4 0 -9 -5t-5 -12zM166 142q0 -10 78 -11
q-42 16 -67 16q-11 0 -11 -5zM322 38q25 0 25 20q0 14 -16.5 23.5t-36.5 9.5q-22 0 -22 -17q0 -16 16 -26t34 -10z" />
    <glyph glyph-name="eacute" unicode="&#xe9;" 
d="M286 486q-11 0 -11 -8q0 -10 15.5 -17.5t42.5 -9.5h14h24q19 0 19 -21q0 -15 -8.5 -20t-34.5 -5q-13 0 -33 3t-23 3q-8 0 -8 -6q0 -11 18.5 -20t46.5 -10h20t16 -7.5t6 -17.5q0 -24 -22 -24h-8q30 -30 30 -72q0 -45 -31 -67q31 -23 31 -50q0 -25 -28 -39q28 -21 28 -49
q0 -18 -10 -31t-24 -19t-31 -6q-35 0 -64 21.5t-29 54.5q0 12 4 22q-54 -1 -82.5 12t-28.5 39q0 23 13 35t36 12q65 0 133 -57q40 2 40 13q0 12 -25 28h-8q-33 0 -57.5 20.5t-24.5 55.5q0 28 15 44t36 16q20 0 35 -14.5t15 -37.5t-11 -37q25 5 25 41q0 42 -41 67
q-49 3 -55 3q-10 0 -14.5 7.5t-4.5 16.5q0 23 19 23h3t7 -0.5t9 -0.5q-27 16 -27 39t19 34q-28 15 -28 42q0 41 38 41q7 0 32.5 -3t33.5 -3q9 0 9 8q0 6 -12.5 15t-33.5 17q-14 3 -27 9t-23 15.5t-16 23.5t-6 30q0 33 21 50.5t52 17.5q35 0 61.5 -21.5t26.5 -60.5
q0 -41 -34 -57q34 -22 34 -50q0 -43 -43 -43q-15 0 -37 2.5t-24 2.5zM272 642q0 -13 14 -21.5t31 -8.5q30 0 30 22q0 13 -14.5 22t-30.5 9q-14 0 -22 -6.5t-8 -16.5zM272 246q0 -16 25 -24q5 11 5 24q0 8 -5 12.5t-11 4.5q-4 0 -9 -5t-5 -12zM166 142q0 -10 78 -11
q-42 16 -67 16q-11 0 -11 -5zM322 38q25 0 25 20q0 14 -16.5 23.5t-36.5 9.5q-22 0 -22 -17q0 -16 16 -26t34 -10z" />
    <glyph glyph-name="ecircumflex" unicode="&#xea;" 
d="M286 486q-11 0 -11 -8q0 -10 15.5 -17.5t42.5 -9.5h14h24q19 0 19 -21q0 -15 -8.5 -20t-34.5 -5q-13 0 -33 3t-23 3q-8 0 -8 -6q0 -11 18.5 -20t46.5 -10h20t16 -7.5t6 -17.5q0 -24 -22 -24h-8q30 -30 30 -72q0 -45 -31 -67q31 -23 31 -50q0 -25 -28 -39q28 -21 28 -49
q0 -18 -10 -31t-24 -19t-31 -6q-35 0 -64 21.5t-29 54.5q0 12 4 22q-54 -1 -82.5 12t-28.5 39q0 23 13 35t36 12q65 0 133 -57q40 2 40 13q0 12 -25 28h-8q-33 0 -57.5 20.5t-24.5 55.5q0 28 15 44t36 16q20 0 35 -14.5t15 -37.5t-11 -37q25 5 25 41q0 42 -41 67
q-49 3 -55 3q-10 0 -14.5 7.5t-4.5 16.5q0 23 19 23h3t7 -0.5t9 -0.5q-27 16 -27 39t19 34q-28 15 -28 42q0 41 38 41q7 0 32.5 -3t33.5 -3q9 0 9 8q0 6 -12.5 15t-33.5 17q-14 3 -27 9t-23 15.5t-16 23.5t-6 30q0 33 21 50.5t52 17.5q35 0 61.5 -21.5t26.5 -60.5
q0 -41 -34 -57q34 -22 34 -50q0 -43 -43 -43q-15 0 -37 2.5t-24 2.5zM272 642q0 -13 14 -21.5t31 -8.5q30 0 30 22q0 13 -14.5 22t-30.5 9q-14 0 -22 -6.5t-8 -16.5zM272 246q0 -16 25 -24q5 11 5 24q0 8 -5 12.5t-11 4.5q-4 0 -9 -5t-5 -12zM166 142q0 -10 78 -11
q-42 16 -67 16q-11 0 -11 -5zM322 38q25 0 25 20q0 14 -16.5 23.5t-36.5 9.5q-22 0 -22 -17q0 -16 16 -26t34 -10z" />
    <glyph glyph-name="edieresis" unicode="&#xeb;" 
d="M286 486q-11 0 -11 -8q0 -10 15.5 -17.5t42.5 -9.5h14h24q19 0 19 -21q0 -15 -8.5 -20t-34.5 -5q-13 0 -33 3t-23 3q-8 0 -8 -6q0 -11 18.5 -20t46.5 -10h20t16 -7.5t6 -17.5q0 -24 -22 -24h-8q30 -30 30 -72q0 -45 -31 -67q31 -23 31 -50q0 -25 -28 -39q28 -21 28 -49
q0 -18 -10 -31t-24 -19t-31 -6q-35 0 -64 21.5t-29 54.5q0 12 4 22q-54 -1 -82.5 12t-28.5 39q0 23 13 35t36 12q65 0 133 -57q40 2 40 13q0 12 -25 28h-8q-33 0 -57.5 20.5t-24.5 55.5q0 28 15 44t36 16q20 0 35 -14.5t15 -37.5t-11 -37q25 5 25 41q0 42 -41 67
q-49 3 -55 3q-10 0 -14.5 7.5t-4.5 16.5q0 23 19 23h3t7 -0.5t9 -0.5q-27 16 -27 39t19 34q-28 15 -28 42q0 41 38 41q7 0 32.5 -3t33.5 -3q9 0 9 8q0 6 -12.5 15t-33.5 17q-14 3 -27 9t-23 15.5t-16 23.5t-6 30q0 33 21 50.5t52 17.5q35 0 61.5 -21.5t26.5 -60.5
q0 -41 -34 -57q34 -22 34 -50q0 -43 -43 -43q-15 0 -37 2.5t-24 2.5zM272 642q0 -13 14 -21.5t31 -8.5q30 0 30 22q0 13 -14.5 22t-30.5 9q-14 0 -22 -6.5t-8 -16.5zM272 246q0 -16 25 -24q5 11 5 24q0 8 -5 12.5t-11 4.5q-4 0 -9 -5t-5 -12zM166 142q0 -10 78 -11
q-42 16 -67 16q-11 0 -11 -5zM322 38q25 0 25 20q0 14 -16.5 23.5t-36.5 9.5q-22 0 -22 -17q0 -16 16 -26t34 -10z" />
    <glyph glyph-name="igrave" unicode="&#xec;" 
d="M286 486q-11 0 -11 -8q0 -10 15.5 -17.5t42.5 -9.5h14h24q19 0 19 -21q0 -15 -8.5 -20t-34.5 -5q-13 0 -33 3t-23 3q-8 0 -8 -6q0 -11 18.5 -20t46.5 -10h20t16 -7.5t6 -17.5q0 -24 -22 -24h-8q30 -30 30 -72q0 -45 -31 -67q31 -23 31 -50q0 -25 -28 -39q28 -21 28 -49
q0 -18 -10 -31t-24 -19t-31 -6q-35 0 -64 21.5t-29 54.5q0 12 4 22q-54 -1 -82.5 12t-28.5 39q0 23 13 35t36 12q65 0 133 -57q40 2 40 13q0 12 -25 28h-8q-33 0 -57.5 20.5t-24.5 55.5q0 28 15 44t36 16q20 0 35 -14.5t15 -37.5t-11 -37q25 5 25 41q0 42 -41 67
q-49 3 -55 3q-10 0 -14.5 7.5t-4.5 16.5q0 23 19 23h3t7 -0.5t9 -0.5q-27 16 -27 39t19 34q-28 15 -28 42q0 41 38 41q7 0 32.5 -3t33.5 -3q9 0 9 8q0 6 -12.5 15t-33.5 17q-14 3 -27 9t-23 15.5t-16 23.5t-6 30q0 33 21 50.5t52 17.5q35 0 61.5 -21.5t26.5 -60.5
q0 -41 -34 -57q34 -22 34 -50q0 -43 -43 -43q-15 0 -37 2.5t-24 2.5zM272 642q0 -13 14 -21.5t31 -8.5q30 0 30 22q0 13 -14.5 22t-30.5 9q-14 0 -22 -6.5t-8 -16.5zM272 246q0 -16 25 -24q5 11 5 24q0 8 -5 12.5t-11 4.5q-4 0 -9 -5t-5 -12zM166 142q0 -10 78 -11
q-42 16 -67 16q-11 0 -11 -5zM322 38q25 0 25 20q0 14 -16.5 23.5t-36.5 9.5q-22 0 -22 -17q0 -16 16 -26t34 -10z" />
    <glyph glyph-name="iacute" unicode="&#xed;" 
d="M286 486q-11 0 -11 -8q0 -10 15.5 -17.5t42.5 -9.5h14h24q19 0 19 -21q0 -15 -8.5 -20t-34.5 -5q-13 0 -33 3t-23 3q-8 0 -8 -6q0 -11 18.5 -20t46.5 -10h20t16 -7.5t6 -17.5q0 -24 -22 -24h-8q30 -30 30 -72q0 -45 -31 -67q31 -23 31 -50q0 -25 -28 -39q28 -21 28 -49
q0 -18 -10 -31t-24 -19t-31 -6q-35 0 -64 21.5t-29 54.5q0 12 4 22q-54 -1 -82.5 12t-28.5 39q0 23 13 35t36 12q65 0 133 -57q40 2 40 13q0 12 -25 28h-8q-33 0 -57.5 20.5t-24.5 55.5q0 28 15 44t36 16q20 0 35 -14.5t15 -37.5t-11 -37q25 5 25 41q0 42 -41 67
q-49 3 -55 3q-10 0 -14.5 7.5t-4.5 16.5q0 23 19 23h3t7 -0.5t9 -0.5q-27 16 -27 39t19 34q-28 15 -28 42q0 41 38 41q7 0 32.5 -3t33.5 -3q9 0 9 8q0 6 -12.5 15t-33.5 17q-14 3 -27 9t-23 15.5t-16 23.5t-6 30q0 33 21 50.5t52 17.5q35 0 61.5 -21.5t26.5 -60.5
q0 -41 -34 -57q34 -22 34 -50q0 -43 -43 -43q-15 0 -37 2.5t-24 2.5zM272 642q0 -13 14 -21.5t31 -8.5q30 0 30 22q0 13 -14.5 22t-30.5 9q-14 0 -22 -6.5t-8 -16.5zM272 246q0 -16 25 -24q5 11 5 24q0 8 -5 12.5t-11 4.5q-4 0 -9 -5t-5 -12zM166 142q0 -10 78 -11
q-42 16 -67 16q-11 0 -11 -5zM322 38q25 0 25 20q0 14 -16.5 23.5t-36.5 9.5q-22 0 -22 -17q0 -16 16 -26t34 -10z" />
    <glyph glyph-name="icircumflex" unicode="&#xee;" 
d="M286 486q-11 0 -11 -8q0 -10 15.5 -17.5t42.5 -9.5h14h24q19 0 19 -21q0 -15 -8.5 -20t-34.5 -5q-13 0 -33 3t-23 3q-8 0 -8 -6q0 -11 18.5 -20t46.5 -10h20t16 -7.5t6 -17.5q0 -24 -22 -24h-8q30 -30 30 -72q0 -45 -31 -67q31 -23 31 -50q0 -25 -28 -39q28 -21 28 -49
q0 -18 -10 -31t-24 -19t-31 -6q-35 0 -64 21.5t-29 54.5q0 12 4 22q-54 -1 -82.5 12t-28.5 39q0 23 13 35t36 12q65 0 133 -57q40 2 40 13q0 12 -25 28h-8q-33 0 -57.5 20.5t-24.5 55.5q0 28 15 44t36 16q20 0 35 -14.5t15 -37.5t-11 -37q25 5 25 41q0 42 -41 67
q-49 3 -55 3q-10 0 -14.5 7.5t-4.5 16.5q0 23 19 23h3t7 -0.5t9 -0.5q-27 16 -27 39t19 34q-28 15 -28 42q0 41 38 41q7 0 32.5 -3t33.5 -3q9 0 9 8q0 6 -12.5 15t-33.5 17q-14 3 -27 9t-23 15.5t-16 23.5t-6 30q0 33 21 50.5t52 17.5q35 0 61.5 -21.5t26.5 -60.5
q0 -41 -34 -57q34 -22 34 -50q0 -43 -43 -43q-15 0 -37 2.5t-24 2.5zM272 642q0 -13 14 -21.5t31 -8.5q30 0 30 22q0 13 -14.5 22t-30.5 9q-14 0 -22 -6.5t-8 -16.5zM272 246q0 -16 25 -24q5 11 5 24q0 8 -5 12.5t-11 4.5q-4 0 -9 -5t-5 -12zM166 142q0 -10 78 -11
q-42 16 -67 16q-11 0 -11 -5zM322 38q25 0 25 20q0 14 -16.5 23.5t-36.5 9.5q-22 0 -22 -17q0 -16 16 -26t34 -10z" />
    <glyph glyph-name="idieresis" unicode="&#xef;" 
d="M286 486q-11 0 -11 -8q0 -10 15.5 -17.5t42.5 -9.5h14h24q19 0 19 -21q0 -15 -8.5 -20t-34.5 -5q-13 0 -33 3t-23 3q-8 0 -8 -6q0 -11 18.5 -20t46.5 -10h20t16 -7.5t6 -17.5q0 -24 -22 -24h-8q30 -30 30 -72q0 -45 -31 -67q31 -23 31 -50q0 -25 -28 -39q28 -21 28 -49
q0 -18 -10 -31t-24 -19t-31 -6q-35 0 -64 21.5t-29 54.5q0 12 4 22q-54 -1 -82.5 12t-28.5 39q0 23 13 35t36 12q65 0 133 -57q40 2 40 13q0 12 -25 28h-8q-33 0 -57.5 20.5t-24.5 55.5q0 28 15 44t36 16q20 0 35 -14.5t15 -37.5t-11 -37q25 5 25 41q0 42 -41 67
q-49 3 -55 3q-10 0 -14.5 7.5t-4.5 16.5q0 23 19 23h3t7 -0.5t9 -0.5q-27 16 -27 39t19 34q-28 15 -28 42q0 41 38 41q7 0 32.5 -3t33.5 -3q9 0 9 8q0 6 -12.5 15t-33.5 17q-14 3 -27 9t-23 15.5t-16 23.5t-6 30q0 33 21 50.5t52 17.5q35 0 61.5 -21.5t26.5 -60.5
q0 -41 -34 -57q34 -22 34 -50q0 -43 -43 -43q-15 0 -37 2.5t-24 2.5zM272 642q0 -13 14 -21.5t31 -8.5q30 0 30 22q0 13 -14.5 22t-30.5 9q-14 0 -22 -6.5t-8 -16.5zM272 246q0 -16 25 -24q5 11 5 24q0 8 -5 12.5t-11 4.5q-4 0 -9 -5t-5 -12zM166 142q0 -10 78 -11
q-42 16 -67 16q-11 0 -11 -5zM322 38q25 0 25 20q0 14 -16.5 23.5t-36.5 9.5q-22 0 -22 -17q0 -16 16 -26t34 -10z" />
    <glyph glyph-name="eth" unicode="&#xf0;" 
d="M286 486q-11 0 -11 -8q0 -10 15.5 -17.5t42.5 -9.5h14h24q19 0 19 -21q0 -15 -8.5 -20t-34.5 -5q-13 0 -33 3t-23 3q-8 0 -8 -6q0 -11 18.5 -20t46.5 -10h20t16 -7.5t6 -17.5q0 -24 -22 -24h-8q30 -30 30 -72q0 -45 -31 -67q31 -23 31 -50q0 -25 -28 -39q28 -21 28 -49
q0 -18 -10 -31t-24 -19t-31 -6q-35 0 -64 21.5t-29 54.5q0 12 4 22q-54 -1 -82.5 12t-28.5 39q0 23 13 35t36 12q65 0 133 -57q40 2 40 13q0 12 -25 28h-8q-33 0 -57.5 20.5t-24.5 55.5q0 28 15 44t36 16q20 0 35 -14.5t15 -37.5t-11 -37q25 5 25 41q0 42 -41 67
q-49 3 -55 3q-10 0 -14.5 7.5t-4.5 16.5q0 23 19 23h3t7 -0.5t9 -0.5q-27 16 -27 39t19 34q-28 15 -28 42q0 41 38 41q7 0 32.5 -3t33.5 -3q9 0 9 8q0 6 -12.5 15t-33.5 17q-14 3 -27 9t-23 15.5t-16 23.5t-6 30q0 33 21 50.5t52 17.5q35 0 61.5 -21.5t26.5 -60.5
q0 -41 -34 -57q34 -22 34 -50q0 -43 -43 -43q-15 0 -37 2.5t-24 2.5zM272 642q0 -13 14 -21.5t31 -8.5q30 0 30 22q0 13 -14.5 22t-30.5 9q-14 0 -22 -6.5t-8 -16.5zM272 246q0 -16 25 -24q5 11 5 24q0 8 -5 12.5t-11 4.5q-4 0 -9 -5t-5 -12zM166 142q0 -10 78 -11
q-42 16 -67 16q-11 0 -11 -5zM322 38q25 0 25 20q0 14 -16.5 23.5t-36.5 9.5q-22 0 -22 -17q0 -16 16 -26t34 -10z" />
    <glyph glyph-name="ntilde" unicode="&#xf1;" 
d="M286 486q-11 0 -11 -8q0 -10 15.5 -17.5t42.5 -9.5h14h24q19 0 19 -21q0 -15 -8.5 -20t-34.5 -5q-13 0 -33 3t-23 3q-8 0 -8 -6q0 -11 18.5 -20t46.5 -10h20t16 -7.5t6 -17.5q0 -24 -22 -24h-8q30 -30 30 -72q0 -45 -31 -67q31 -23 31 -50q0 -25 -28 -39q28 -21 28 -49
q0 -18 -10 -31t-24 -19t-31 -6q-35 0 -64 21.5t-29 54.5q0 12 4 22q-54 -1 -82.5 12t-28.5 39q0 23 13 35t36 12q65 0 133 -57q40 2 40 13q0 12 -25 28h-8q-33 0 -57.5 20.5t-24.5 55.5q0 28 15 44t36 16q20 0 35 -14.5t15 -37.5t-11 -37q25 5 25 41q0 42 -41 67
q-49 3 -55 3q-10 0 -14.5 7.5t-4.5 16.5q0 23 19 23h3t7 -0.5t9 -0.5q-27 16 -27 39t19 34q-28 15 -28 42q0 41 38 41q7 0 32.5 -3t33.5 -3q9 0 9 8q0 6 -12.5 15t-33.5 17q-14 3 -27 9t-23 15.5t-16 23.5t-6 30q0 33 21 50.5t52 17.5q35 0 61.5 -21.5t26.5 -60.5
q0 -41 -34 -57q34 -22 34 -50q0 -43 -43 -43q-15 0 -37 2.5t-24 2.5zM272 642q0 -13 14 -21.5t31 -8.5q30 0 30 22q0 13 -14.5 22t-30.5 9q-14 0 -22 -6.5t-8 -16.5zM272 246q0 -16 25 -24q5 11 5 24q0 8 -5 12.5t-11 4.5q-4 0 -9 -5t-5 -12zM166 142q0 -10 78 -11
q-42 16 -67 16q-11 0 -11 -5zM322 38q25 0 25 20q0 14 -16.5 23.5t-36.5 9.5q-22 0 -22 -17q0 -16 16 -26t34 -10z" />
    <glyph glyph-name="ograve" unicode="&#xf2;" 
d="M286 486q-11 0 -11 -8q0 -10 15.5 -17.5t42.5 -9.5h14h24q19 0 19 -21q0 -15 -8.5 -20t-34.5 -5q-13 0 -33 3t-23 3q-8 0 -8 -6q0 -11 18.5 -20t46.5 -10h20t16 -7.5t6 -17.5q0 -24 -22 -24h-8q30 -30 30 -72q0 -45 -31 -67q31 -23 31 -50q0 -25 -28 -39q28 -21 28 -49
q0 -18 -10 -31t-24 -19t-31 -6q-35 0 -64 21.5t-29 54.5q0 12 4 22q-54 -1 -82.5 12t-28.5 39q0 23 13 35t36 12q65 0 133 -57q40 2 40 13q0 12 -25 28h-8q-33 0 -57.5 20.5t-24.5 55.5q0 28 15 44t36 16q20 0 35 -14.5t15 -37.5t-11 -37q25 5 25 41q0 42 -41 67
q-49 3 -55 3q-10 0 -14.5 7.5t-4.5 16.5q0 23 19 23h3t7 -0.5t9 -0.5q-27 16 -27 39t19 34q-28 15 -28 42q0 41 38 41q7 0 32.5 -3t33.5 -3q9 0 9 8q0 6 -12.5 15t-33.5 17q-14 3 -27 9t-23 15.5t-16 23.5t-6 30q0 33 21 50.5t52 17.5q35 0 61.5 -21.5t26.5 -60.5
q0 -41 -34 -57q34 -22 34 -50q0 -43 -43 -43q-15 0 -37 2.5t-24 2.5zM272 642q0 -13 14 -21.5t31 -8.5q30 0 30 22q0 13 -14.5 22t-30.5 9q-14 0 -22 -6.5t-8 -16.5zM272 246q0 -16 25 -24q5 11 5 24q0 8 -5 12.5t-11 4.5q-4 0 -9 -5t-5 -12zM166 142q0 -10 78 -11
q-42 16 -67 16q-11 0 -11 -5zM322 38q25 0 25 20q0 14 -16.5 23.5t-36.5 9.5q-22 0 -22 -17q0 -16 16 -26t34 -10z" />
    <glyph glyph-name="oacute" unicode="&#xf3;" 
d="M286 486q-11 0 -11 -8q0 -10 15.5 -17.5t42.5 -9.5h14h24q19 0 19 -21q0 -15 -8.5 -20t-34.5 -5q-13 0 -33 3t-23 3q-8 0 -8 -6q0 -11 18.5 -20t46.5 -10h20t16 -7.5t6 -17.5q0 -24 -22 -24h-8q30 -30 30 -72q0 -45 -31 -67q31 -23 31 -50q0 -25 -28 -39q28 -21 28 -49
q0 -18 -10 -31t-24 -19t-31 -6q-35 0 -64 21.5t-29 54.5q0 12 4 22q-54 -1 -82.5 12t-28.5 39q0 23 13 35t36 12q65 0 133 -57q40 2 40 13q0 12 -25 28h-8q-33 0 -57.5 20.5t-24.5 55.5q0 28 15 44t36 16q20 0 35 -14.5t15 -37.5t-11 -37q25 5 25 41q0 42 -41 67
q-49 3 -55 3q-10 0 -14.5 7.5t-4.5 16.5q0 23 19 23h3t7 -0.5t9 -0.5q-27 16 -27 39t19 34q-28 15 -28 42q0 41 38 41q7 0 32.5 -3t33.5 -3q9 0 9 8q0 6 -12.5 15t-33.5 17q-14 3 -27 9t-23 15.5t-16 23.5t-6 30q0 33 21 50.5t52 17.5q35 0 61.5 -21.5t26.5 -60.5
q0 -41 -34 -57q34 -22 34 -50q0 -43 -43 -43q-15 0 -37 2.5t-24 2.5zM272 642q0 -13 14 -21.5t31 -8.5q30 0 30 22q0 13 -14.5 22t-30.5 9q-14 0 -22 -6.5t-8 -16.5zM272 246q0 -16 25 -24q5 11 5 24q0 8 -5 12.5t-11 4.5q-4 0 -9 -5t-5 -12zM166 142q0 -10 78 -11
q-42 16 -67 16q-11 0 -11 -5zM322 38q25 0 25 20q0 14 -16.5 23.5t-36.5 9.5q-22 0 -22 -17q0 -16 16 -26t34 -10z" />
    <glyph glyph-name="ocircumflex" unicode="&#xf4;" 
d="M286 486q-11 0 -11 -8q0 -10 15.5 -17.5t42.5 -9.5h14h24q19 0 19 -21q0 -15 -8.5 -20t-34.5 -5q-13 0 -33 3t-23 3q-8 0 -8 -6q0 -11 18.5 -20t46.5 -10h20t16 -7.5t6 -17.5q0 -24 -22 -24h-8q30 -30 30 -72q0 -45 -31 -67q31 -23 31 -50q0 -25 -28 -39q28 -21 28 -49
q0 -18 -10 -31t-24 -19t-31 -6q-35 0 -64 21.5t-29 54.5q0 12 4 22q-54 -1 -82.5 12t-28.5 39q0 23 13 35t36 12q65 0 133 -57q40 2 40 13q0 12 -25 28h-8q-33 0 -57.5 20.5t-24.5 55.5q0 28 15 44t36 16q20 0 35 -14.5t15 -37.5t-11 -37q25 5 25 41q0 42 -41 67
q-49 3 -55 3q-10 0 -14.5 7.5t-4.5 16.5q0 23 19 23h3t7 -0.5t9 -0.5q-27 16 -27 39t19 34q-28 15 -28 42q0 41 38 41q7 0 32.5 -3t33.5 -3q9 0 9 8q0 6 -12.5 15t-33.5 17q-14 3 -27 9t-23 15.5t-16 23.5t-6 30q0 33 21 50.5t52 17.5q35 0 61.5 -21.5t26.5 -60.5
q0 -41 -34 -57q34 -22 34 -50q0 -43 -43 -43q-15 0 -37 2.5t-24 2.5zM272 642q0 -13 14 -21.5t31 -8.5q30 0 30 22q0 13 -14.5 22t-30.5 9q-14 0 -22 -6.5t-8 -16.5zM272 246q0 -16 25 -24q5 11 5 24q0 8 -5 12.5t-11 4.5q-4 0 -9 -5t-5 -12zM166 142q0 -10 78 -11
q-42 16 -67 16q-11 0 -11 -5zM322 38q25 0 25 20q0 14 -16.5 23.5t-36.5 9.5q-22 0 -22 -17q0 -16 16 -26t34 -10z" />
    <glyph glyph-name="otilde" unicode="&#xf5;" 
d="M286 486q-11 0 -11 -8q0 -10 15.5 -17.5t42.5 -9.5h14h24q19 0 19 -21q0 -15 -8.5 -20t-34.5 -5q-13 0 -33 3t-23 3q-8 0 -8 -6q0 -11 18.5 -20t46.5 -10h20t16 -7.5t6 -17.5q0 -24 -22 -24h-8q30 -30 30 -72q0 -45 -31 -67q31 -23 31 -50q0 -25 -28 -39q28 -21 28 -49
q0 -18 -10 -31t-24 -19t-31 -6q-35 0 -64 21.5t-29 54.5q0 12 4 22q-54 -1 -82.5 12t-28.5 39q0 23 13 35t36 12q65 0 133 -57q40 2 40 13q0 12 -25 28h-8q-33 0 -57.5 20.5t-24.5 55.5q0 28 15 44t36 16q20 0 35 -14.5t15 -37.5t-11 -37q25 5 25 41q0 42 -41 67
q-49 3 -55 3q-10 0 -14.5 7.5t-4.5 16.5q0 23 19 23h3t7 -0.5t9 -0.5q-27 16 -27 39t19 34q-28 15 -28 42q0 41 38 41q7 0 32.5 -3t33.5 -3q9 0 9 8q0 6 -12.5 15t-33.5 17q-14 3 -27 9t-23 15.5t-16 23.5t-6 30q0 33 21 50.5t52 17.5q35 0 61.5 -21.5t26.5 -60.5
q0 -41 -34 -57q34 -22 34 -50q0 -43 -43 -43q-15 0 -37 2.5t-24 2.5zM272 642q0 -13 14 -21.5t31 -8.5q30 0 30 22q0 13 -14.5 22t-30.5 9q-14 0 -22 -6.5t-8 -16.5zM272 246q0 -16 25 -24q5 11 5 24q0 8 -5 12.5t-11 4.5q-4 0 -9 -5t-5 -12zM166 142q0 -10 78 -11
q-42 16 -67 16q-11 0 -11 -5zM322 38q25 0 25 20q0 14 -16.5 23.5t-36.5 9.5q-22 0 -22 -17q0 -16 16 -26t34 -10z" />
    <glyph glyph-name="odieresis" unicode="&#xf6;" 
d="M286 486q-11 0 -11 -8q0 -10 15.5 -17.5t42.5 -9.5h14h24q19 0 19 -21q0 -15 -8.5 -20t-34.5 -5q-13 0 -33 3t-23 3q-8 0 -8 -6q0 -11 18.5 -20t46.5 -10h20t16 -7.5t6 -17.5q0 -24 -22 -24h-8q30 -30 30 -72q0 -45 -31 -67q31 -23 31 -50q0 -25 -28 -39q28 -21 28 -49
q0 -18 -10 -31t-24 -19t-31 -6q-35 0 -64 21.5t-29 54.5q0 12 4 22q-54 -1 -82.5 12t-28.5 39q0 23 13 35t36 12q65 0 133 -57q40 2 40 13q0 12 -25 28h-8q-33 0 -57.5 20.5t-24.5 55.5q0 28 15 44t36 16q20 0 35 -14.5t15 -37.5t-11 -37q25 5 25 41q0 42 -41 67
q-49 3 -55 3q-10 0 -14.5 7.5t-4.5 16.5q0 23 19 23h3t7 -0.5t9 -0.5q-27 16 -27 39t19 34q-28 15 -28 42q0 41 38 41q7 0 32.5 -3t33.5 -3q9 0 9 8q0 6 -12.5 15t-33.5 17q-14 3 -27 9t-23 15.5t-16 23.5t-6 30q0 33 21 50.5t52 17.5q35 0 61.5 -21.5t26.5 -60.5
q0 -41 -34 -57q34 -22 34 -50q0 -43 -43 -43q-15 0 -37 2.5t-24 2.5zM272 642q0 -13 14 -21.5t31 -8.5q30 0 30 22q0 13 -14.5 22t-30.5 9q-14 0 -22 -6.5t-8 -16.5zM272 246q0 -16 25 -24q5 11 5 24q0 8 -5 12.5t-11 4.5q-4 0 -9 -5t-5 -12zM166 142q0 -10 78 -11
q-42 16 -67 16q-11 0 -11 -5zM322 38q25 0 25 20q0 14 -16.5 23.5t-36.5 9.5q-22 0 -22 -17q0 -16 16 -26t34 -10z" />
    <glyph glyph-name="divide" unicode="&#xf7;" horiz-adv-x="440" 
d="M229 405q-21 0 -35.5 14.5t-14.5 35.5t14.5 35.5t35.5 14.5q20 0 34.5 -14.5t14.5 -35.5t-14.5 -35.5t-34.5 -14.5zM112 294q-18 0 -27.5 10.5t-9.5 24.5q0 15 9.5 25t27.5 10l240 -1q19 0 30 -10.5t11 -24.5t-11 -24.5t-30 -10.5zM228 151q-21 0 -35.5 14.5t-14.5 35.5
t14.5 35.5t35.5 14.5q20 0 34.5 -14.5t14.5 -35.5t-14.5 -35.5t-34.5 -14.5z" />
    <glyph glyph-name="oslash" unicode="&#xf8;" 
d="M286 486q-11 0 -11 -8q0 -10 15.5 -17.5t42.5 -9.5h14h24q19 0 19 -21q0 -15 -8.5 -20t-34.5 -5q-13 0 -33 3t-23 3q-8 0 -8 -6q0 -11 18.5 -20t46.5 -10h20t16 -7.5t6 -17.5q0 -24 -22 -24h-8q30 -30 30 -72q0 -45 -31 -67q31 -23 31 -50q0 -25 -28 -39q28 -21 28 -49
q0 -18 -10 -31t-24 -19t-31 -6q-35 0 -64 21.5t-29 54.5q0 12 4 22q-54 -1 -82.5 12t-28.5 39q0 23 13 35t36 12q65 0 133 -57q40 2 40 13q0 12 -25 28h-8q-33 0 -57.5 20.5t-24.5 55.5q0 28 15 44t36 16q20 0 35 -14.5t15 -37.5t-11 -37q25 5 25 41q0 42 -41 67
q-49 3 -55 3q-10 0 -14.5 7.5t-4.5 16.5q0 23 19 23h3t7 -0.5t9 -0.5q-27 16 -27 39t19 34q-28 15 -28 42q0 41 38 41q7 0 32.5 -3t33.5 -3q9 0 9 8q0 6 -12.5 15t-33.5 17q-14 3 -27 9t-23 15.5t-16 23.5t-6 30q0 33 21 50.5t52 17.5q35 0 61.5 -21.5t26.5 -60.5
q0 -41 -34 -57q34 -22 34 -50q0 -43 -43 -43q-15 0 -37 2.5t-24 2.5zM272 642q0 -13 14 -21.5t31 -8.5q30 0 30 22q0 13 -14.5 22t-30.5 9q-14 0 -22 -6.5t-8 -16.5zM272 246q0 -16 25 -24q5 11 5 24q0 8 -5 12.5t-11 4.5q-4 0 -9 -5t-5 -12zM166 142q0 -10 78 -11
q-42 16 -67 16q-11 0 -11 -5zM322 38q25 0 25 20q0 14 -16.5 23.5t-36.5 9.5q-22 0 -22 -17q0 -16 16 -26t34 -10z" />
    <glyph glyph-name="ugrave" unicode="&#xf9;" 
d="M286 486q-11 0 -11 -8q0 -10 15.5 -17.5t42.5 -9.5h14h24q19 0 19 -21q0 -15 -8.5 -20t-34.5 -5q-13 0 -33 3t-23 3q-8 0 -8 -6q0 -11 18.5 -20t46.5 -10h20t16 -7.5t6 -17.5q0 -24 -22 -24h-8q30 -30 30 -72q0 -45 -31 -67q31 -23 31 -50q0 -25 -28 -39q28 -21 28 -49
q0 -18 -10 -31t-24 -19t-31 -6q-35 0 -64 21.5t-29 54.5q0 12 4 22q-54 -1 -82.5 12t-28.5 39q0 23 13 35t36 12q65 0 133 -57q40 2 40 13q0 12 -25 28h-8q-33 0 -57.5 20.5t-24.5 55.5q0 28 15 44t36 16q20 0 35 -14.5t15 -37.5t-11 -37q25 5 25 41q0 42 -41 67
q-49 3 -55 3q-10 0 -14.5 7.5t-4.5 16.5q0 23 19 23h3t7 -0.5t9 -0.5q-27 16 -27 39t19 34q-28 15 -28 42q0 41 38 41q7 0 32.5 -3t33.5 -3q9 0 9 8q0 6 -12.5 15t-33.5 17q-14 3 -27 9t-23 15.5t-16 23.5t-6 30q0 33 21 50.5t52 17.5q35 0 61.5 -21.5t26.5 -60.5
q0 -41 -34 -57q34 -22 34 -50q0 -43 -43 -43q-15 0 -37 2.5t-24 2.5zM272 642q0 -13 14 -21.5t31 -8.5q30 0 30 22q0 13 -14.5 22t-30.5 9q-14 0 -22 -6.5t-8 -16.5zM272 246q0 -16 25 -24q5 11 5 24q0 8 -5 12.5t-11 4.5q-4 0 -9 -5t-5 -12zM166 142q0 -10 78 -11
q-42 16 -67 16q-11 0 -11 -5zM322 38q25 0 25 20q0 14 -16.5 23.5t-36.5 9.5q-22 0 -22 -17q0 -16 16 -26t34 -10z" />
    <glyph glyph-name="uacute" unicode="&#xfa;" 
d="M286 486q-11 0 -11 -8q0 -10 15.5 -17.5t42.5 -9.5h14h24q19 0 19 -21q0 -15 -8.5 -20t-34.5 -5q-13 0 -33 3t-23 3q-8 0 -8 -6q0 -11 18.5 -20t46.5 -10h20t16 -7.5t6 -17.5q0 -24 -22 -24h-8q30 -30 30 -72q0 -45 -31 -67q31 -23 31 -50q0 -25 -28 -39q28 -21 28 -49
q0 -18 -10 -31t-24 -19t-31 -6q-35 0 -64 21.5t-29 54.5q0 12 4 22q-54 -1 -82.5 12t-28.5 39q0 23 13 35t36 12q65 0 133 -57q40 2 40 13q0 12 -25 28h-8q-33 0 -57.5 20.5t-24.5 55.5q0 28 15 44t36 16q20 0 35 -14.5t15 -37.5t-11 -37q25 5 25 41q0 42 -41 67
q-49 3 -55 3q-10 0 -14.5 7.5t-4.5 16.5q0 23 19 23h3t7 -0.5t9 -0.5q-27 16 -27 39t19 34q-28 15 -28 42q0 41 38 41q7 0 32.5 -3t33.5 -3q9 0 9 8q0 6 -12.5 15t-33.5 17q-14 3 -27 9t-23 15.5t-16 23.5t-6 30q0 33 21 50.5t52 17.5q35 0 61.5 -21.5t26.5 -60.5
q0 -41 -34 -57q34 -22 34 -50q0 -43 -43 -43q-15 0 -37 2.5t-24 2.5zM272 642q0 -13 14 -21.5t31 -8.5q30 0 30 22q0 13 -14.5 22t-30.5 9q-14 0 -22 -6.5t-8 -16.5zM272 246q0 -16 25 -24q5 11 5 24q0 8 -5 12.5t-11 4.5q-4 0 -9 -5t-5 -12zM166 142q0 -10 78 -11
q-42 16 -67 16q-11 0 -11 -5zM322 38q25 0 25 20q0 14 -16.5 23.5t-36.5 9.5q-22 0 -22 -17q0 -16 16 -26t34 -10z" />
    <glyph glyph-name="ucircumflex" unicode="&#xfb;" 
d="M286 486q-11 0 -11 -8q0 -10 15.5 -17.5t42.5 -9.5h14h24q19 0 19 -21q0 -15 -8.5 -20t-34.5 -5q-13 0 -33 3t-23 3q-8 0 -8 -6q0 -11 18.5 -20t46.5 -10h20t16 -7.5t6 -17.5q0 -24 -22 -24h-8q30 -30 30 -72q0 -45 -31 -67q31 -23 31 -50q0 -25 -28 -39q28 -21 28 -49
q0 -18 -10 -31t-24 -19t-31 -6q-35 0 -64 21.5t-29 54.5q0 12 4 22q-54 -1 -82.5 12t-28.5 39q0 23 13 35t36 12q65 0 133 -57q40 2 40 13q0 12 -25 28h-8q-33 0 -57.5 20.5t-24.5 55.5q0 28 15 44t36 16q20 0 35 -14.5t15 -37.5t-11 -37q25 5 25 41q0 42 -41 67
q-49 3 -55 3q-10 0 -14.5 7.5t-4.5 16.5q0 23 19 23h3t7 -0.5t9 -0.5q-27 16 -27 39t19 34q-28 15 -28 42q0 41 38 41q7 0 32.5 -3t33.5 -3q9 0 9 8q0 6 -12.5 15t-33.5 17q-14 3 -27 9t-23 15.5t-16 23.5t-6 30q0 33 21 50.5t52 17.5q35 0 61.5 -21.5t26.5 -60.5
q0 -41 -34 -57q34 -22 34 -50q0 -43 -43 -43q-15 0 -37 2.5t-24 2.5zM272 642q0 -13 14 -21.5t31 -8.5q30 0 30 22q0 13 -14.5 22t-30.5 9q-14 0 -22 -6.5t-8 -16.5zM272 246q0 -16 25 -24q5 11 5 24q0 8 -5 12.5t-11 4.5q-4 0 -9 -5t-5 -12zM166 142q0 -10 78 -11
q-42 16 -67 16q-11 0 -11 -5zM322 38q25 0 25 20q0 14 -16.5 23.5t-36.5 9.5q-22 0 -22 -17q0 -16 16 -26t34 -10z" />
    <glyph glyph-name="udieresis" unicode="&#xfc;" 
d="M286 486q-11 0 -11 -8q0 -10 15.5 -17.5t42.5 -9.5h14h24q19 0 19 -21q0 -15 -8.5 -20t-34.5 -5q-13 0 -33 3t-23 3q-8 0 -8 -6q0 -11 18.5 -20t46.5 -10h20t16 -7.5t6 -17.5q0 -24 -22 -24h-8q30 -30 30 -72q0 -45 -31 -67q31 -23 31 -50q0 -25 -28 -39q28 -21 28 -49
q0 -18 -10 -31t-24 -19t-31 -6q-35 0 -64 21.5t-29 54.5q0 12 4 22q-54 -1 -82.5 12t-28.5 39q0 23 13 35t36 12q65 0 133 -57q40 2 40 13q0 12 -25 28h-8q-33 0 -57.5 20.5t-24.5 55.5q0 28 15 44t36 16q20 0 35 -14.5t15 -37.5t-11 -37q25 5 25 41q0 42 -41 67
q-49 3 -55 3q-10 0 -14.5 7.5t-4.5 16.5q0 23 19 23h3t7 -0.5t9 -0.5q-27 16 -27 39t19 34q-28 15 -28 42q0 41 38 41q7 0 32.5 -3t33.5 -3q9 0 9 8q0 6 -12.5 15t-33.5 17q-14 3 -27 9t-23 15.5t-16 23.5t-6 30q0 33 21 50.5t52 17.5q35 0 61.5 -21.5t26.5 -60.5
q0 -41 -34 -57q34 -22 34 -50q0 -43 -43 -43q-15 0 -37 2.5t-24 2.5zM272 642q0 -13 14 -21.5t31 -8.5q30 0 30 22q0 13 -14.5 22t-30.5 9q-14 0 -22 -6.5t-8 -16.5zM272 246q0 -16 25 -24q5 11 5 24q0 8 -5 12.5t-11 4.5q-4 0 -9 -5t-5 -12zM166 142q0 -10 78 -11
q-42 16 -67 16q-11 0 -11 -5zM322 38q25 0 25 20q0 14 -16.5 23.5t-36.5 9.5q-22 0 -22 -17q0 -16 16 -26t34 -10z" />
    <glyph glyph-name="yacute" unicode="&#xfd;" 
d="M286 486q-11 0 -11 -8q0 -10 15.5 -17.5t42.5 -9.5h14h24q19 0 19 -21q0 -15 -8.5 -20t-34.5 -5q-13 0 -33 3t-23 3q-8 0 -8 -6q0 -11 18.5 -20t46.5 -10h20t16 -7.5t6 -17.5q0 -24 -22 -24h-8q30 -30 30 -72q0 -45 -31 -67q31 -23 31 -50q0 -25 -28 -39q28 -21 28 -49
q0 -18 -10 -31t-24 -19t-31 -6q-35 0 -64 21.5t-29 54.5q0 12 4 22q-54 -1 -82.5 12t-28.5 39q0 23 13 35t36 12q65 0 133 -57q40 2 40 13q0 12 -25 28h-8q-33 0 -57.5 20.5t-24.5 55.5q0 28 15 44t36 16q20 0 35 -14.5t15 -37.5t-11 -37q25 5 25 41q0 42 -41 67
q-49 3 -55 3q-10 0 -14.5 7.5t-4.5 16.5q0 23 19 23h3t7 -0.5t9 -0.5q-27 16 -27 39t19 34q-28 15 -28 42q0 41 38 41q7 0 32.5 -3t33.5 -3q9 0 9 8q0 6 -12.5 15t-33.5 17q-14 3 -27 9t-23 15.5t-16 23.5t-6 30q0 33 21 50.5t52 17.5q35 0 61.5 -21.5t26.5 -60.5
q0 -41 -34 -57q34 -22 34 -50q0 -43 -43 -43q-15 0 -37 2.5t-24 2.5zM272 642q0 -13 14 -21.5t31 -8.5q30 0 30 22q0 13 -14.5 22t-30.5 9q-14 0 -22 -6.5t-8 -16.5zM272 246q0 -16 25 -24q5 11 5 24q0 8 -5 12.5t-11 4.5q-4 0 -9 -5t-5 -12zM166 142q0 -10 78 -11
q-42 16 -67 16q-11 0 -11 -5zM322 38q25 0 25 20q0 14 -16.5 23.5t-36.5 9.5q-22 0 -22 -17q0 -16 16 -26t34 -10z" />
    <glyph glyph-name="thorn" unicode="&#xfe;" 
d="M286 486q-11 0 -11 -8q0 -10 15.5 -17.5t42.5 -9.5h14h24q19 0 19 -21q0 -15 -8.5 -20t-34.5 -5q-13 0 -33 3t-23 3q-8 0 -8 -6q0 -11 18.5 -20t46.5 -10h20t16 -7.5t6 -17.5q0 -24 -22 -24h-8q30 -30 30 -72q0 -45 -31 -67q31 -23 31 -50q0 -25 -28 -39q28 -21 28 -49
q0 -18 -10 -31t-24 -19t-31 -6q-35 0 -64 21.5t-29 54.5q0 12 4 22q-54 -1 -82.5 12t-28.5 39q0 23 13 35t36 12q65 0 133 -57q40 2 40 13q0 12 -25 28h-8q-33 0 -57.5 20.5t-24.5 55.5q0 28 15 44t36 16q20 0 35 -14.5t15 -37.5t-11 -37q25 5 25 41q0 42 -41 67
q-49 3 -55 3q-10 0 -14.5 7.5t-4.5 16.5q0 23 19 23h3t7 -0.5t9 -0.5q-27 16 -27 39t19 34q-28 15 -28 42q0 41 38 41q7 0 32.5 -3t33.5 -3q9 0 9 8q0 6 -12.5 15t-33.5 17q-14 3 -27 9t-23 15.5t-16 23.5t-6 30q0 33 21 50.5t52 17.5q35 0 61.5 -21.5t26.5 -60.5
q0 -41 -34 -57q34 -22 34 -50q0 -43 -43 -43q-15 0 -37 2.5t-24 2.5zM272 642q0 -13 14 -21.5t31 -8.5q30 0 30 22q0 13 -14.5 22t-30.5 9q-14 0 -22 -6.5t-8 -16.5zM272 246q0 -16 25 -24q5 11 5 24q0 8 -5 12.5t-11 4.5q-4 0 -9 -5t-5 -12zM166 142q0 -10 78 -11
q-42 16 -67 16q-11 0 -11 -5zM322 38q25 0 25 20q0 14 -16.5 23.5t-36.5 9.5q-22 0 -22 -17q0 -16 16 -26t34 -10z" />
    <glyph glyph-name="ydieresis" unicode="&#xff;" 
d="M286 486q-11 0 -11 -8q0 -10 15.5 -17.5t42.5 -9.5h14h24q19 0 19 -21q0 -15 -8.5 -20t-34.5 -5q-13 0 -33 3t-23 3q-8 0 -8 -6q0 -11 18.5 -20t46.5 -10h20t16 -7.5t6 -17.5q0 -24 -22 -24h-8q30 -30 30 -72q0 -45 -31 -67q31 -23 31 -50q0 -25 -28 -39q28 -21 28 -49
q0 -18 -10 -31t-24 -19t-31 -6q-35 0 -64 21.5t-29 54.5q0 12 4 22q-54 -1 -82.5 12t-28.5 39q0 23 13 35t36 12q65 0 133 -57q40 2 40 13q0 12 -25 28h-8q-33 0 -57.5 20.5t-24.5 55.5q0 28 15 44t36 16q20 0 35 -14.5t15 -37.5t-11 -37q25 5 25 41q0 42 -41 67
q-49 3 -55 3q-10 0 -14.5 7.5t-4.5 16.5q0 23 19 23h3t7 -0.5t9 -0.5q-27 16 -27 39t19 34q-28 15 -28 42q0 41 38 41q7 0 32.5 -3t33.5 -3q9 0 9 8q0 6 -12.5 15t-33.5 17q-14 3 -27 9t-23 15.5t-16 23.5t-6 30q0 33 21 50.5t52 17.5q35 0 61.5 -21.5t26.5 -60.5
q0 -41 -34 -57q34 -22 34 -50q0 -43 -43 -43q-15 0 -37 2.5t-24 2.5zM272 642q0 -13 14 -21.5t31 -8.5q30 0 30 22q0 13 -14.5 22t-30.5 9q-14 0 -22 -6.5t-8 -16.5zM272 246q0 -16 25 -24q5 11 5 24q0 8 -5 12.5t-11 4.5q-4 0 -9 -5t-5 -12zM166 142q0 -10 78 -11
q-42 16 -67 16q-11 0 -11 -5zM322 38q25 0 25 20q0 14 -16.5 23.5t-36.5 9.5q-22 0 -22 -17q0 -16 16 -26t34 -10z" />
    <glyph glyph-name="Amacron" unicode="&#x100;" 
d="M286 486q-11 0 -11 -8q0 -10 15.5 -17.5t42.5 -9.5h14h24q19 0 19 -21q0 -15 -8.5 -20t-34.5 -5q-13 0 -33 3t-23 3q-8 0 -8 -6q0 -11 18.5 -20t46.5 -10h20t16 -7.5t6 -17.5q0 -24 -22 -24h-8q30 -30 30 -72q0 -45 -31 -67q31 -23 31 -50q0 -25 -28 -39q28 -21 28 -49
q0 -18 -10 -31t-24 -19t-31 -6q-35 0 -64 21.5t-29 54.5q0 12 4 22q-54 -1 -82.5 12t-28.5 39q0 23 13 35t36 12q65 0 133 -57q40 2 40 13q0 12 -25 28h-8q-33 0 -57.5 20.5t-24.5 55.5q0 28 15 44t36 16q20 0 35 -14.5t15 -37.5t-11 -37q25 5 25 41q0 42 -41 67
q-49 3 -55 3q-10 0 -14.5 7.5t-4.5 16.5q0 23 19 23h3t7 -0.5t9 -0.5q-27 16 -27 39t19 34q-28 15 -28 42q0 41 38 41q7 0 32.5 -3t33.5 -3q9 0 9 8q0 6 -12.5 15t-33.5 17q-14 3 -27 9t-23 15.5t-16 23.5t-6 30q0 33 21 50.5t52 17.5q35 0 61.5 -21.5t26.5 -60.5
q0 -41 -34 -57q34 -22 34 -50q0 -43 -43 -43q-15 0 -37 2.5t-24 2.5zM272 642q0 -13 14 -21.5t31 -8.5q30 0 30 22q0 13 -14.5 22t-30.5 9q-14 0 -22 -6.5t-8 -16.5zM272 246q0 -16 25 -24q5 11 5 24q0 8 -5 12.5t-11 4.5q-4 0 -9 -5t-5 -12zM166 142q0 -10 78 -11
q-42 16 -67 16q-11 0 -11 -5zM322 38q25 0 25 20q0 14 -16.5 23.5t-36.5 9.5q-22 0 -22 -17q0 -16 16 -26t34 -10z" />
    <glyph glyph-name="amacron" unicode="&#x101;" 
d="M286 486q-11 0 -11 -8q0 -10 15.5 -17.5t42.5 -9.5h14h24q19 0 19 -21q0 -15 -8.5 -20t-34.5 -5q-13 0 -33 3t-23 3q-8 0 -8 -6q0 -11 18.5 -20t46.5 -10h20t16 -7.5t6 -17.5q0 -24 -22 -24h-8q30 -30 30 -72q0 -45 -31 -67q31 -23 31 -50q0 -25 -28 -39q28 -21 28 -49
q0 -18 -10 -31t-24 -19t-31 -6q-35 0 -64 21.5t-29 54.5q0 12 4 22q-54 -1 -82.5 12t-28.5 39q0 23 13 35t36 12q65 0 133 -57q40 2 40 13q0 12 -25 28h-8q-33 0 -57.5 20.5t-24.5 55.5q0 28 15 44t36 16q20 0 35 -14.5t15 -37.5t-11 -37q25 5 25 41q0 42 -41 67
q-49 3 -55 3q-10 0 -14.5 7.5t-4.5 16.5q0 23 19 23h3t7 -0.5t9 -0.5q-27 16 -27 39t19 34q-28 15 -28 42q0 41 38 41q7 0 32.5 -3t33.5 -3q9 0 9 8q0 6 -12.5 15t-33.5 17q-14 3 -27 9t-23 15.5t-16 23.5t-6 30q0 33 21 50.5t52 17.5q35 0 61.5 -21.5t26.5 -60.5
q0 -41 -34 -57q34 -22 34 -50q0 -43 -43 -43q-15 0 -37 2.5t-24 2.5zM272 642q0 -13 14 -21.5t31 -8.5q30 0 30 22q0 13 -14.5 22t-30.5 9q-14 0 -22 -6.5t-8 -16.5zM272 246q0 -16 25 -24q5 11 5 24q0 8 -5 12.5t-11 4.5q-4 0 -9 -5t-5 -12zM166 142q0 -10 78 -11
q-42 16 -67 16q-11 0 -11 -5zM322 38q25 0 25 20q0 14 -16.5 23.5t-36.5 9.5q-22 0 -22 -17q0 -16 16 -26t34 -10z" />
    <glyph glyph-name="Abreve" unicode="&#x102;" 
d="M286 486q-11 0 -11 -8q0 -10 15.5 -17.5t42.5 -9.5h14h24q19 0 19 -21q0 -15 -8.5 -20t-34.5 -5q-13 0 -33 3t-23 3q-8 0 -8 -6q0 -11 18.5 -20t46.5 -10h20t16 -7.5t6 -17.5q0 -24 -22 -24h-8q30 -30 30 -72q0 -45 -31 -67q31 -23 31 -50q0 -25 -28 -39q28 -21 28 -49
q0 -18 -10 -31t-24 -19t-31 -6q-35 0 -64 21.5t-29 54.5q0 12 4 22q-54 -1 -82.5 12t-28.5 39q0 23 13 35t36 12q65 0 133 -57q40 2 40 13q0 12 -25 28h-8q-33 0 -57.5 20.5t-24.5 55.5q0 28 15 44t36 16q20 0 35 -14.5t15 -37.5t-11 -37q25 5 25 41q0 42 -41 67
q-49 3 -55 3q-10 0 -14.5 7.5t-4.5 16.5q0 23 19 23h3t7 -0.5t9 -0.5q-27 16 -27 39t19 34q-28 15 -28 42q0 41 38 41q7 0 32.5 -3t33.5 -3q9 0 9 8q0 6 -12.5 15t-33.5 17q-14 3 -27 9t-23 15.5t-16 23.5t-6 30q0 33 21 50.5t52 17.5q35 0 61.5 -21.5t26.5 -60.5
q0 -41 -34 -57q34 -22 34 -50q0 -43 -43 -43q-15 0 -37 2.5t-24 2.5zM272 642q0 -13 14 -21.5t31 -8.5q30 0 30 22q0 13 -14.5 22t-30.5 9q-14 0 -22 -6.5t-8 -16.5zM272 246q0 -16 25 -24q5 11 5 24q0 8 -5 12.5t-11 4.5q-4 0 -9 -5t-5 -12zM166 142q0 -10 78 -11
q-42 16 -67 16q-11 0 -11 -5zM322 38q25 0 25 20q0 14 -16.5 23.5t-36.5 9.5q-22 0 -22 -17q0 -16 16 -26t34 -10z" />
    <glyph glyph-name="abreve" unicode="&#x103;" 
d="M286 486q-11 0 -11 -8q0 -10 15.5 -17.5t42.5 -9.5h14h24q19 0 19 -21q0 -15 -8.5 -20t-34.5 -5q-13 0 -33 3t-23 3q-8 0 -8 -6q0 -11 18.5 -20t46.5 -10h20t16 -7.5t6 -17.5q0 -24 -22 -24h-8q30 -30 30 -72q0 -45 -31 -67q31 -23 31 -50q0 -25 -28 -39q28 -21 28 -49
q0 -18 -10 -31t-24 -19t-31 -6q-35 0 -64 21.5t-29 54.5q0 12 4 22q-54 -1 -82.5 12t-28.5 39q0 23 13 35t36 12q65 0 133 -57q40 2 40 13q0 12 -25 28h-8q-33 0 -57.5 20.5t-24.5 55.5q0 28 15 44t36 16q20 0 35 -14.5t15 -37.5t-11 -37q25 5 25 41q0 42 -41 67
q-49 3 -55 3q-10 0 -14.5 7.5t-4.5 16.5q0 23 19 23h3t7 -0.5t9 -0.5q-27 16 -27 39t19 34q-28 15 -28 42q0 41 38 41q7 0 32.5 -3t33.5 -3q9 0 9 8q0 6 -12.5 15t-33.5 17q-14 3 -27 9t-23 15.5t-16 23.5t-6 30q0 33 21 50.5t52 17.5q35 0 61.5 -21.5t26.5 -60.5
q0 -41 -34 -57q34 -22 34 -50q0 -43 -43 -43q-15 0 -37 2.5t-24 2.5zM272 642q0 -13 14 -21.5t31 -8.5q30 0 30 22q0 13 -14.5 22t-30.5 9q-14 0 -22 -6.5t-8 -16.5zM272 246q0 -16 25 -24q5 11 5 24q0 8 -5 12.5t-11 4.5q-4 0 -9 -5t-5 -12zM166 142q0 -10 78 -11
q-42 16 -67 16q-11 0 -11 -5zM322 38q25 0 25 20q0 14 -16.5 23.5t-36.5 9.5q-22 0 -22 -17q0 -16 16 -26t34 -10z" />
    <glyph glyph-name="Aogonek" unicode="&#x104;" 
d="M286 486q-11 0 -11 -8q0 -10 15.5 -17.5t42.5 -9.5h14h24q19 0 19 -21q0 -15 -8.5 -20t-34.5 -5q-13 0 -33 3t-23 3q-8 0 -8 -6q0 -11 18.5 -20t46.5 -10h20t16 -7.5t6 -17.5q0 -24 -22 -24h-8q30 -30 30 -72q0 -45 -31 -67q31 -23 31 -50q0 -25 -28 -39q28 -21 28 -49
q0 -18 -10 -31t-24 -19t-31 -6q-35 0 -64 21.5t-29 54.5q0 12 4 22q-54 -1 -82.5 12t-28.5 39q0 23 13 35t36 12q65 0 133 -57q40 2 40 13q0 12 -25 28h-8q-33 0 -57.5 20.5t-24.5 55.5q0 28 15 44t36 16q20 0 35 -14.5t15 -37.5t-11 -37q25 5 25 41q0 42 -41 67
q-49 3 -55 3q-10 0 -14.5 7.5t-4.5 16.5q0 23 19 23h3t7 -0.5t9 -0.5q-27 16 -27 39t19 34q-28 15 -28 42q0 41 38 41q7 0 32.5 -3t33.5 -3q9 0 9 8q0 6 -12.5 15t-33.5 17q-14 3 -27 9t-23 15.5t-16 23.5t-6 30q0 33 21 50.5t52 17.5q35 0 61.5 -21.5t26.5 -60.5
q0 -41 -34 -57q34 -22 34 -50q0 -43 -43 -43q-15 0 -37 2.5t-24 2.5zM272 642q0 -13 14 -21.5t31 -8.5q30 0 30 22q0 13 -14.5 22t-30.5 9q-14 0 -22 -6.5t-8 -16.5zM272 246q0 -16 25 -24q5 11 5 24q0 8 -5 12.5t-11 4.5q-4 0 -9 -5t-5 -12zM166 142q0 -10 78 -11
q-42 16 -67 16q-11 0 -11 -5zM322 38q25 0 25 20q0 14 -16.5 23.5t-36.5 9.5q-22 0 -22 -17q0 -16 16 -26t34 -10z" />
    <glyph glyph-name="aogonek" unicode="&#x105;" 
d="M286 486q-11 0 -11 -8q0 -10 15.5 -17.5t42.5 -9.5h14h24q19 0 19 -21q0 -15 -8.5 -20t-34.5 -5q-13 0 -33 3t-23 3q-8 0 -8 -6q0 -11 18.5 -20t46.5 -10h20t16 -7.5t6 -17.5q0 -24 -22 -24h-8q30 -30 30 -72q0 -45 -31 -67q31 -23 31 -50q0 -25 -28 -39q28 -21 28 -49
q0 -18 -10 -31t-24 -19t-31 -6q-35 0 -64 21.5t-29 54.5q0 12 4 22q-54 -1 -82.5 12t-28.5 39q0 23 13 35t36 12q65 0 133 -57q40 2 40 13q0 12 -25 28h-8q-33 0 -57.5 20.5t-24.5 55.5q0 28 15 44t36 16q20 0 35 -14.5t15 -37.5t-11 -37q25 5 25 41q0 42 -41 67
q-49 3 -55 3q-10 0 -14.5 7.5t-4.5 16.5q0 23 19 23h3t7 -0.5t9 -0.5q-27 16 -27 39t19 34q-28 15 -28 42q0 41 38 41q7 0 32.5 -3t33.5 -3q9 0 9 8q0 6 -12.5 15t-33.5 17q-14 3 -27 9t-23 15.5t-16 23.5t-6 30q0 33 21 50.5t52 17.5q35 0 61.5 -21.5t26.5 -60.5
q0 -41 -34 -57q34 -22 34 -50q0 -43 -43 -43q-15 0 -37 2.5t-24 2.5zM272 642q0 -13 14 -21.5t31 -8.5q30 0 30 22q0 13 -14.5 22t-30.5 9q-14 0 -22 -6.5t-8 -16.5zM272 246q0 -16 25 -24q5 11 5 24q0 8 -5 12.5t-11 4.5q-4 0 -9 -5t-5 -12zM166 142q0 -10 78 -11
q-42 16 -67 16q-11 0 -11 -5zM322 38q25 0 25 20q0 14 -16.5 23.5t-36.5 9.5q-22 0 -22 -17q0 -16 16 -26t34 -10z" />
    <glyph glyph-name="Cacute" unicode="&#x106;" 
d="M286 486q-11 0 -11 -8q0 -10 15.5 -17.5t42.5 -9.5h14h24q19 0 19 -21q0 -15 -8.5 -20t-34.5 -5q-13 0 -33 3t-23 3q-8 0 -8 -6q0 -11 18.5 -20t46.5 -10h20t16 -7.5t6 -17.5q0 -24 -22 -24h-8q30 -30 30 -72q0 -45 -31 -67q31 -23 31 -50q0 -25 -28 -39q28 -21 28 -49
q0 -18 -10 -31t-24 -19t-31 -6q-35 0 -64 21.5t-29 54.5q0 12 4 22q-54 -1 -82.5 12t-28.5 39q0 23 13 35t36 12q65 0 133 -57q40 2 40 13q0 12 -25 28h-8q-33 0 -57.5 20.5t-24.5 55.5q0 28 15 44t36 16q20 0 35 -14.5t15 -37.5t-11 -37q25 5 25 41q0 42 -41 67
q-49 3 -55 3q-10 0 -14.5 7.5t-4.5 16.5q0 23 19 23h3t7 -0.5t9 -0.5q-27 16 -27 39t19 34q-28 15 -28 42q0 41 38 41q7 0 32.5 -3t33.5 -3q9 0 9 8q0 6 -12.5 15t-33.5 17q-14 3 -27 9t-23 15.5t-16 23.5t-6 30q0 33 21 50.5t52 17.5q35 0 61.5 -21.5t26.5 -60.5
q0 -41 -34 -57q34 -22 34 -50q0 -43 -43 -43q-15 0 -37 2.5t-24 2.5zM272 642q0 -13 14 -21.5t31 -8.5q30 0 30 22q0 13 -14.5 22t-30.5 9q-14 0 -22 -6.5t-8 -16.5zM272 246q0 -16 25 -24q5 11 5 24q0 8 -5 12.5t-11 4.5q-4 0 -9 -5t-5 -12zM166 142q0 -10 78 -11
q-42 16 -67 16q-11 0 -11 -5zM322 38q25 0 25 20q0 14 -16.5 23.5t-36.5 9.5q-22 0 -22 -17q0 -16 16 -26t34 -10z" />
    <glyph glyph-name="cacute" unicode="&#x107;" 
d="M286 486q-11 0 -11 -8q0 -10 15.5 -17.5t42.5 -9.5h14h24q19 0 19 -21q0 -15 -8.5 -20t-34.5 -5q-13 0 -33 3t-23 3q-8 0 -8 -6q0 -11 18.5 -20t46.5 -10h20t16 -7.5t6 -17.5q0 -24 -22 -24h-8q30 -30 30 -72q0 -45 -31 -67q31 -23 31 -50q0 -25 -28 -39q28 -21 28 -49
q0 -18 -10 -31t-24 -19t-31 -6q-35 0 -64 21.5t-29 54.5q0 12 4 22q-54 -1 -82.5 12t-28.5 39q0 23 13 35t36 12q65 0 133 -57q40 2 40 13q0 12 -25 28h-8q-33 0 -57.5 20.5t-24.5 55.5q0 28 15 44t36 16q20 0 35 -14.5t15 -37.5t-11 -37q25 5 25 41q0 42 -41 67
q-49 3 -55 3q-10 0 -14.5 7.5t-4.5 16.5q0 23 19 23h3t7 -0.5t9 -0.5q-27 16 -27 39t19 34q-28 15 -28 42q0 41 38 41q7 0 32.5 -3t33.5 -3q9 0 9 8q0 6 -12.5 15t-33.5 17q-14 3 -27 9t-23 15.5t-16 23.5t-6 30q0 33 21 50.5t52 17.5q35 0 61.5 -21.5t26.5 -60.5
q0 -41 -34 -57q34 -22 34 -50q0 -43 -43 -43q-15 0 -37 2.5t-24 2.5zM272 642q0 -13 14 -21.5t31 -8.5q30 0 30 22q0 13 -14.5 22t-30.5 9q-14 0 -22 -6.5t-8 -16.5zM272 246q0 -16 25 -24q5 11 5 24q0 8 -5 12.5t-11 4.5q-4 0 -9 -5t-5 -12zM166 142q0 -10 78 -11
q-42 16 -67 16q-11 0 -11 -5zM322 38q25 0 25 20q0 14 -16.5 23.5t-36.5 9.5q-22 0 -22 -17q0 -16 16 -26t34 -10z" />
    <glyph glyph-name="Ccircumflex" unicode="&#x108;" 
d="M286 486q-11 0 -11 -8q0 -10 15.5 -17.5t42.5 -9.5h14h24q19 0 19 -21q0 -15 -8.5 -20t-34.5 -5q-13 0 -33 3t-23 3q-8 0 -8 -6q0 -11 18.5 -20t46.5 -10h20t16 -7.5t6 -17.5q0 -24 -22 -24h-8q30 -30 30 -72q0 -45 -31 -67q31 -23 31 -50q0 -25 -28 -39q28 -21 28 -49
q0 -18 -10 -31t-24 -19t-31 -6q-35 0 -64 21.5t-29 54.5q0 12 4 22q-54 -1 -82.5 12t-28.5 39q0 23 13 35t36 12q65 0 133 -57q40 2 40 13q0 12 -25 28h-8q-33 0 -57.5 20.5t-24.5 55.5q0 28 15 44t36 16q20 0 35 -14.5t15 -37.5t-11 -37q25 5 25 41q0 42 -41 67
q-49 3 -55 3q-10 0 -14.5 7.5t-4.5 16.5q0 23 19 23h3t7 -0.5t9 -0.5q-27 16 -27 39t19 34q-28 15 -28 42q0 41 38 41q7 0 32.5 -3t33.5 -3q9 0 9 8q0 6 -12.5 15t-33.5 17q-14 3 -27 9t-23 15.5t-16 23.5t-6 30q0 33 21 50.5t52 17.5q35 0 61.5 -21.5t26.5 -60.5
q0 -41 -34 -57q34 -22 34 -50q0 -43 -43 -43q-15 0 -37 2.5t-24 2.5zM272 642q0 -13 14 -21.5t31 -8.5q30 0 30 22q0 13 -14.5 22t-30.5 9q-14 0 -22 -6.5t-8 -16.5zM272 246q0 -16 25 -24q5 11 5 24q0 8 -5 12.5t-11 4.5q-4 0 -9 -5t-5 -12zM166 142q0 -10 78 -11
q-42 16 -67 16q-11 0 -11 -5zM322 38q25 0 25 20q0 14 -16.5 23.5t-36.5 9.5q-22 0 -22 -17q0 -16 16 -26t34 -10z" />
    <glyph glyph-name="ccircumflex" unicode="&#x109;" 
d="M286 486q-11 0 -11 -8q0 -10 15.5 -17.5t42.5 -9.5h14h24q19 0 19 -21q0 -15 -8.5 -20t-34.5 -5q-13 0 -33 3t-23 3q-8 0 -8 -6q0 -11 18.5 -20t46.5 -10h20t16 -7.5t6 -17.5q0 -24 -22 -24h-8q30 -30 30 -72q0 -45 -31 -67q31 -23 31 -50q0 -25 -28 -39q28 -21 28 -49
q0 -18 -10 -31t-24 -19t-31 -6q-35 0 -64 21.5t-29 54.5q0 12 4 22q-54 -1 -82.5 12t-28.5 39q0 23 13 35t36 12q65 0 133 -57q40 2 40 13q0 12 -25 28h-8q-33 0 -57.5 20.5t-24.5 55.5q0 28 15 44t36 16q20 0 35 -14.5t15 -37.5t-11 -37q25 5 25 41q0 42 -41 67
q-49 3 -55 3q-10 0 -14.5 7.5t-4.5 16.5q0 23 19 23h3t7 -0.5t9 -0.5q-27 16 -27 39t19 34q-28 15 -28 42q0 41 38 41q7 0 32.5 -3t33.5 -3q9 0 9 8q0 6 -12.5 15t-33.5 17q-14 3 -27 9t-23 15.5t-16 23.5t-6 30q0 33 21 50.5t52 17.5q35 0 61.5 -21.5t26.5 -60.5
q0 -41 -34 -57q34 -22 34 -50q0 -43 -43 -43q-15 0 -37 2.5t-24 2.5zM272 642q0 -13 14 -21.5t31 -8.5q30 0 30 22q0 13 -14.5 22t-30.5 9q-14 0 -22 -6.5t-8 -16.5zM272 246q0 -16 25 -24q5 11 5 24q0 8 -5 12.5t-11 4.5q-4 0 -9 -5t-5 -12zM166 142q0 -10 78 -11
q-42 16 -67 16q-11 0 -11 -5zM322 38q25 0 25 20q0 14 -16.5 23.5t-36.5 9.5q-22 0 -22 -17q0 -16 16 -26t34 -10z" />
    <glyph glyph-name="Cdotaccent" unicode="&#x10a;" 
d="M286 486q-11 0 -11 -8q0 -10 15.5 -17.5t42.5 -9.5h14h24q19 0 19 -21q0 -15 -8.5 -20t-34.5 -5q-13 0 -33 3t-23 3q-8 0 -8 -6q0 -11 18.5 -20t46.5 -10h20t16 -7.5t6 -17.5q0 -24 -22 -24h-8q30 -30 30 -72q0 -45 -31 -67q31 -23 31 -50q0 -25 -28 -39q28 -21 28 -49
q0 -18 -10 -31t-24 -19t-31 -6q-35 0 -64 21.5t-29 54.5q0 12 4 22q-54 -1 -82.5 12t-28.5 39q0 23 13 35t36 12q65 0 133 -57q40 2 40 13q0 12 -25 28h-8q-33 0 -57.5 20.5t-24.5 55.5q0 28 15 44t36 16q20 0 35 -14.5t15 -37.5t-11 -37q25 5 25 41q0 42 -41 67
q-49 3 -55 3q-10 0 -14.5 7.5t-4.5 16.5q0 23 19 23h3t7 -0.5t9 -0.5q-27 16 -27 39t19 34q-28 15 -28 42q0 41 38 41q7 0 32.5 -3t33.5 -3q9 0 9 8q0 6 -12.5 15t-33.5 17q-14 3 -27 9t-23 15.5t-16 23.5t-6 30q0 33 21 50.5t52 17.5q35 0 61.5 -21.5t26.5 -60.5
q0 -41 -34 -57q34 -22 34 -50q0 -43 -43 -43q-15 0 -37 2.5t-24 2.5zM272 642q0 -13 14 -21.5t31 -8.5q30 0 30 22q0 13 -14.5 22t-30.5 9q-14 0 -22 -6.5t-8 -16.5zM272 246q0 -16 25 -24q5 11 5 24q0 8 -5 12.5t-11 4.5q-4 0 -9 -5t-5 -12zM166 142q0 -10 78 -11
q-42 16 -67 16q-11 0 -11 -5zM322 38q25 0 25 20q0 14 -16.5 23.5t-36.5 9.5q-22 0 -22 -17q0 -16 16 -26t34 -10z" />
    </font>
</defs>
</svg>
